M48
;DRILL file {kicad (2015-01-16 BZR 5376)-product} date 2-3-2015 10:33:58
;FORMAT={-:-/ absolute / inch / decimal}
FMAT,2
INCH,TZ
T1C0.025
T2C0.030
T3C0.039
T4C0.039
T5C0.040
T6C0.051
T7C0.087
T8C0.091
%
G90
G05
M72
T1
X4.6535Y-2.748
X4.8819Y-2.7087
X4.937Y-2.8898
X4.937Y-2.9843
T2
X4.6929Y-2.8976
X4.7323Y-2.7008
X4.8268Y-2.1654
X4.9961Y-2.3091
X5.Y-2.8346
X5.2047Y-2.6457
X5.3622Y-2.6535
X5.4409Y-2.8268
T3
X4.2913Y-2.5689
X4.2913Y-2.6673
X4.2913Y-2.7657
X4.7244Y-3.1791
X4.8228Y-3.1791
X4.9213Y-3.1791
T4
X4.7165Y-2.2756
X4.9Y-2.05
X5.Y-2.05
X5.1Y-2.05
X5.2874Y-2.2756
T5
X4.2913Y-2.9724
X4.3228Y-3.1496
X4.498Y-3.189
X5.6299Y-2.9413
X5.6299Y-3.0413
X5.6299Y-3.1413
T6
X5.235Y-3.1496
X5.395Y-3.1496
X5.6496Y-2.5181
X5.6496Y-2.7181
T7
X4.4213Y-2.4705
X4.4213Y-2.8642
X4.626Y-3.0492
X5.0197Y-3.0492
T8
X4.5Y-1.9
X5.5Y-1.9
T0
M30
