G04 #@! TF.FileFunction,Legend,Top*
%FSLAX46Y46*%
G04 Gerber Fmt 4.6, Leading zero omitted, Abs format (unit mm)*
G04 Created by KiCad (PCBNEW (2015-01-16 BZR 5376)-product) date 1-3-2015 23:04:45*
%MOMM*%
G01*
G04 APERTURE LIST*
%ADD10C,0.100000*%
%ADD11C,0.300000*%
%ADD12C,0.250000*%
%ADD13C,0.150000*%
%ADD14C,0.200000*%
%ADD15C,0.140000*%
%ADD16C,1.998980*%
%ADD17R,2.794000X5.080000*%
%ADD18O,2.794000X5.080000*%
%ADD19R,1.397000X0.889000*%
%ADD20R,0.700000X0.600000*%
%ADD21R,0.889000X1.397000*%
%ADD22R,1.143000X0.508000*%
%ADD23R,0.508000X1.143000*%
%ADD24C,2.311400*%
%ADD25R,2.032000X1.727200*%
%ADD26O,2.032000X1.727200*%
%ADD27C,2.000000*%
%ADD28C,2.500000*%
%ADD29C,2.600000*%
%ADD30R,2.540000X2.540000*%
%ADD31O,2.540000X2.540000*%
%ADD32R,2.235200X2.235200*%
%ADD33O,1.501140X2.499360*%
G04 APERTURE END LIST*
D10*
D11*
X113821429Y-65600000D02*
X112321429Y-66100000D01*
X113821429Y-66600000D01*
X112321429Y-67314286D02*
X112392857Y-67171428D01*
X112464286Y-67100000D01*
X112607143Y-67028571D01*
X113035714Y-67028571D01*
X113178571Y-67100000D01*
X113250000Y-67171428D01*
X113321429Y-67314286D01*
X113321429Y-67528571D01*
X113250000Y-67671428D01*
X113178571Y-67742857D01*
X113035714Y-67814286D01*
X112607143Y-67814286D01*
X112464286Y-67742857D01*
X112392857Y-67671428D01*
X112321429Y-67528571D01*
X112321429Y-67314286D01*
X112321429Y-68671429D02*
X112392857Y-68528571D01*
X112535714Y-68457143D01*
X113821429Y-68457143D01*
X113321429Y-69028571D02*
X113321429Y-69600000D01*
X113821429Y-69242857D02*
X112535714Y-69242857D01*
X112392857Y-69314285D01*
X112321429Y-69457143D01*
X112321429Y-69600000D01*
X120364286Y-77050000D02*
X121078572Y-77050000D01*
X120221429Y-77478571D02*
X120721429Y-75978571D01*
X121221429Y-77478571D01*
X121721429Y-77478571D02*
X121721429Y-76478571D01*
X121721429Y-76621429D02*
X121792857Y-76550000D01*
X121935715Y-76478571D01*
X122150000Y-76478571D01*
X122292857Y-76550000D01*
X122364286Y-76692857D01*
X122364286Y-77478571D01*
X122364286Y-76692857D02*
X122435715Y-76550000D01*
X122578572Y-76478571D01*
X122792857Y-76478571D01*
X122935715Y-76550000D01*
X123007143Y-76692857D01*
X123007143Y-77478571D01*
X123721429Y-76478571D02*
X123721429Y-77978571D01*
X123721429Y-76550000D02*
X123864286Y-76478571D01*
X124150000Y-76478571D01*
X124292857Y-76550000D01*
X124364286Y-76621429D01*
X124435715Y-76764286D01*
X124435715Y-77192857D01*
X124364286Y-77335714D01*
X124292857Y-77407143D01*
X124150000Y-77478571D01*
X123864286Y-77478571D01*
X123721429Y-77407143D01*
D12*
X137628572Y-63307143D02*
X138771429Y-63307143D01*
X138200000Y-63878571D02*
X138200000Y-62735714D01*
X138307143Y-70171428D02*
X138307143Y-69028571D01*
D13*
X142261905Y-72952381D02*
X142261905Y-72285714D01*
X142261905Y-71952381D02*
X142214286Y-72000000D01*
X142261905Y-72047619D01*
X142309524Y-72000000D01*
X142261905Y-71952381D01*
X142261905Y-72047619D01*
X142738095Y-72285714D02*
X142738095Y-72952381D01*
X142738095Y-72380952D02*
X142785714Y-72333333D01*
X142880952Y-72285714D01*
X143023810Y-72285714D01*
X143119048Y-72333333D01*
X143166667Y-72428571D01*
X143166667Y-72952381D01*
X143500000Y-72285714D02*
X143880952Y-72285714D01*
X143642857Y-71952381D02*
X143642857Y-72809524D01*
X143690476Y-72904762D01*
X143785714Y-72952381D01*
X143880952Y-72952381D01*
X142500000Y-82404762D02*
X142404762Y-82452381D01*
X142214285Y-82452381D01*
X142119047Y-82404762D01*
X142071428Y-82309524D01*
X142071428Y-81928571D01*
X142119047Y-81833333D01*
X142214285Y-81785714D01*
X142404762Y-81785714D01*
X142500000Y-81833333D01*
X142547619Y-81928571D01*
X142547619Y-82023810D01*
X142071428Y-82119048D01*
X142880952Y-82452381D02*
X143404762Y-81785714D01*
X142880952Y-81785714D02*
X143404762Y-82452381D01*
X143642857Y-81785714D02*
X144023809Y-81785714D01*
X143785714Y-81452381D02*
X143785714Y-82309524D01*
X143833333Y-82404762D01*
X143928571Y-82452381D01*
X144023809Y-82452381D01*
X123000000Y-60400000D02*
X121500000Y-60400000D01*
X123000000Y-60400000D02*
X123100000Y-60000000D01*
X123100000Y-60000000D02*
X130900000Y-60000000D01*
X130900000Y-60000000D02*
X131100000Y-60400000D01*
X131100000Y-60400000D02*
X132500000Y-60400000D01*
X123000000Y-56000000D02*
X121500000Y-56000000D01*
X123000000Y-56000000D02*
X123100000Y-56400000D01*
X123100000Y-56400000D02*
X130900000Y-56400000D01*
X130900000Y-56400000D02*
X131000000Y-56000000D01*
X131000000Y-56000000D02*
X132500000Y-56000000D01*
X121500000Y-58200000D02*
X121500000Y-56000000D01*
X132500000Y-56000000D02*
X132500000Y-60400000D01*
X121500000Y-60400000D02*
X121500000Y-58100000D01*
X133850000Y-58200000D02*
X132580000Y-58200000D01*
X120150000Y-58200000D02*
X121420000Y-58200000D01*
D14*
X136500000Y-76150000D02*
X137500000Y-76150000D01*
X133500000Y-76150000D02*
X132500000Y-76150000D01*
X137000000Y-76650000D02*
X137000000Y-75650000D01*
D13*
X131000000Y-83000000D02*
X139000000Y-83000000D01*
X139000000Y-77000000D02*
X131000000Y-77000000D01*
X135000000Y-77000000D02*
X135000000Y-83000000D01*
X131000000Y-77000000D02*
X131000000Y-83000000D01*
X139000000Y-83000000D02*
X139000000Y-77000000D01*
X122689000Y-64851000D02*
G75*
G03X122689000Y-64851000I-127000J0D01*
G01*
X122562000Y-63708000D02*
X122562000Y-64724000D01*
X122562000Y-64724000D02*
X121038000Y-64724000D01*
X121038000Y-64724000D02*
X121038000Y-63708000D01*
X121038000Y-62692000D02*
X121038000Y-61676000D01*
X121038000Y-61676000D02*
X122562000Y-61676000D01*
X122562000Y-61676000D02*
X122562000Y-62692000D01*
X137089000Y-71451000D02*
G75*
G03X137089000Y-71451000I-127000J0D01*
G01*
X136962000Y-70308000D02*
X136962000Y-71324000D01*
X136962000Y-71324000D02*
X135438000Y-71324000D01*
X135438000Y-71324000D02*
X135438000Y-70308000D01*
X135438000Y-69292000D02*
X135438000Y-68276000D01*
X135438000Y-68276000D02*
X136962000Y-68276000D01*
X136962000Y-68276000D02*
X136962000Y-69292000D01*
X135565000Y-63149000D02*
G75*
G03X135565000Y-63149000I-127000J0D01*
G01*
X135438000Y-64292000D02*
X135438000Y-63276000D01*
X135438000Y-63276000D02*
X136962000Y-63276000D01*
X136962000Y-63276000D02*
X136962000Y-64292000D01*
X136962000Y-65308000D02*
X136962000Y-66324000D01*
X136962000Y-66324000D02*
X135438000Y-66324000D01*
X135438000Y-66324000D02*
X135438000Y-65308000D01*
X115800000Y-63200000D02*
X115800000Y-64750000D01*
X117000000Y-63200000D02*
X117000000Y-64750000D01*
X123365000Y-63349000D02*
G75*
G03X123365000Y-63349000I-127000J0D01*
G01*
X123238000Y-64492000D02*
X123238000Y-63476000D01*
X123238000Y-63476000D02*
X124762000Y-63476000D01*
X124762000Y-63476000D02*
X124762000Y-64492000D01*
X124762000Y-65508000D02*
X124762000Y-66524000D01*
X124762000Y-66524000D02*
X123238000Y-66524000D01*
X123238000Y-66524000D02*
X123238000Y-65508000D01*
X124489000Y-75251000D02*
G75*
G03X124489000Y-75251000I-127000J0D01*
G01*
X124362000Y-74108000D02*
X124362000Y-75124000D01*
X124362000Y-75124000D02*
X122838000Y-75124000D01*
X122838000Y-75124000D02*
X122838000Y-74108000D01*
X122838000Y-73092000D02*
X122838000Y-72076000D01*
X122838000Y-72076000D02*
X124362000Y-72076000D01*
X124362000Y-72076000D02*
X124362000Y-73092000D01*
X120565000Y-71949000D02*
G75*
G03X120565000Y-71949000I-127000J0D01*
G01*
X120438000Y-73092000D02*
X120438000Y-72076000D01*
X120438000Y-72076000D02*
X121962000Y-72076000D01*
X121962000Y-72076000D02*
X121962000Y-73092000D01*
X121962000Y-74108000D02*
X121962000Y-75124000D01*
X121962000Y-75124000D02*
X120438000Y-75124000D01*
X120438000Y-75124000D02*
X120438000Y-74108000D01*
X131178000Y-71838000D02*
G75*
G03X131178000Y-71838000I-127000J0D01*
G01*
X129908000Y-71838000D02*
X130924000Y-71838000D01*
X130924000Y-71838000D02*
X130924000Y-73362000D01*
X130924000Y-73362000D02*
X129908000Y-73362000D01*
X128892000Y-73362000D02*
X127876000Y-73362000D01*
X127876000Y-73362000D02*
X127876000Y-71838000D01*
X127876000Y-71838000D02*
X128892000Y-71838000D01*
X127365000Y-63349000D02*
G75*
G03X127365000Y-63349000I-127000J0D01*
G01*
X127238000Y-64492000D02*
X127238000Y-63476000D01*
X127238000Y-63476000D02*
X128762000Y-63476000D01*
X128762000Y-63476000D02*
X128762000Y-64492000D01*
X128762000Y-65508000D02*
X128762000Y-66524000D01*
X128762000Y-66524000D02*
X127238000Y-66524000D01*
X127238000Y-66524000D02*
X127238000Y-65508000D01*
X127365000Y-67749000D02*
G75*
G03X127365000Y-67749000I-127000J0D01*
G01*
X127238000Y-68892000D02*
X127238000Y-67876000D01*
X127238000Y-67876000D02*
X128762000Y-67876000D01*
X128762000Y-67876000D02*
X128762000Y-68892000D01*
X128762000Y-69908000D02*
X128762000Y-70924000D01*
X128762000Y-70924000D02*
X127238000Y-70924000D01*
X127238000Y-70924000D02*
X127238000Y-69908000D01*
X125365000Y-63349000D02*
G75*
G03X125365000Y-63349000I-127000J0D01*
G01*
X125238000Y-64492000D02*
X125238000Y-63476000D01*
X125238000Y-63476000D02*
X126762000Y-63476000D01*
X126762000Y-63476000D02*
X126762000Y-64492000D01*
X126762000Y-65508000D02*
X126762000Y-66524000D01*
X126762000Y-66524000D02*
X125238000Y-66524000D01*
X125238000Y-66524000D02*
X125238000Y-65508000D01*
X118965000Y-61549000D02*
G75*
G03X118965000Y-61549000I-127000J0D01*
G01*
X118838000Y-62692000D02*
X118838000Y-61676000D01*
X118838000Y-61676000D02*
X120362000Y-61676000D01*
X120362000Y-61676000D02*
X120362000Y-62692000D01*
X120362000Y-63708000D02*
X120362000Y-64724000D01*
X120362000Y-64724000D02*
X118838000Y-64724000D01*
X118838000Y-64724000D02*
X118838000Y-63708000D01*
X121086000Y-65460000D02*
X121086000Y-70540000D01*
X121086000Y-70540000D02*
X116514000Y-70540000D01*
X116514000Y-70540000D02*
X116514000Y-65460000D01*
X116514000Y-65460000D02*
X121086000Y-65460000D01*
X119562000Y-65460000D02*
X119562000Y-65968000D01*
X119562000Y-65968000D02*
X118292000Y-65968000D01*
X118292000Y-65968000D02*
X118292000Y-65460000D01*
X134740000Y-69486000D02*
X129660000Y-69486000D01*
X129660000Y-69486000D02*
X129660000Y-64914000D01*
X129660000Y-64914000D02*
X134740000Y-64914000D01*
X134740000Y-64914000D02*
X134740000Y-69486000D01*
X134740000Y-67962000D02*
X134232000Y-67962000D01*
X134232000Y-67962000D02*
X134232000Y-66692000D01*
X134232000Y-66692000D02*
X134740000Y-66692000D01*
X118503700Y-60706000D02*
X106197400Y-60706000D01*
X147802600Y-60706000D02*
X135496300Y-60706000D01*
X135496300Y-35814000D02*
X147802600Y-35814000D01*
X106197400Y-35814000D02*
X118503700Y-35814000D01*
X135496300Y-49009300D02*
X135496300Y-60706000D01*
X118503700Y-49009300D02*
X118503700Y-60706000D01*
X118503700Y-47510700D02*
X118503700Y-35814000D01*
X135496300Y-47510700D02*
X135496300Y-35814000D01*
X118503700Y-49009300D02*
X135496300Y-49009300D01*
X118503700Y-47510700D02*
X135496300Y-47510700D01*
X147802600Y-35814000D02*
X147802600Y-60706000D01*
X106197400Y-60706000D02*
X106197400Y-35814000D01*
X144270000Y-78520000D02*
X144270000Y-73440000D01*
X144270000Y-73440000D02*
X141730000Y-73440000D01*
X141730000Y-73440000D02*
X141730000Y-78520000D01*
X141730000Y-81060000D02*
X141730000Y-78520000D01*
X141730000Y-78520000D02*
X144270000Y-78520000D01*
X141730000Y-81060000D02*
X144270000Y-81060000D01*
X144270000Y-81060000D02*
X144270000Y-78520000D01*
X114700000Y-63950000D02*
X114700000Y-62850000D01*
X114700000Y-71550000D02*
X114700000Y-72650000D01*
X114700000Y-63950000D02*
X111000000Y-63950000D01*
X111000000Y-63950000D02*
X111000000Y-71550000D01*
X111000000Y-71550000D02*
X114700000Y-71550000D01*
X105500000Y-62850000D02*
X105500000Y-72650000D01*
X114700000Y-72650000D02*
X105500000Y-72650000D01*
X114700000Y-62850000D02*
X105500000Y-62850000D01*
X118700000Y-75050000D02*
X117600000Y-75050000D01*
X126300000Y-75050000D02*
X127400000Y-75050000D01*
X118700000Y-75050000D02*
X118700000Y-78750000D01*
X118700000Y-78750000D02*
X126300000Y-78750000D01*
X126300000Y-78750000D02*
X126300000Y-75050000D01*
X117600000Y-84250000D02*
X127400000Y-84250000D01*
X127400000Y-75050000D02*
X127400000Y-84250000D01*
X117600000Y-75050000D02*
X117600000Y-84250000D01*
X147200000Y-66500000D02*
X147200000Y-61500000D01*
X147700000Y-66500000D02*
X147200000Y-66500000D01*
X147200000Y-66500000D02*
X147200000Y-71500000D01*
X147700000Y-71500000D02*
X147700000Y-61500000D01*
X139300000Y-61500000D02*
X139300000Y-71500000D01*
X139309000Y-71488000D02*
X147691000Y-71488000D01*
X147691000Y-61512000D02*
X139309000Y-61512000D01*
X107450000Y-73950000D02*
X109000000Y-73950000D01*
X109000000Y-77050000D02*
X107450000Y-77050000D01*
X107450000Y-77050000D02*
X107450000Y-73950000D01*
X110270000Y-76770000D02*
X110270000Y-74230000D01*
X112700000Y-82550000D02*
X112700000Y-81000000D01*
X115800000Y-81000000D02*
X115800000Y-82550000D01*
X115800000Y-82550000D02*
X112700000Y-82550000D01*
X115520000Y-79730000D02*
X112980000Y-79730000D01*
X107607969Y-80000000D02*
X108703984Y-78903984D01*
X110896016Y-81096016D02*
X109800000Y-82192031D01*
X109800000Y-82192031D02*
X107607969Y-80000000D01*
X111596051Y-80000000D02*
X109800000Y-78203949D01*
X125476000Y-49022000D02*
X125476000Y-50165000D01*
X128524000Y-49022000D02*
X128524000Y-50165000D01*
X132334000Y-50165000D02*
X132334000Y-53848000D01*
X132334000Y-53848000D02*
X121666000Y-53848000D01*
X121666000Y-53848000D02*
X121666000Y-50165000D01*
X132334000Y-49022000D02*
X132334000Y-50165000D01*
X132334000Y-50165000D02*
X121666000Y-50165000D01*
X121666000Y-50165000D02*
X121666000Y-49022000D01*
X127000000Y-49022000D02*
X121666000Y-49022000D01*
X127000000Y-49022000D02*
X132334000Y-49022000D01*
X125904762Y-58561905D02*
X125638095Y-58180952D01*
X125447619Y-58561905D02*
X125447619Y-57761905D01*
X125752381Y-57761905D01*
X125828572Y-57800000D01*
X125866667Y-57838095D01*
X125904762Y-57914286D01*
X125904762Y-58028571D01*
X125866667Y-58104762D01*
X125828572Y-58142857D01*
X125752381Y-58180952D01*
X125447619Y-58180952D01*
X126590476Y-58028571D02*
X126590476Y-58561905D01*
X126400000Y-57723810D02*
X126209524Y-58295238D01*
X126704762Y-58295238D01*
X127161905Y-57761905D02*
X127238096Y-57761905D01*
X127314286Y-57800000D01*
X127352381Y-57838095D01*
X127390477Y-57914286D01*
X127428572Y-58066667D01*
X127428572Y-58257143D01*
X127390477Y-58409524D01*
X127352381Y-58485714D01*
X127314286Y-58523810D01*
X127238096Y-58561905D01*
X127161905Y-58561905D01*
X127085715Y-58523810D01*
X127047619Y-58485714D01*
X127009524Y-58409524D01*
X126971429Y-58257143D01*
X126971429Y-58066667D01*
X127009524Y-57914286D01*
X127047619Y-57838095D01*
X127085715Y-57800000D01*
X127161905Y-57761905D01*
X127695239Y-57761905D02*
X128190477Y-57761905D01*
X127923810Y-58066667D01*
X128038096Y-58066667D01*
X128114286Y-58104762D01*
X128152382Y-58142857D01*
X128190477Y-58219048D01*
X128190477Y-58409524D01*
X128152382Y-58485714D01*
X128114286Y-58523810D01*
X128038096Y-58561905D01*
X127809524Y-58561905D01*
X127733334Y-58523810D01*
X127695239Y-58485714D01*
X130204762Y-82166667D02*
X130252381Y-82261905D01*
X130252381Y-82452382D01*
X130204762Y-82547620D01*
X130109524Y-82595239D01*
X129728571Y-82595239D01*
X129633333Y-82547620D01*
X129585714Y-82452382D01*
X129585714Y-82261905D01*
X129633333Y-82166667D01*
X129728571Y-82119048D01*
X129823810Y-82119048D01*
X129919048Y-82595239D01*
X130252381Y-81785715D02*
X129585714Y-81261905D01*
X129585714Y-81785715D02*
X130252381Y-81261905D01*
X129585714Y-81023810D02*
X129585714Y-80642858D01*
X129252381Y-80880953D02*
X130109524Y-80880953D01*
X130204762Y-80833334D01*
X130252381Y-80738096D01*
X130252381Y-80642858D01*
X129585714Y-79547619D02*
X130585714Y-79547619D01*
X129633333Y-79547619D02*
X129585714Y-79452381D01*
X129585714Y-79261904D01*
X129633333Y-79166666D01*
X129680952Y-79119047D01*
X129776190Y-79071428D01*
X130061905Y-79071428D01*
X130157143Y-79119047D01*
X130204762Y-79166666D01*
X130252381Y-79261904D01*
X130252381Y-79452381D01*
X130204762Y-79547619D01*
X129585714Y-78738095D02*
X130252381Y-78547619D01*
X129776190Y-78357142D01*
X130252381Y-78166666D01*
X129585714Y-77976190D01*
X130252381Y-77595238D02*
X129585714Y-77595238D01*
X129776190Y-77595238D02*
X129680952Y-77547619D01*
X129633333Y-77500000D01*
X129585714Y-77404762D01*
X129585714Y-77309523D01*
D15*
X120816667Y-61250000D02*
X120783333Y-61283333D01*
X120683333Y-61316667D01*
X120616667Y-61316667D01*
X120516667Y-61283333D01*
X120450000Y-61216667D01*
X120416667Y-61150000D01*
X120383333Y-61016667D01*
X120383333Y-60916667D01*
X120416667Y-60783333D01*
X120450000Y-60716667D01*
X120516667Y-60650000D01*
X120616667Y-60616667D01*
X120683333Y-60616667D01*
X120783333Y-60650000D01*
X120816667Y-60683333D01*
X121083333Y-60683333D02*
X121116667Y-60650000D01*
X121183333Y-60616667D01*
X121350000Y-60616667D01*
X121416667Y-60650000D01*
X121450000Y-60683333D01*
X121483333Y-60750000D01*
X121483333Y-60816667D01*
X121450000Y-60916667D01*
X121050000Y-61316667D01*
X121483333Y-61316667D01*
X121916667Y-60616667D02*
X121983334Y-60616667D01*
X122050000Y-60650000D01*
X122083334Y-60683333D01*
X122116667Y-60750000D01*
X122150000Y-60883333D01*
X122150000Y-61050000D01*
X122116667Y-61183333D01*
X122083334Y-61250000D01*
X122050000Y-61283333D01*
X121983334Y-61316667D01*
X121916667Y-61316667D01*
X121850000Y-61283333D01*
X121816667Y-61250000D01*
X121783334Y-61183333D01*
X121750000Y-61050000D01*
X121750000Y-60883333D01*
X121783334Y-60750000D01*
X121816667Y-60683333D01*
X121850000Y-60650000D01*
X121916667Y-60616667D01*
X122816667Y-61316667D02*
X122416667Y-61316667D01*
X122616667Y-61316667D02*
X122616667Y-60616667D01*
X122550001Y-60716667D01*
X122483334Y-60783333D01*
X122416667Y-60816667D01*
D13*
X135304762Y-72685714D02*
X135266667Y-72723810D01*
X135152381Y-72761905D01*
X135076191Y-72761905D01*
X134961905Y-72723810D01*
X134885714Y-72647619D01*
X134847619Y-72571429D01*
X134809524Y-72419048D01*
X134809524Y-72304762D01*
X134847619Y-72152381D01*
X134885714Y-72076190D01*
X134961905Y-72000000D01*
X135076191Y-71961905D01*
X135152381Y-71961905D01*
X135266667Y-72000000D01*
X135304762Y-72038095D01*
X135571429Y-71961905D02*
X136066667Y-71961905D01*
X135800000Y-72266667D01*
X135914286Y-72266667D01*
X135990476Y-72304762D01*
X136028572Y-72342857D01*
X136066667Y-72419048D01*
X136066667Y-72609524D01*
X136028572Y-72685714D01*
X135990476Y-72723810D01*
X135914286Y-72761905D01*
X135685714Y-72761905D01*
X135609524Y-72723810D01*
X135571429Y-72685714D01*
X136561905Y-71961905D02*
X136638096Y-71961905D01*
X136714286Y-72000000D01*
X136752381Y-72038095D01*
X136790477Y-72114286D01*
X136828572Y-72266667D01*
X136828572Y-72457143D01*
X136790477Y-72609524D01*
X136752381Y-72685714D01*
X136714286Y-72723810D01*
X136638096Y-72761905D01*
X136561905Y-72761905D01*
X136485715Y-72723810D01*
X136447619Y-72685714D01*
X136409524Y-72609524D01*
X136371429Y-72457143D01*
X136371429Y-72266667D01*
X136409524Y-72114286D01*
X136447619Y-72038095D01*
X136485715Y-72000000D01*
X136561905Y-71961905D01*
X137590477Y-72761905D02*
X137133334Y-72761905D01*
X137361905Y-72761905D02*
X137361905Y-71961905D01*
X137285715Y-72076190D01*
X137209524Y-72152381D01*
X137133334Y-72190476D01*
X135304762Y-62685714D02*
X135266667Y-62723810D01*
X135152381Y-62761905D01*
X135076191Y-62761905D01*
X134961905Y-62723810D01*
X134885714Y-62647619D01*
X134847619Y-62571429D01*
X134809524Y-62419048D01*
X134809524Y-62304762D01*
X134847619Y-62152381D01*
X134885714Y-62076190D01*
X134961905Y-62000000D01*
X135076191Y-61961905D01*
X135152381Y-61961905D01*
X135266667Y-62000000D01*
X135304762Y-62038095D01*
X135571429Y-61961905D02*
X136066667Y-61961905D01*
X135800000Y-62266667D01*
X135914286Y-62266667D01*
X135990476Y-62304762D01*
X136028572Y-62342857D01*
X136066667Y-62419048D01*
X136066667Y-62609524D01*
X136028572Y-62685714D01*
X135990476Y-62723810D01*
X135914286Y-62761905D01*
X135685714Y-62761905D01*
X135609524Y-62723810D01*
X135571429Y-62685714D01*
X136561905Y-61961905D02*
X136638096Y-61961905D01*
X136714286Y-62000000D01*
X136752381Y-62038095D01*
X136790477Y-62114286D01*
X136828572Y-62266667D01*
X136828572Y-62457143D01*
X136790477Y-62609524D01*
X136752381Y-62685714D01*
X136714286Y-62723810D01*
X136638096Y-62761905D01*
X136561905Y-62761905D01*
X136485715Y-62723810D01*
X136447619Y-62685714D01*
X136409524Y-62609524D01*
X136371429Y-62457143D01*
X136371429Y-62266667D01*
X136409524Y-62114286D01*
X136447619Y-62038095D01*
X136485715Y-62000000D01*
X136561905Y-61961905D01*
X137133334Y-62038095D02*
X137171429Y-62000000D01*
X137247620Y-61961905D01*
X137438096Y-61961905D01*
X137514286Y-62000000D01*
X137552382Y-62038095D01*
X137590477Y-62114286D01*
X137590477Y-62190476D01*
X137552382Y-62304762D01*
X137095239Y-62761905D01*
X137590477Y-62761905D01*
X114532142Y-61939286D02*
X114532142Y-61189286D01*
X114710714Y-61189286D01*
X114817857Y-61225000D01*
X114889285Y-61296429D01*
X114925000Y-61367857D01*
X114960714Y-61510714D01*
X114960714Y-61617857D01*
X114925000Y-61760714D01*
X114889285Y-61832143D01*
X114817857Y-61903571D01*
X114710714Y-61939286D01*
X114532142Y-61939286D01*
X115246428Y-61260714D02*
X115282142Y-61225000D01*
X115353571Y-61189286D01*
X115532142Y-61189286D01*
X115603571Y-61225000D01*
X115639285Y-61260714D01*
X115675000Y-61332143D01*
X115675000Y-61403571D01*
X115639285Y-61510714D01*
X115210714Y-61939286D01*
X115675000Y-61939286D01*
X116139286Y-61189286D02*
X116210714Y-61189286D01*
X116282143Y-61225000D01*
X116317857Y-61260714D01*
X116353571Y-61332143D01*
X116389286Y-61475000D01*
X116389286Y-61653571D01*
X116353571Y-61796429D01*
X116317857Y-61867857D01*
X116282143Y-61903571D01*
X116210714Y-61939286D01*
X116139286Y-61939286D01*
X116067857Y-61903571D01*
X116032143Y-61867857D01*
X115996428Y-61796429D01*
X115960714Y-61653571D01*
X115960714Y-61475000D01*
X115996428Y-61332143D01*
X116032143Y-61260714D01*
X116067857Y-61225000D01*
X116139286Y-61189286D01*
X117103572Y-61939286D02*
X116675000Y-61939286D01*
X116889286Y-61939286D02*
X116889286Y-61189286D01*
X116817857Y-61296429D01*
X116746429Y-61367857D01*
X116675000Y-61403571D01*
X124361905Y-62695238D02*
X123980952Y-62961905D01*
X124361905Y-63152381D02*
X123561905Y-63152381D01*
X123561905Y-62847619D01*
X123600000Y-62771428D01*
X123638095Y-62733333D01*
X123714286Y-62695238D01*
X123828571Y-62695238D01*
X123904762Y-62733333D01*
X123942857Y-62771428D01*
X123980952Y-62847619D01*
X123980952Y-63152381D01*
X123638095Y-62390476D02*
X123600000Y-62352381D01*
X123561905Y-62276190D01*
X123561905Y-62085714D01*
X123600000Y-62009524D01*
X123638095Y-61971428D01*
X123714286Y-61933333D01*
X123790476Y-61933333D01*
X123904762Y-61971428D01*
X124361905Y-62428571D01*
X124361905Y-61933333D01*
X123561905Y-61438095D02*
X123561905Y-61361904D01*
X123600000Y-61285714D01*
X123638095Y-61247619D01*
X123714286Y-61209523D01*
X123866667Y-61171428D01*
X124057143Y-61171428D01*
X124209524Y-61209523D01*
X124285714Y-61247619D01*
X124323810Y-61285714D01*
X124361905Y-61361904D01*
X124361905Y-61438095D01*
X124323810Y-61514285D01*
X124285714Y-61552381D01*
X124209524Y-61590476D01*
X124057143Y-61628571D01*
X123866667Y-61628571D01*
X123714286Y-61590476D01*
X123638095Y-61552381D01*
X123600000Y-61514285D01*
X123561905Y-61438095D01*
X124361905Y-60409523D02*
X124361905Y-60866666D01*
X124361905Y-60638095D02*
X123561905Y-60638095D01*
X123676190Y-60714285D01*
X123752381Y-60790476D01*
X123790476Y-60866666D01*
X122704762Y-71561905D02*
X122438095Y-71180952D01*
X122247619Y-71561905D02*
X122247619Y-70761905D01*
X122552381Y-70761905D01*
X122628572Y-70800000D01*
X122666667Y-70838095D01*
X122704762Y-70914286D01*
X122704762Y-71028571D01*
X122666667Y-71104762D01*
X122628572Y-71142857D01*
X122552381Y-71180952D01*
X122247619Y-71180952D01*
X123009524Y-70838095D02*
X123047619Y-70800000D01*
X123123810Y-70761905D01*
X123314286Y-70761905D01*
X123390476Y-70800000D01*
X123428572Y-70838095D01*
X123466667Y-70914286D01*
X123466667Y-70990476D01*
X123428572Y-71104762D01*
X122971429Y-71561905D01*
X123466667Y-71561905D01*
X123961905Y-70761905D02*
X124038096Y-70761905D01*
X124114286Y-70800000D01*
X124152381Y-70838095D01*
X124190477Y-70914286D01*
X124228572Y-71066667D01*
X124228572Y-71257143D01*
X124190477Y-71409524D01*
X124152381Y-71485714D01*
X124114286Y-71523810D01*
X124038096Y-71561905D01*
X123961905Y-71561905D01*
X123885715Y-71523810D01*
X123847619Y-71485714D01*
X123809524Y-71409524D01*
X123771429Y-71257143D01*
X123771429Y-71066667D01*
X123809524Y-70914286D01*
X123847619Y-70838095D01*
X123885715Y-70800000D01*
X123961905Y-70761905D01*
X124533334Y-70838095D02*
X124571429Y-70800000D01*
X124647620Y-70761905D01*
X124838096Y-70761905D01*
X124914286Y-70800000D01*
X124952382Y-70838095D01*
X124990477Y-70914286D01*
X124990477Y-70990476D01*
X124952382Y-71104762D01*
X124495239Y-71561905D01*
X124990477Y-71561905D01*
X117704762Y-72561905D02*
X117438095Y-72180952D01*
X117247619Y-72561905D02*
X117247619Y-71761905D01*
X117552381Y-71761905D01*
X117628572Y-71800000D01*
X117666667Y-71838095D01*
X117704762Y-71914286D01*
X117704762Y-72028571D01*
X117666667Y-72104762D01*
X117628572Y-72142857D01*
X117552381Y-72180952D01*
X117247619Y-72180952D01*
X118009524Y-71838095D02*
X118047619Y-71800000D01*
X118123810Y-71761905D01*
X118314286Y-71761905D01*
X118390476Y-71800000D01*
X118428572Y-71838095D01*
X118466667Y-71914286D01*
X118466667Y-71990476D01*
X118428572Y-72104762D01*
X117971429Y-72561905D01*
X118466667Y-72561905D01*
X118961905Y-71761905D02*
X119038096Y-71761905D01*
X119114286Y-71800000D01*
X119152381Y-71838095D01*
X119190477Y-71914286D01*
X119228572Y-72066667D01*
X119228572Y-72257143D01*
X119190477Y-72409524D01*
X119152381Y-72485714D01*
X119114286Y-72523810D01*
X119038096Y-72561905D01*
X118961905Y-72561905D01*
X118885715Y-72523810D01*
X118847619Y-72485714D01*
X118809524Y-72409524D01*
X118771429Y-72257143D01*
X118771429Y-72066667D01*
X118809524Y-71914286D01*
X118847619Y-71838095D01*
X118885715Y-71800000D01*
X118961905Y-71761905D01*
X119495239Y-71761905D02*
X119990477Y-71761905D01*
X119723810Y-72066667D01*
X119838096Y-72066667D01*
X119914286Y-72104762D01*
X119952382Y-72142857D01*
X119990477Y-72219048D01*
X119990477Y-72409524D01*
X119952382Y-72485714D01*
X119914286Y-72523810D01*
X119838096Y-72561905D01*
X119609524Y-72561905D01*
X119533334Y-72523810D01*
X119495239Y-72485714D01*
X131904762Y-73161905D02*
X131638095Y-72780952D01*
X131447619Y-73161905D02*
X131447619Y-72361905D01*
X131752381Y-72361905D01*
X131828572Y-72400000D01*
X131866667Y-72438095D01*
X131904762Y-72514286D01*
X131904762Y-72628571D01*
X131866667Y-72704762D01*
X131828572Y-72742857D01*
X131752381Y-72780952D01*
X131447619Y-72780952D01*
X132171429Y-72361905D02*
X132666667Y-72361905D01*
X132400000Y-72666667D01*
X132514286Y-72666667D01*
X132590476Y-72704762D01*
X132628572Y-72742857D01*
X132666667Y-72819048D01*
X132666667Y-73009524D01*
X132628572Y-73085714D01*
X132590476Y-73123810D01*
X132514286Y-73161905D01*
X132285714Y-73161905D01*
X132209524Y-73123810D01*
X132171429Y-73085714D01*
X133161905Y-72361905D02*
X133238096Y-72361905D01*
X133314286Y-72400000D01*
X133352381Y-72438095D01*
X133390477Y-72514286D01*
X133428572Y-72666667D01*
X133428572Y-72857143D01*
X133390477Y-73009524D01*
X133352381Y-73085714D01*
X133314286Y-73123810D01*
X133238096Y-73161905D01*
X133161905Y-73161905D01*
X133085715Y-73123810D01*
X133047619Y-73085714D01*
X133009524Y-73009524D01*
X132971429Y-72857143D01*
X132971429Y-72666667D01*
X133009524Y-72514286D01*
X133047619Y-72438095D01*
X133085715Y-72400000D01*
X133161905Y-72361905D01*
X134190477Y-73161905D02*
X133733334Y-73161905D01*
X133961905Y-73161905D02*
X133961905Y-72361905D01*
X133885715Y-72476190D01*
X133809524Y-72552381D01*
X133733334Y-72590476D01*
X128361905Y-62695238D02*
X127980952Y-62961905D01*
X128361905Y-63152381D02*
X127561905Y-63152381D01*
X127561905Y-62847619D01*
X127600000Y-62771428D01*
X127638095Y-62733333D01*
X127714286Y-62695238D01*
X127828571Y-62695238D01*
X127904762Y-62733333D01*
X127942857Y-62771428D01*
X127980952Y-62847619D01*
X127980952Y-63152381D01*
X127561905Y-62428571D02*
X127561905Y-61933333D01*
X127866667Y-62200000D01*
X127866667Y-62085714D01*
X127904762Y-62009524D01*
X127942857Y-61971428D01*
X128019048Y-61933333D01*
X128209524Y-61933333D01*
X128285714Y-61971428D01*
X128323810Y-62009524D01*
X128361905Y-62085714D01*
X128361905Y-62314286D01*
X128323810Y-62390476D01*
X128285714Y-62428571D01*
X127561905Y-61438095D02*
X127561905Y-61361904D01*
X127600000Y-61285714D01*
X127638095Y-61247619D01*
X127714286Y-61209523D01*
X127866667Y-61171428D01*
X128057143Y-61171428D01*
X128209524Y-61209523D01*
X128285714Y-61247619D01*
X128323810Y-61285714D01*
X128361905Y-61361904D01*
X128361905Y-61438095D01*
X128323810Y-61514285D01*
X128285714Y-61552381D01*
X128209524Y-61590476D01*
X128057143Y-61628571D01*
X127866667Y-61628571D01*
X127714286Y-61590476D01*
X127638095Y-61552381D01*
X127600000Y-61514285D01*
X127561905Y-61438095D01*
X127638095Y-60866666D02*
X127600000Y-60828571D01*
X127561905Y-60752380D01*
X127561905Y-60561904D01*
X127600000Y-60485714D01*
X127638095Y-60447618D01*
X127714286Y-60409523D01*
X127790476Y-60409523D01*
X127904762Y-60447618D01*
X128361905Y-60904761D01*
X128361905Y-60409523D01*
X126761905Y-70295238D02*
X126380952Y-70561905D01*
X126761905Y-70752381D02*
X125961905Y-70752381D01*
X125961905Y-70447619D01*
X126000000Y-70371428D01*
X126038095Y-70333333D01*
X126114286Y-70295238D01*
X126228571Y-70295238D01*
X126304762Y-70333333D01*
X126342857Y-70371428D01*
X126380952Y-70447619D01*
X126380952Y-70752381D01*
X125961905Y-70028571D02*
X125961905Y-69533333D01*
X126266667Y-69800000D01*
X126266667Y-69685714D01*
X126304762Y-69609524D01*
X126342857Y-69571428D01*
X126419048Y-69533333D01*
X126609524Y-69533333D01*
X126685714Y-69571428D01*
X126723810Y-69609524D01*
X126761905Y-69685714D01*
X126761905Y-69914286D01*
X126723810Y-69990476D01*
X126685714Y-70028571D01*
X125961905Y-69038095D02*
X125961905Y-68961904D01*
X126000000Y-68885714D01*
X126038095Y-68847619D01*
X126114286Y-68809523D01*
X126266667Y-68771428D01*
X126457143Y-68771428D01*
X126609524Y-68809523D01*
X126685714Y-68847619D01*
X126723810Y-68885714D01*
X126761905Y-68961904D01*
X126761905Y-69038095D01*
X126723810Y-69114285D01*
X126685714Y-69152381D01*
X126609524Y-69190476D01*
X126457143Y-69228571D01*
X126266667Y-69228571D01*
X126114286Y-69190476D01*
X126038095Y-69152381D01*
X126000000Y-69114285D01*
X125961905Y-69038095D01*
X125961905Y-68504761D02*
X125961905Y-68009523D01*
X126266667Y-68276190D01*
X126266667Y-68161904D01*
X126304762Y-68085714D01*
X126342857Y-68047618D01*
X126419048Y-68009523D01*
X126609524Y-68009523D01*
X126685714Y-68047618D01*
X126723810Y-68085714D01*
X126761905Y-68161904D01*
X126761905Y-68390476D01*
X126723810Y-68466666D01*
X126685714Y-68504761D01*
X126361905Y-62695238D02*
X125980952Y-62961905D01*
X126361905Y-63152381D02*
X125561905Y-63152381D01*
X125561905Y-62847619D01*
X125600000Y-62771428D01*
X125638095Y-62733333D01*
X125714286Y-62695238D01*
X125828571Y-62695238D01*
X125904762Y-62733333D01*
X125942857Y-62771428D01*
X125980952Y-62847619D01*
X125980952Y-63152381D01*
X125828571Y-62009524D02*
X126361905Y-62009524D01*
X125523810Y-62200000D02*
X126095238Y-62390476D01*
X126095238Y-61895238D01*
X125561905Y-61438095D02*
X125561905Y-61361904D01*
X125600000Y-61285714D01*
X125638095Y-61247619D01*
X125714286Y-61209523D01*
X125866667Y-61171428D01*
X126057143Y-61171428D01*
X126209524Y-61209523D01*
X126285714Y-61247619D01*
X126323810Y-61285714D01*
X126361905Y-61361904D01*
X126361905Y-61438095D01*
X126323810Y-61514285D01*
X126285714Y-61552381D01*
X126209524Y-61590476D01*
X126057143Y-61628571D01*
X125866667Y-61628571D01*
X125714286Y-61590476D01*
X125638095Y-61552381D01*
X125600000Y-61514285D01*
X125561905Y-61438095D01*
X126361905Y-60409523D02*
X126361905Y-60866666D01*
X126361905Y-60638095D02*
X125561905Y-60638095D01*
X125676190Y-60714285D01*
X125752381Y-60790476D01*
X125790476Y-60866666D01*
X118361905Y-64095238D02*
X117980952Y-64361905D01*
X118361905Y-64552381D02*
X117561905Y-64552381D01*
X117561905Y-64247619D01*
X117600000Y-64171428D01*
X117638095Y-64133333D01*
X117714286Y-64095238D01*
X117828571Y-64095238D01*
X117904762Y-64133333D01*
X117942857Y-64171428D01*
X117980952Y-64247619D01*
X117980952Y-64552381D01*
X117828571Y-63409524D02*
X118361905Y-63409524D01*
X117523810Y-63600000D02*
X118095238Y-63790476D01*
X118095238Y-63295238D01*
X117561905Y-62838095D02*
X117561905Y-62761904D01*
X117600000Y-62685714D01*
X117638095Y-62647619D01*
X117714286Y-62609523D01*
X117866667Y-62571428D01*
X118057143Y-62571428D01*
X118209524Y-62609523D01*
X118285714Y-62647619D01*
X118323810Y-62685714D01*
X118361905Y-62761904D01*
X118361905Y-62838095D01*
X118323810Y-62914285D01*
X118285714Y-62952381D01*
X118209524Y-62990476D01*
X118057143Y-63028571D01*
X117866667Y-63028571D01*
X117714286Y-62990476D01*
X117638095Y-62952381D01*
X117600000Y-62914285D01*
X117561905Y-62838095D01*
X117638095Y-62266666D02*
X117600000Y-62228571D01*
X117561905Y-62152380D01*
X117561905Y-61961904D01*
X117600000Y-61885714D01*
X117638095Y-61847618D01*
X117714286Y-61809523D01*
X117790476Y-61809523D01*
X117904762Y-61847618D01*
X118361905Y-62304761D01*
X118361905Y-61809523D01*
X117428571Y-66361905D02*
X117428571Y-67009524D01*
X117466666Y-67085714D01*
X117504762Y-67123810D01*
X117580952Y-67161905D01*
X117733333Y-67161905D01*
X117809524Y-67123810D01*
X117847619Y-67085714D01*
X117885714Y-67009524D01*
X117885714Y-66361905D01*
X118228571Y-66438095D02*
X118266666Y-66400000D01*
X118342857Y-66361905D01*
X118533333Y-66361905D01*
X118609523Y-66400000D01*
X118647619Y-66438095D01*
X118685714Y-66514286D01*
X118685714Y-66590476D01*
X118647619Y-66704762D01*
X118190476Y-67161905D01*
X118685714Y-67161905D01*
X119180952Y-66361905D02*
X119257143Y-66361905D01*
X119333333Y-66400000D01*
X119371428Y-66438095D01*
X119409524Y-66514286D01*
X119447619Y-66666667D01*
X119447619Y-66857143D01*
X119409524Y-67009524D01*
X119371428Y-67085714D01*
X119333333Y-67123810D01*
X119257143Y-67161905D01*
X119180952Y-67161905D01*
X119104762Y-67123810D01*
X119066666Y-67085714D01*
X119028571Y-67009524D01*
X118990476Y-66857143D01*
X118990476Y-66666667D01*
X119028571Y-66514286D01*
X119066666Y-66438095D01*
X119104762Y-66400000D01*
X119180952Y-66361905D01*
X120209524Y-67161905D02*
X119752381Y-67161905D01*
X119980952Y-67161905D02*
X119980952Y-66361905D01*
X119904762Y-66476190D01*
X119828571Y-66552381D01*
X119752381Y-66590476D01*
X130161905Y-68571429D02*
X130809524Y-68571429D01*
X130885714Y-68533334D01*
X130923810Y-68495238D01*
X130961905Y-68419048D01*
X130961905Y-68266667D01*
X130923810Y-68190476D01*
X130885714Y-68152381D01*
X130809524Y-68114286D01*
X130161905Y-68114286D01*
X130161905Y-67809524D02*
X130161905Y-67314286D01*
X130466667Y-67580953D01*
X130466667Y-67466667D01*
X130504762Y-67390477D01*
X130542857Y-67352381D01*
X130619048Y-67314286D01*
X130809524Y-67314286D01*
X130885714Y-67352381D01*
X130923810Y-67390477D01*
X130961905Y-67466667D01*
X130961905Y-67695239D01*
X130923810Y-67771429D01*
X130885714Y-67809524D01*
X130161905Y-66819048D02*
X130161905Y-66742857D01*
X130200000Y-66666667D01*
X130238095Y-66628572D01*
X130314286Y-66590476D01*
X130466667Y-66552381D01*
X130657143Y-66552381D01*
X130809524Y-66590476D01*
X130885714Y-66628572D01*
X130923810Y-66666667D01*
X130961905Y-66742857D01*
X130961905Y-66819048D01*
X130923810Y-66895238D01*
X130885714Y-66933334D01*
X130809524Y-66971429D01*
X130657143Y-67009524D01*
X130466667Y-67009524D01*
X130314286Y-66971429D01*
X130238095Y-66933334D01*
X130200000Y-66895238D01*
X130161905Y-66819048D01*
X130961905Y-65790476D02*
X130961905Y-66247619D01*
X130961905Y-66019048D02*
X130161905Y-66019048D01*
X130276190Y-66095238D01*
X130352381Y-66171429D01*
X130390476Y-66247619D01*
X144985714Y-79723810D02*
X145985714Y-79723810D01*
X145033333Y-79723810D02*
X144985714Y-79628572D01*
X144985714Y-79438095D01*
X145033333Y-79342857D01*
X145080952Y-79295238D01*
X145176190Y-79247619D01*
X145461905Y-79247619D01*
X145557143Y-79295238D01*
X145604762Y-79342857D01*
X145652381Y-79438095D01*
X145652381Y-79628572D01*
X145604762Y-79723810D01*
X144985714Y-78914286D02*
X145652381Y-78723810D01*
X145176190Y-78533333D01*
X145652381Y-78342857D01*
X144985714Y-78152381D01*
X145652381Y-77771429D02*
X144985714Y-77771429D01*
X145176190Y-77771429D02*
X145080952Y-77723810D01*
X145033333Y-77676191D01*
X144985714Y-77580953D01*
X144985714Y-77485714D01*
X145604762Y-76438095D02*
X145652381Y-76342857D01*
X145652381Y-76152381D01*
X145604762Y-76057142D01*
X145509524Y-76009523D01*
X145461905Y-76009523D01*
X145366667Y-76057142D01*
X145319048Y-76152381D01*
X145319048Y-76295238D01*
X145271429Y-76390476D01*
X145176190Y-76438095D01*
X145128571Y-76438095D01*
X145033333Y-76390476D01*
X144985714Y-76295238D01*
X144985714Y-76152381D01*
X145033333Y-76057142D01*
X145604762Y-75199999D02*
X145652381Y-75295237D01*
X145652381Y-75485714D01*
X145604762Y-75580952D01*
X145509524Y-75628571D01*
X145128571Y-75628571D01*
X145033333Y-75580952D01*
X144985714Y-75485714D01*
X144985714Y-75295237D01*
X145033333Y-75199999D01*
X145128571Y-75152380D01*
X145223810Y-75152380D01*
X145319048Y-75628571D01*
X145652381Y-74580952D02*
X145604762Y-74676190D01*
X145509524Y-74723809D01*
X144652381Y-74723809D01*
X138452381Y-68242857D02*
X137452381Y-68242857D01*
X137785714Y-67766667D02*
X138452381Y-67766667D01*
X137880952Y-67766667D02*
X137833333Y-67719048D01*
X137785714Y-67623810D01*
X137785714Y-67480952D01*
X137833333Y-67385714D01*
X137928571Y-67338095D01*
X138452381Y-67338095D01*
X137785714Y-66861905D02*
X138785714Y-66861905D01*
X137833333Y-66861905D02*
X137785714Y-66766667D01*
X137785714Y-66576190D01*
X137833333Y-66480952D01*
X137880952Y-66433333D01*
X137976190Y-66385714D01*
X138261905Y-66385714D01*
X138357143Y-66433333D01*
X138404762Y-66480952D01*
X138452381Y-66576190D01*
X138452381Y-66766667D01*
X138404762Y-66861905D01*
X137785714Y-65528571D02*
X138452381Y-65528571D01*
X137785714Y-65957143D02*
X138309524Y-65957143D01*
X138404762Y-65909524D01*
X138452381Y-65814286D01*
X138452381Y-65671428D01*
X138404762Y-65576190D01*
X138357143Y-65528571D01*
X137785714Y-65195238D02*
X137785714Y-64814286D01*
X137452381Y-65052381D02*
X138309524Y-65052381D01*
X138404762Y-65004762D01*
X138452381Y-64909524D01*
X138452381Y-64814286D01*
X111166667Y-74952381D02*
X111500000Y-75952381D01*
X111833334Y-74952381D01*
X114011905Y-78666667D02*
X114488096Y-78666667D01*
X113916667Y-78952381D02*
X114250000Y-77952381D01*
X114583334Y-78952381D01*
X111498985Y-77191878D02*
X111465313Y-77090863D01*
X111364298Y-76989848D01*
X111229610Y-76922504D01*
X111094924Y-76922504D01*
X110993908Y-76956175D01*
X110825550Y-77057190D01*
X110724534Y-77158206D01*
X110623519Y-77326565D01*
X110589847Y-77427580D01*
X110589847Y-77562267D01*
X110657191Y-77696955D01*
X110724535Y-77764298D01*
X110859222Y-77831641D01*
X110926565Y-77831641D01*
X111162267Y-77595939D01*
X111027580Y-77461253D01*
X111633672Y-77730626D02*
X111162267Y-78202030D01*
X111566328Y-77797969D02*
X111633672Y-77797969D01*
X111734687Y-77831641D01*
X111835703Y-77932657D01*
X111869374Y-78033672D01*
X111835703Y-78134687D01*
X111465313Y-78505076D01*
X112105076Y-79144840D02*
X112812183Y-78437733D01*
X112138748Y-79111168D02*
X112037733Y-79077496D01*
X111903045Y-78942809D01*
X111869374Y-78841794D01*
X111869374Y-78774450D01*
X111903045Y-78673435D01*
X112105076Y-78471404D01*
X112206092Y-78437732D01*
X112273435Y-78437732D01*
X112374450Y-78471404D01*
X112509138Y-78606092D01*
X112542810Y-78707107D01*
X134038095Y-52438095D02*
X134000000Y-52514286D01*
X133923810Y-52590476D01*
X133809524Y-52704762D01*
X133771429Y-52780953D01*
X133771429Y-52857143D01*
X133961905Y-52819048D02*
X133923810Y-52895238D01*
X133847619Y-52971429D01*
X133695238Y-53009524D01*
X133428571Y-53009524D01*
X133276190Y-52971429D01*
X133200000Y-52895238D01*
X133161905Y-52819048D01*
X133161905Y-52666667D01*
X133200000Y-52590476D01*
X133276190Y-52514286D01*
X133428571Y-52476191D01*
X133695238Y-52476191D01*
X133847619Y-52514286D01*
X133923810Y-52590476D01*
X133961905Y-52666667D01*
X133961905Y-52819048D01*
X133428571Y-51790477D02*
X133961905Y-51790477D01*
X133123810Y-51980953D02*
X133695238Y-52171429D01*
X133695238Y-51676191D01*
X133161905Y-51219048D02*
X133161905Y-51142857D01*
X133200000Y-51066667D01*
X133238095Y-51028572D01*
X133314286Y-50990476D01*
X133466667Y-50952381D01*
X133657143Y-50952381D01*
X133809524Y-50990476D01*
X133885714Y-51028572D01*
X133923810Y-51066667D01*
X133961905Y-51142857D01*
X133961905Y-51219048D01*
X133923810Y-51295238D01*
X133885714Y-51333334D01*
X133809524Y-51371429D01*
X133657143Y-51409524D01*
X133466667Y-51409524D01*
X133314286Y-51371429D01*
X133238095Y-51333334D01*
X133200000Y-51295238D01*
X133161905Y-51219048D01*
X133961905Y-50190476D02*
X133961905Y-50647619D01*
X133961905Y-50419048D02*
X133161905Y-50419048D01*
X133276190Y-50495238D01*
X133352381Y-50571429D01*
X133390476Y-50647619D01*
X131214286Y-52474762D02*
X131357143Y-52522381D01*
X131595239Y-52522381D01*
X131690477Y-52474762D01*
X131738096Y-52427143D01*
X131785715Y-52331905D01*
X131785715Y-52236667D01*
X131738096Y-52141429D01*
X131690477Y-52093810D01*
X131595239Y-52046190D01*
X131404762Y-51998571D01*
X131309524Y-51950952D01*
X131261905Y-51903333D01*
X131214286Y-51808095D01*
X131214286Y-51712857D01*
X131261905Y-51617619D01*
X131309524Y-51570000D01*
X131404762Y-51522381D01*
X131642858Y-51522381D01*
X131785715Y-51570000D01*
X122761905Y-51570000D02*
X122666667Y-51522381D01*
X122523810Y-51522381D01*
X122380952Y-51570000D01*
X122285714Y-51665238D01*
X122238095Y-51760476D01*
X122190476Y-51950952D01*
X122190476Y-52093810D01*
X122238095Y-52284286D01*
X122285714Y-52379524D01*
X122380952Y-52474762D01*
X122523810Y-52522381D01*
X122619048Y-52522381D01*
X122761905Y-52474762D01*
X122809524Y-52427143D01*
X122809524Y-52093810D01*
X122619048Y-52093810D01*
%LPC*%
D16*
X119750000Y-58200000D03*
X134250000Y-58200000D03*
D17*
X132968000Y-80000000D03*
D18*
X137032000Y-80000000D03*
D19*
X121800000Y-64152500D03*
X121800000Y-62247500D03*
X136200000Y-70752500D03*
X136200000Y-68847500D03*
X136200000Y-63847500D03*
X136200000Y-65752500D03*
D20*
X116400000Y-62900000D03*
X116400000Y-64300000D03*
D19*
X124000000Y-64047500D03*
X124000000Y-65952500D03*
X123600000Y-74552500D03*
X123600000Y-72647500D03*
X121200000Y-72647500D03*
X121200000Y-74552500D03*
D21*
X130352500Y-72600000D03*
X128447500Y-72600000D03*
D19*
X128000000Y-64047500D03*
X128000000Y-65952500D03*
X128000000Y-68447500D03*
X128000000Y-70352500D03*
X126000000Y-64047500D03*
X126000000Y-65952500D03*
X119600000Y-62247500D03*
X119600000Y-64152500D03*
D22*
X121975000Y-66095000D03*
X121975000Y-67365000D03*
X121975000Y-68635000D03*
X121975000Y-69905000D03*
X115625000Y-69905000D03*
X115625000Y-68635000D03*
X115625000Y-67365000D03*
X115625000Y-66095000D03*
D23*
X134105000Y-70375000D03*
X132835000Y-70375000D03*
X131565000Y-70375000D03*
X130295000Y-70375000D03*
X130295000Y-64025000D03*
X131565000Y-64025000D03*
X132835000Y-64025000D03*
X134105000Y-64025000D03*
D24*
X114300000Y-48260000D03*
X139700000Y-48260000D03*
D25*
X143000000Y-79790000D03*
D26*
X143000000Y-77250000D03*
X143000000Y-74710000D03*
D27*
X109000000Y-70250000D03*
X109000000Y-67750000D03*
X109000000Y-65250000D03*
D28*
X112300000Y-72750000D03*
D29*
X112300000Y-62750000D03*
D27*
X125000000Y-80750000D03*
X122500000Y-80750000D03*
X120000000Y-80750000D03*
D28*
X127500000Y-77450000D03*
D29*
X117500000Y-77450000D03*
D30*
X143500000Y-69040000D03*
D31*
X143500000Y-63960000D03*
D32*
X109000000Y-75500000D03*
X114250000Y-81000000D03*
D10*
G36*
X111380525Y-80000000D02*
X109800000Y-81580525D01*
X108219475Y-80000000D01*
X109800000Y-78419475D01*
X111380525Y-80000000D01*
X111380525Y-80000000D01*
G37*
D33*
X127000000Y-52070000D03*
X124460000Y-52070000D03*
X129540000Y-52070000D03*
M02*
