G04 #@! TF.FileFunction,Copper,L1,Top,Signal*
%FSLAX46Y46*%
G04 Gerber Fmt 4.6, Leading zero omitted, Abs format (unit mm)*
G04 Created by KiCad (PCBNEW 0.201502010101+5397~21~ubuntu14.04.1-product) date Tue 24 Feb 2015 10:52:37 PM EST*
%MOMM*%
G01*
G04 APERTURE LIST*
%ADD10C,0.100000*%
%ADD11R,0.700000X0.600000*%
%ADD12O,1.501140X2.499360*%
%ADD13R,0.889000X1.397000*%
%ADD14R,1.397000X0.889000*%
%ADD15C,1.998980*%
%ADD16R,1.143000X0.508000*%
%ADD17R,2.540000X2.540000*%
%ADD18O,2.540000X2.540000*%
%ADD19R,2.032000X1.727200*%
%ADD20O,2.032000X1.727200*%
%ADD21C,2.000000*%
%ADD22C,1.143000*%
%ADD23C,0.889000*%
%ADD24C,0.609600*%
%ADD25C,0.254000*%
G04 APERTURE END LIST*
D10*
D11*
X121793000Y-58101000D03*
X121793000Y-59501000D03*
D12*
X127381000Y-52197000D03*
X124841000Y-52197000D03*
X129921000Y-52197000D03*
D13*
X111442500Y-64262000D03*
X109537500Y-64262000D03*
X112458500Y-72390000D03*
X110553500Y-72390000D03*
D14*
X109728000Y-68262500D03*
X109728000Y-66357500D03*
X134620000Y-73088500D03*
X134620000Y-71183500D03*
X123952000Y-70548500D03*
X123952000Y-72453500D03*
X121285000Y-72326500D03*
X121285000Y-74231500D03*
X124079000Y-57721500D03*
X124079000Y-59626500D03*
D15*
X126522699Y-55910699D03*
X137129301Y-66517301D03*
D16*
X119380000Y-65913000D03*
X119380000Y-67183000D03*
X119380000Y-68453000D03*
X119380000Y-69723000D03*
X113030000Y-69723000D03*
X113030000Y-68453000D03*
X113030000Y-67183000D03*
X113030000Y-65913000D03*
X132715000Y-68580000D03*
X132715000Y-69850000D03*
X132715000Y-71120000D03*
X132715000Y-72390000D03*
X126365000Y-72390000D03*
X126365000Y-71120000D03*
X126365000Y-69850000D03*
X126365000Y-68580000D03*
D17*
X143256000Y-80518000D03*
D18*
X143256000Y-75438000D03*
D17*
X143256000Y-69215000D03*
D18*
X143256000Y-64135000D03*
D19*
X137160000Y-74422000D03*
D20*
X137160000Y-71882000D03*
X137160000Y-69342000D03*
D21*
X116038000Y-79883000D03*
X113538000Y-79883000D03*
X111038000Y-79883000D03*
X130008000Y-79756000D03*
X127508000Y-79756000D03*
X125008000Y-79756000D03*
D22*
X129286000Y-68580000D03*
X113411000Y-63500000D03*
X116205000Y-65913000D03*
X129286000Y-70485000D03*
X116205000Y-71247000D03*
X111506000Y-66040000D03*
X123571000Y-74295000D03*
D23*
X111125000Y-70104000D03*
X118364000Y-71374000D03*
D24*
X123952000Y-70548500D02*
X123952000Y-69850000D01*
X125222000Y-68580000D02*
X126365000Y-68580000D01*
X123952000Y-69850000D02*
X125222000Y-68580000D01*
X126365000Y-68580000D02*
X129286000Y-68580000D01*
X112649000Y-64262000D02*
X113411000Y-63500000D01*
X112649000Y-64262000D02*
X111442500Y-64262000D01*
X116205000Y-65913000D02*
X119380000Y-65913000D01*
X134620000Y-71183500D02*
X132778500Y-71183500D01*
X132778500Y-71183500D02*
X132715000Y-71120000D01*
X132715000Y-71120000D02*
X129921000Y-71120000D01*
X129921000Y-71120000D02*
X129286000Y-70485000D01*
X126365000Y-71120000D02*
X128651000Y-71120000D01*
X128651000Y-71120000D02*
X129286000Y-70485000D01*
X126365000Y-69850000D02*
X128651000Y-69850000D01*
X129921000Y-69850000D02*
X129286000Y-70485000D01*
X129921000Y-69850000D02*
X132715000Y-69850000D01*
X128651000Y-69850000D02*
X129286000Y-70485000D01*
X113030000Y-69723000D02*
X115443000Y-69723000D01*
X116205000Y-70485000D02*
X116205000Y-71247000D01*
X115443000Y-69723000D02*
X116205000Y-70485000D01*
X111188500Y-66357500D02*
X111506000Y-66040000D01*
X109728000Y-66357500D02*
X111188500Y-66357500D01*
X123507500Y-74231500D02*
X123571000Y-74295000D01*
X121285000Y-74231500D02*
X123507500Y-74231500D01*
X137160000Y-71882000D02*
X137160000Y-71628000D01*
X137160000Y-71628000D02*
X134112000Y-68580000D01*
X134112000Y-68580000D02*
X132715000Y-68580000D01*
X134747000Y-69215000D02*
X134112000Y-68580000D01*
D25*
X121793000Y-58101000D02*
X121793000Y-57150000D01*
X121793000Y-57150000D02*
X124333000Y-54610000D01*
X124079000Y-57721500D02*
X124079000Y-54864000D01*
X124841000Y-54102000D02*
X124841000Y-52197000D01*
X124079000Y-54864000D02*
X124333000Y-54610000D01*
X124333000Y-54610000D02*
X124841000Y-54102000D01*
X121793000Y-59501000D02*
X121793000Y-61341000D01*
X113030000Y-65532000D02*
X113030000Y-65913000D01*
X113919000Y-64643000D02*
X113030000Y-65532000D01*
X118491000Y-64643000D02*
X113919000Y-64643000D01*
X121793000Y-61341000D02*
X118491000Y-64643000D01*
D24*
X143256000Y-80391000D02*
X143256000Y-80518000D01*
X137287000Y-74422000D02*
X143256000Y-80391000D01*
X137160000Y-74422000D02*
X137287000Y-74422000D01*
X112585500Y-72517000D02*
X118999000Y-72517000D01*
X130683000Y-60833000D02*
X133858000Y-60833000D01*
X130683000Y-60833000D02*
X118999000Y-72517000D01*
X112585500Y-72517000D02*
X112458500Y-72390000D01*
X140970000Y-66548000D02*
X135763000Y-61341000D01*
X134366000Y-61341000D02*
X133858000Y-60833000D01*
X135763000Y-61341000D02*
X134366000Y-61341000D01*
X140970000Y-66548000D02*
X140970000Y-66548000D01*
X133858000Y-60833000D02*
X133223000Y-60198000D01*
X133223000Y-60198000D02*
X133223000Y-51435000D01*
X127381000Y-50673000D02*
X127381000Y-52197000D01*
X128143000Y-49911000D02*
X127381000Y-50673000D01*
X131699000Y-49911000D02*
X128143000Y-49911000D01*
X133223000Y-51435000D02*
X131699000Y-49911000D01*
X143256000Y-68961000D02*
X143256000Y-69215000D01*
X140970000Y-66675000D02*
X143256000Y-68961000D01*
X140970000Y-66548000D02*
X140970000Y-66675000D01*
X143129000Y-69342000D02*
X143256000Y-69215000D01*
X137160000Y-69342000D02*
X143129000Y-69342000D01*
X119380000Y-68453000D02*
X121412000Y-68453000D01*
X126522699Y-63342301D02*
X126522699Y-55910699D01*
X121412000Y-68453000D02*
X126522699Y-63342301D01*
X129921000Y-54610000D02*
X128620301Y-55910699D01*
X128620301Y-55910699D02*
X126522699Y-55910699D01*
X129921000Y-52197000D02*
X129921000Y-54610000D01*
D25*
X109728000Y-68262500D02*
X109728000Y-70358000D01*
X110553500Y-71183500D02*
X110553500Y-72390000D01*
X109728000Y-70358000D02*
X110553500Y-71183500D01*
X109728000Y-68262500D02*
X110426500Y-68262500D01*
X110426500Y-68262500D02*
X111506000Y-67183000D01*
X111506000Y-67183000D02*
X113030000Y-67183000D01*
X112966500Y-67246500D02*
X113030000Y-67183000D01*
X134620000Y-73088500D02*
X133159500Y-73088500D01*
X133159500Y-73088500D02*
X132715000Y-72644000D01*
X132715000Y-72644000D02*
X132715000Y-72390000D01*
X121285000Y-72326500D02*
X123825000Y-72326500D01*
X123825000Y-72326500D02*
X123952000Y-72453500D01*
X123952000Y-72453500D02*
X126301500Y-72453500D01*
X126301500Y-72453500D02*
X126365000Y-72390000D01*
X124079000Y-59626500D02*
X124079000Y-64008000D01*
X120904000Y-67183000D02*
X119380000Y-67183000D01*
X124079000Y-64008000D02*
X120904000Y-67183000D01*
X113030000Y-68453000D02*
X112141000Y-68453000D01*
X111125000Y-69469000D02*
X111125000Y-70104000D01*
X112141000Y-68453000D02*
X111125000Y-69469000D01*
X113538000Y-79883000D02*
X113538000Y-77343000D01*
X108458000Y-64262000D02*
X109537500Y-64262000D01*
X107823000Y-64897000D02*
X108458000Y-64262000D01*
X107823000Y-72644000D02*
X107823000Y-64897000D01*
X109982000Y-74803000D02*
X107823000Y-72644000D01*
X110998000Y-74803000D02*
X109982000Y-74803000D01*
X113538000Y-77343000D02*
X110998000Y-74803000D01*
X119380000Y-69723000D02*
X117856000Y-69723000D01*
X117602000Y-70612000D02*
X118364000Y-71374000D01*
X117602000Y-69977000D02*
X117602000Y-70612000D01*
X117856000Y-69723000D02*
X117602000Y-69977000D01*
M02*
