G04 #@! TF.FileFunction,Legend,Bot*
%FSLAX46Y46*%
G04 Gerber Fmt 4.6, Leading zero omitted, Abs format (unit mm)*
G04 Created by KiCad (PCBNEW 0.201502010101+5397~21~ubuntu14.04.1-product) date Thu 26 Feb 2015 12:14:18 AM EST*
%MOMM*%
G01*
G04 APERTURE LIST*
%ADD10C,0.100000*%
%ADD11C,0.150000*%
%ADD12R,1.397000X0.889000*%
%ADD13R,0.889000X1.397000*%
%ADD14O,1.501140X2.499360*%
%ADD15C,1.998980*%
%ADD16C,2.311400*%
%ADD17R,2.540000X2.540000*%
%ADD18O,2.540000X2.540000*%
%ADD19R,2.032000X1.727200*%
%ADD20O,2.032000X1.727200*%
%ADD21C,2.000000*%
%ADD22O,2.000000X2.200000*%
G04 APERTURE END LIST*
D10*
D11*
X116967000Y-66929000D02*
G75*
G03X116967000Y-66929000I-127000J0D01*
G01*
X116840000Y-68072000D02*
X116840000Y-67056000D01*
X116840000Y-67056000D02*
X115316000Y-67056000D01*
X115316000Y-67056000D02*
X115316000Y-68072000D01*
X115316000Y-69088000D02*
X115316000Y-70104000D01*
X115316000Y-70104000D02*
X116840000Y-70104000D01*
X116840000Y-70104000D02*
X116840000Y-69088000D01*
X133731000Y-71628000D02*
G75*
G03X133731000Y-71628000I-127000J0D01*
G01*
X133604000Y-70485000D02*
X133604000Y-71501000D01*
X133604000Y-71501000D02*
X135128000Y-71501000D01*
X135128000Y-71501000D02*
X135128000Y-70485000D01*
X135128000Y-69469000D02*
X135128000Y-68453000D01*
X135128000Y-68453000D02*
X133604000Y-68453000D01*
X133604000Y-68453000D02*
X133604000Y-69469000D01*
X128016000Y-65913000D02*
G75*
G03X128016000Y-65913000I-127000J0D01*
G01*
X129032000Y-65913000D02*
X128016000Y-65913000D01*
X128016000Y-65913000D02*
X128016000Y-67437000D01*
X128016000Y-67437000D02*
X129032000Y-67437000D01*
X130048000Y-67437000D02*
X131064000Y-67437000D01*
X131064000Y-67437000D02*
X131064000Y-65913000D01*
X131064000Y-65913000D02*
X130048000Y-65913000D01*
X119253000Y-67183000D02*
G75*
G03X119253000Y-67183000I-127000J0D01*
G01*
X119126000Y-68326000D02*
X119126000Y-67310000D01*
X119126000Y-67310000D02*
X117602000Y-67310000D01*
X117602000Y-67310000D02*
X117602000Y-68326000D01*
X117602000Y-69342000D02*
X117602000Y-70358000D01*
X117602000Y-70358000D02*
X119126000Y-70358000D01*
X119126000Y-70358000D02*
X119126000Y-69342000D01*
X114657143Y-67460953D02*
X114704762Y-67413334D01*
X114752381Y-67270477D01*
X114752381Y-67175239D01*
X114704762Y-67032381D01*
X114609524Y-66937143D01*
X114514286Y-66889524D01*
X114323810Y-66841905D01*
X114180952Y-66841905D01*
X113990476Y-66889524D01*
X113895238Y-66937143D01*
X113800000Y-67032381D01*
X113752381Y-67175239D01*
X113752381Y-67270477D01*
X113800000Y-67413334D01*
X113847619Y-67460953D01*
X113847619Y-67841905D02*
X113800000Y-67889524D01*
X113752381Y-67984762D01*
X113752381Y-68222858D01*
X113800000Y-68318096D01*
X113847619Y-68365715D01*
X113942857Y-68413334D01*
X114038095Y-68413334D01*
X114180952Y-68365715D01*
X114752381Y-67794286D01*
X114752381Y-68413334D01*
X113752381Y-69032381D02*
X113752381Y-69127620D01*
X113800000Y-69222858D01*
X113847619Y-69270477D01*
X113942857Y-69318096D01*
X114133333Y-69365715D01*
X114371429Y-69365715D01*
X114561905Y-69318096D01*
X114657143Y-69270477D01*
X114704762Y-69222858D01*
X114752381Y-69127620D01*
X114752381Y-69032381D01*
X114704762Y-68937143D01*
X114657143Y-68889524D01*
X114561905Y-68841905D01*
X114371429Y-68794286D01*
X114133333Y-68794286D01*
X113942857Y-68841905D01*
X113847619Y-68889524D01*
X113800000Y-68937143D01*
X113752381Y-69032381D01*
X114752381Y-70318096D02*
X114752381Y-69746667D01*
X114752381Y-70032381D02*
X113752381Y-70032381D01*
X113895238Y-69937143D01*
X113990476Y-69841905D01*
X114038095Y-69746667D01*
X132945143Y-68857953D02*
X132992762Y-68810334D01*
X133040381Y-68667477D01*
X133040381Y-68572239D01*
X132992762Y-68429381D01*
X132897524Y-68334143D01*
X132802286Y-68286524D01*
X132611810Y-68238905D01*
X132468952Y-68238905D01*
X132278476Y-68286524D01*
X132183238Y-68334143D01*
X132088000Y-68429381D01*
X132040381Y-68572239D01*
X132040381Y-68667477D01*
X132088000Y-68810334D01*
X132135619Y-68857953D01*
X132040381Y-69191286D02*
X132040381Y-69810334D01*
X132421333Y-69477000D01*
X132421333Y-69619858D01*
X132468952Y-69715096D01*
X132516571Y-69762715D01*
X132611810Y-69810334D01*
X132849905Y-69810334D01*
X132945143Y-69762715D01*
X132992762Y-69715096D01*
X133040381Y-69619858D01*
X133040381Y-69334143D01*
X132992762Y-69238905D01*
X132945143Y-69191286D01*
X132040381Y-70429381D02*
X132040381Y-70524620D01*
X132088000Y-70619858D01*
X132135619Y-70667477D01*
X132230857Y-70715096D01*
X132421333Y-70762715D01*
X132659429Y-70762715D01*
X132849905Y-70715096D01*
X132945143Y-70667477D01*
X132992762Y-70619858D01*
X133040381Y-70524620D01*
X133040381Y-70429381D01*
X132992762Y-70334143D01*
X132945143Y-70286524D01*
X132849905Y-70238905D01*
X132659429Y-70191286D01*
X132421333Y-70191286D01*
X132230857Y-70238905D01*
X132135619Y-70286524D01*
X132088000Y-70334143D01*
X132040381Y-70429381D01*
X133040381Y-71715096D02*
X133040381Y-71143667D01*
X133040381Y-71429381D02*
X132040381Y-71429381D01*
X132183238Y-71334143D01*
X132278476Y-71238905D01*
X132326095Y-71143667D01*
X130786047Y-65127143D02*
X130833666Y-65174762D01*
X130976523Y-65222381D01*
X131071761Y-65222381D01*
X131214619Y-65174762D01*
X131309857Y-65079524D01*
X131357476Y-64984286D01*
X131405095Y-64793810D01*
X131405095Y-64650952D01*
X131357476Y-64460476D01*
X131309857Y-64365238D01*
X131214619Y-64270000D01*
X131071761Y-64222381D01*
X130976523Y-64222381D01*
X130833666Y-64270000D01*
X130786047Y-64317619D01*
X130452714Y-64222381D02*
X129833666Y-64222381D01*
X130167000Y-64603333D01*
X130024142Y-64603333D01*
X129928904Y-64650952D01*
X129881285Y-64698571D01*
X129833666Y-64793810D01*
X129833666Y-65031905D01*
X129881285Y-65127143D01*
X129928904Y-65174762D01*
X130024142Y-65222381D01*
X130309857Y-65222381D01*
X130405095Y-65174762D01*
X130452714Y-65127143D01*
X129214619Y-64222381D02*
X129119380Y-64222381D01*
X129024142Y-64270000D01*
X128976523Y-64317619D01*
X128928904Y-64412857D01*
X128881285Y-64603333D01*
X128881285Y-64841429D01*
X128928904Y-65031905D01*
X128976523Y-65127143D01*
X129024142Y-65174762D01*
X129119380Y-65222381D01*
X129214619Y-65222381D01*
X129309857Y-65174762D01*
X129357476Y-65127143D01*
X129405095Y-65031905D01*
X129452714Y-64841429D01*
X129452714Y-64603333D01*
X129405095Y-64412857D01*
X129357476Y-64317619D01*
X129309857Y-64270000D01*
X129214619Y-64222381D01*
X128500333Y-64317619D02*
X128452714Y-64270000D01*
X128357476Y-64222381D01*
X128119380Y-64222381D01*
X128024142Y-64270000D01*
X127976523Y-64317619D01*
X127928904Y-64412857D01*
X127928904Y-64508095D01*
X127976523Y-64650952D01*
X128547952Y-65222381D01*
X127928904Y-65222381D01*
X120848381Y-67841953D02*
X120372190Y-67508619D01*
X120848381Y-67270524D02*
X119848381Y-67270524D01*
X119848381Y-67651477D01*
X119896000Y-67746715D01*
X119943619Y-67794334D01*
X120038857Y-67841953D01*
X120181714Y-67841953D01*
X120276952Y-67794334D01*
X120324571Y-67746715D01*
X120372190Y-67651477D01*
X120372190Y-67270524D01*
X120181714Y-68699096D02*
X120848381Y-68699096D01*
X119800762Y-68461000D02*
X120515048Y-68222905D01*
X120515048Y-68841953D01*
X119848381Y-69413381D02*
X119848381Y-69508620D01*
X119896000Y-69603858D01*
X119943619Y-69651477D01*
X120038857Y-69699096D01*
X120229333Y-69746715D01*
X120467429Y-69746715D01*
X120657905Y-69699096D01*
X120753143Y-69651477D01*
X120800762Y-69603858D01*
X120848381Y-69508620D01*
X120848381Y-69413381D01*
X120800762Y-69318143D01*
X120753143Y-69270524D01*
X120657905Y-69222905D01*
X120467429Y-69175286D01*
X120229333Y-69175286D01*
X120038857Y-69222905D01*
X119943619Y-69270524D01*
X119896000Y-69318143D01*
X119848381Y-69413381D01*
X120848381Y-70699096D02*
X120848381Y-70127667D01*
X120848381Y-70413381D02*
X119848381Y-70413381D01*
X119991238Y-70318143D01*
X120086476Y-70222905D01*
X120134095Y-70127667D01*
%LPC*%
D12*
X116078000Y-67627500D03*
X116078000Y-69532500D03*
X134366000Y-70929500D03*
X134366000Y-69024500D03*
D13*
X128587500Y-66675000D03*
X130492500Y-66675000D03*
D14*
X127381000Y-52197000D03*
X124841000Y-52197000D03*
X129921000Y-52197000D03*
D12*
X118364000Y-67881500D03*
X118364000Y-69786500D03*
D15*
X126522699Y-55910699D03*
X137129301Y-66517301D03*
D16*
X114300000Y-48260000D03*
X139700000Y-48260000D03*
D17*
X143256000Y-80518000D03*
D18*
X143256000Y-75438000D03*
D17*
X143256000Y-69215000D03*
D18*
X143256000Y-64135000D03*
D19*
X137160000Y-74422000D03*
D20*
X137160000Y-71882000D03*
X137160000Y-69342000D03*
D21*
X116038000Y-79883000D03*
X113538000Y-79883000D03*
X111038000Y-79883000D03*
D22*
X118638000Y-76583000D03*
X108438000Y-76583000D03*
D21*
X130008000Y-79756000D03*
X127508000Y-79756000D03*
X125008000Y-79756000D03*
D22*
X132608000Y-76456000D03*
X122408000Y-76456000D03*
M02*
