M48
;DRILL file {kicad 0.201502010101+5397~21~ubuntu14.04.1-product} date Thu 26 Feb 2015 12:27:17 AM EST
;FORMAT={2:4/ absolute / inch / suppress leading zeros}
FMAT,2
INCH,TZ
T1C0.025
T2C0.030
T3C0.039
T4C0.039
T5C0.040
T6C0.051
T7C0.079
T8C0.091
%
G90
G05
M72
T1
X43750Y-27600
X46600Y-28100
T2
X43900Y-26000
X44650Y-25000
X45750Y-25950
X45750Y-28050
X48650Y-29250
X50900Y-27000
X50900Y-27750
T3
X43716Y-31450
X44700Y-31450
X45684Y-31450
X49216Y-31400
X50200Y-31400
X51184Y-31400
T4
X49150Y-20550
X49812Y-22012
X50150Y-20550
X51150Y-20550
X53988Y-26188
T5
X54000Y-27300
X54000Y-28300
X54000Y-29300
T6
X56400Y-25250
X56400Y-27250
X56400Y-29700
X56400Y-31700
T8
X45000Y-19000
X55000Y-19000
T7
X42692Y-30111G85X42692Y-30190
G05
X46708Y-30111G85X46708Y-30190
G05
X48192Y-30061G85X48192Y-30140
G05
X52208Y-30061G85X52208Y-30140
G05
T0
M30
