G04 #@! TF.FileFunction,Legend,Top*
%FSLAX46Y46*%
G04 Gerber Fmt 4.6, Leading zero omitted, Abs format (unit mm)*
G04 Created by KiCad (PCBNEW 0.201502010101+5397~21~ubuntu14.04.1-product) date Tue 24 Feb 2015 10:52:37 PM EST*
%MOMM*%
G01*
G04 APERTURE LIST*
%ADD10C,0.100000*%
%ADD11C,0.300000*%
%ADD12C,0.150000*%
%ADD13R,0.700000X0.600000*%
%ADD14O,1.501140X2.499360*%
%ADD15R,0.889000X1.397000*%
%ADD16R,1.397000X0.889000*%
%ADD17C,1.998980*%
%ADD18R,1.143000X0.508000*%
%ADD19C,2.311400*%
%ADD20R,2.540000X2.540000*%
%ADD21O,2.540000X2.540000*%
%ADD22R,2.032000X1.727200*%
%ADD23O,2.032000X1.727200*%
%ADD24C,2.000000*%
%ADD25O,2.000000X2.200000*%
G04 APERTURE END LIST*
D10*
D11*
X120924572Y-43912714D02*
X120853143Y-43984143D01*
X120638857Y-44055571D01*
X120496000Y-44055571D01*
X120281715Y-43984143D01*
X120138857Y-43841286D01*
X120067429Y-43698429D01*
X119996000Y-43412714D01*
X119996000Y-43198429D01*
X120067429Y-42912714D01*
X120138857Y-42769857D01*
X120281715Y-42627000D01*
X120496000Y-42555571D01*
X120638857Y-42555571D01*
X120853143Y-42627000D01*
X120924572Y-42698429D01*
X122210286Y-43055571D02*
X122210286Y-44055571D01*
X121567429Y-43055571D02*
X121567429Y-43841286D01*
X121638857Y-43984143D01*
X121781715Y-44055571D01*
X121996000Y-44055571D01*
X122138857Y-43984143D01*
X122210286Y-43912714D01*
X122924572Y-44055571D02*
X122924572Y-43055571D01*
X122924572Y-43341286D02*
X122996000Y-43198429D01*
X123067429Y-43127000D01*
X123210286Y-43055571D01*
X123353143Y-43055571D01*
X123853143Y-44055571D02*
X123853143Y-43055571D01*
X123853143Y-43341286D02*
X123924571Y-43198429D01*
X123996000Y-43127000D01*
X124138857Y-43055571D01*
X124281714Y-43055571D01*
X125353142Y-43984143D02*
X125210285Y-44055571D01*
X124924571Y-44055571D01*
X124781714Y-43984143D01*
X124710285Y-43841286D01*
X124710285Y-43269857D01*
X124781714Y-43127000D01*
X124924571Y-43055571D01*
X125210285Y-43055571D01*
X125353142Y-43127000D01*
X125424571Y-43269857D01*
X125424571Y-43412714D01*
X124710285Y-43555571D01*
X126067428Y-43055571D02*
X126067428Y-44055571D01*
X126067428Y-43198429D02*
X126138856Y-43127000D01*
X126281714Y-43055571D01*
X126495999Y-43055571D01*
X126638856Y-43127000D01*
X126710285Y-43269857D01*
X126710285Y-44055571D01*
X127210285Y-43055571D02*
X127781714Y-43055571D01*
X127424571Y-42555571D02*
X127424571Y-43841286D01*
X127495999Y-43984143D01*
X127638857Y-44055571D01*
X127781714Y-44055571D01*
X129353142Y-43984143D02*
X129567428Y-44055571D01*
X129924571Y-44055571D01*
X130067428Y-43984143D01*
X130138857Y-43912714D01*
X130210285Y-43769857D01*
X130210285Y-43627000D01*
X130138857Y-43484143D01*
X130067428Y-43412714D01*
X129924571Y-43341286D01*
X129638857Y-43269857D01*
X129495999Y-43198429D01*
X129424571Y-43127000D01*
X129353142Y-42984143D01*
X129353142Y-42841286D01*
X129424571Y-42698429D01*
X129495999Y-42627000D01*
X129638857Y-42555571D01*
X129995999Y-42555571D01*
X130210285Y-42627000D01*
X130853142Y-44055571D02*
X130853142Y-43055571D01*
X130853142Y-42555571D02*
X130781713Y-42627000D01*
X130853142Y-42698429D01*
X130924570Y-42627000D01*
X130853142Y-42555571D01*
X130853142Y-42698429D01*
X131567428Y-43055571D02*
X131567428Y-44055571D01*
X131567428Y-43198429D02*
X131638856Y-43127000D01*
X131781714Y-43055571D01*
X131995999Y-43055571D01*
X132138856Y-43127000D01*
X132210285Y-43269857D01*
X132210285Y-44055571D01*
X132924571Y-44055571D02*
X132924571Y-42555571D01*
X133067428Y-43484143D02*
X133495999Y-44055571D01*
X133495999Y-43055571D02*
X132924571Y-43627000D01*
X122710286Y-44955571D02*
X122996000Y-44955571D01*
X123138858Y-45027000D01*
X123281715Y-45169857D01*
X123353143Y-45455571D01*
X123353143Y-45955571D01*
X123281715Y-46241286D01*
X123138858Y-46384143D01*
X122996000Y-46455571D01*
X122710286Y-46455571D01*
X122567429Y-46384143D01*
X122424572Y-46241286D01*
X122353143Y-45955571D01*
X122353143Y-45455571D01*
X122424572Y-45169857D01*
X122567429Y-45027000D01*
X122710286Y-44955571D01*
X123996001Y-46455571D02*
X123996001Y-45455571D01*
X123996001Y-45741286D02*
X124067429Y-45598429D01*
X124138858Y-45527000D01*
X124281715Y-45455571D01*
X124424572Y-45455571D01*
X125996000Y-46384143D02*
X126210286Y-46455571D01*
X126567429Y-46455571D01*
X126710286Y-46384143D01*
X126781715Y-46312714D01*
X126853143Y-46169857D01*
X126853143Y-46027000D01*
X126781715Y-45884143D01*
X126710286Y-45812714D01*
X126567429Y-45741286D01*
X126281715Y-45669857D01*
X126138857Y-45598429D01*
X126067429Y-45527000D01*
X125996000Y-45384143D01*
X125996000Y-45241286D01*
X126067429Y-45098429D01*
X126138857Y-45027000D01*
X126281715Y-44955571D01*
X126638857Y-44955571D01*
X126853143Y-45027000D01*
X127353143Y-45455571D02*
X127638857Y-46455571D01*
X127924571Y-45741286D01*
X128210286Y-46455571D01*
X128496000Y-45455571D01*
X129067429Y-46455571D02*
X129067429Y-45455571D01*
X129067429Y-44955571D02*
X128996000Y-45027000D01*
X129067429Y-45098429D01*
X129138857Y-45027000D01*
X129067429Y-44955571D01*
X129067429Y-45098429D01*
X129781715Y-46455571D02*
X129781715Y-45455571D01*
X129781715Y-45598429D02*
X129853143Y-45527000D01*
X129996001Y-45455571D01*
X130210286Y-45455571D01*
X130353143Y-45527000D01*
X130424572Y-45669857D01*
X130424572Y-46455571D01*
X130424572Y-45669857D02*
X130496001Y-45527000D01*
X130638858Y-45455571D01*
X130853143Y-45455571D01*
X130996001Y-45527000D01*
X131067429Y-45669857D01*
X131067429Y-46455571D01*
D12*
X121193000Y-58401000D02*
X121193000Y-59951000D01*
X122393000Y-58401000D02*
X122393000Y-59951000D01*
X125857000Y-49149000D02*
X125857000Y-50292000D01*
X128905000Y-49149000D02*
X128905000Y-50292000D01*
X132715000Y-50292000D02*
X132715000Y-53975000D01*
X132715000Y-53975000D02*
X122047000Y-53975000D01*
X122047000Y-53975000D02*
X122047000Y-50292000D01*
X132715000Y-49149000D02*
X132715000Y-50292000D01*
X132715000Y-50292000D02*
X122047000Y-50292000D01*
X122047000Y-50292000D02*
X122047000Y-49149000D01*
X127381000Y-49149000D02*
X122047000Y-49149000D01*
X127381000Y-49149000D02*
X132715000Y-49149000D01*
X112268000Y-63500000D02*
G75*
G03X112268000Y-63500000I-127000J0D01*
G01*
X110998000Y-63500000D02*
X112014000Y-63500000D01*
X112014000Y-63500000D02*
X112014000Y-65024000D01*
X112014000Y-65024000D02*
X110998000Y-65024000D01*
X109982000Y-65024000D02*
X108966000Y-65024000D01*
X108966000Y-65024000D02*
X108966000Y-63500000D01*
X108966000Y-63500000D02*
X109982000Y-63500000D01*
X113284000Y-71628000D02*
G75*
G03X113284000Y-71628000I-127000J0D01*
G01*
X112014000Y-71628000D02*
X113030000Y-71628000D01*
X113030000Y-71628000D02*
X113030000Y-73152000D01*
X113030000Y-73152000D02*
X112014000Y-73152000D01*
X110998000Y-73152000D02*
X109982000Y-73152000D01*
X109982000Y-73152000D02*
X109982000Y-71628000D01*
X109982000Y-71628000D02*
X110998000Y-71628000D01*
X110617000Y-68961000D02*
G75*
G03X110617000Y-68961000I-127000J0D01*
G01*
X110490000Y-67818000D02*
X110490000Y-68834000D01*
X110490000Y-68834000D02*
X108966000Y-68834000D01*
X108966000Y-68834000D02*
X108966000Y-67818000D01*
X108966000Y-66802000D02*
X108966000Y-65786000D01*
X108966000Y-65786000D02*
X110490000Y-65786000D01*
X110490000Y-65786000D02*
X110490000Y-66802000D01*
X135509000Y-73787000D02*
G75*
G03X135509000Y-73787000I-127000J0D01*
G01*
X135382000Y-72644000D02*
X135382000Y-73660000D01*
X135382000Y-73660000D02*
X133858000Y-73660000D01*
X133858000Y-73660000D02*
X133858000Y-72644000D01*
X133858000Y-71628000D02*
X133858000Y-70612000D01*
X133858000Y-70612000D02*
X135382000Y-70612000D01*
X135382000Y-70612000D02*
X135382000Y-71628000D01*
X123317000Y-69850000D02*
G75*
G03X123317000Y-69850000I-127000J0D01*
G01*
X123190000Y-70993000D02*
X123190000Y-69977000D01*
X123190000Y-69977000D02*
X124714000Y-69977000D01*
X124714000Y-69977000D02*
X124714000Y-70993000D01*
X124714000Y-72009000D02*
X124714000Y-73025000D01*
X124714000Y-73025000D02*
X123190000Y-73025000D01*
X123190000Y-73025000D02*
X123190000Y-72009000D01*
X120650000Y-71628000D02*
G75*
G03X120650000Y-71628000I-127000J0D01*
G01*
X120523000Y-72771000D02*
X120523000Y-71755000D01*
X120523000Y-71755000D02*
X122047000Y-71755000D01*
X122047000Y-71755000D02*
X122047000Y-72771000D01*
X122047000Y-73787000D02*
X122047000Y-74803000D01*
X122047000Y-74803000D02*
X120523000Y-74803000D01*
X120523000Y-74803000D02*
X120523000Y-73787000D01*
X123444000Y-57023000D02*
G75*
G03X123444000Y-57023000I-127000J0D01*
G01*
X123317000Y-58166000D02*
X123317000Y-57150000D01*
X123317000Y-57150000D02*
X124841000Y-57150000D01*
X124841000Y-57150000D02*
X124841000Y-58166000D01*
X124841000Y-59182000D02*
X124841000Y-60198000D01*
X124841000Y-60198000D02*
X123317000Y-60198000D01*
X123317000Y-60198000D02*
X123317000Y-59182000D01*
X129131923Y-56723872D02*
X127335872Y-58519923D01*
X127335872Y-58519923D02*
X134520077Y-65704128D01*
X134520077Y-65704128D02*
X136316128Y-63908077D01*
X136316128Y-63908077D02*
X129131923Y-56723872D01*
X136316128Y-65704128D02*
X135418102Y-64806102D01*
X127335872Y-56723872D02*
X128233898Y-57621898D01*
X118491000Y-65278000D02*
X118491000Y-70358000D01*
X118491000Y-70358000D02*
X113919000Y-70358000D01*
X113919000Y-70358000D02*
X113919000Y-65278000D01*
X113919000Y-65278000D02*
X118491000Y-65278000D01*
X116967000Y-65278000D02*
X116967000Y-65786000D01*
X116967000Y-65786000D02*
X115697000Y-65786000D01*
X115697000Y-65786000D02*
X115697000Y-65278000D01*
X131826000Y-67945000D02*
X131826000Y-73025000D01*
X131826000Y-73025000D02*
X127254000Y-73025000D01*
X127254000Y-73025000D02*
X127254000Y-67945000D01*
X127254000Y-67945000D02*
X131826000Y-67945000D01*
X130302000Y-67945000D02*
X130302000Y-68453000D01*
X130302000Y-68453000D02*
X129032000Y-68453000D01*
X129032000Y-68453000D02*
X129032000Y-67945000D01*
X118503700Y-60706000D02*
X106197400Y-60706000D01*
X147802600Y-60706000D02*
X135496300Y-60706000D01*
X135496300Y-35814000D02*
X147802600Y-35814000D01*
X106197400Y-35814000D02*
X118503700Y-35814000D01*
X135496300Y-49009300D02*
X135496300Y-60706000D01*
X118503700Y-49009300D02*
X118503700Y-60706000D01*
X118503700Y-47510700D02*
X118503700Y-35814000D01*
X135496300Y-47510700D02*
X135496300Y-35814000D01*
X118503700Y-49009300D02*
X135496300Y-49009300D01*
X118503700Y-47510700D02*
X135496300Y-47510700D01*
X147802600Y-35814000D02*
X147802600Y-60706000D01*
X106197400Y-60706000D02*
X106197400Y-35814000D01*
X139065000Y-83566000D02*
X147447000Y-83566000D01*
X147447000Y-81788000D02*
X147447000Y-77978000D01*
X147447000Y-83566000D02*
X147447000Y-72390000D01*
X147447000Y-72390000D02*
X139065000Y-72390000D01*
X139065000Y-72390000D02*
X139065000Y-83566000D01*
X139065000Y-72263000D02*
X147447000Y-72263000D01*
X147447000Y-70485000D02*
X147447000Y-66675000D01*
X147447000Y-72263000D02*
X147447000Y-61087000D01*
X147447000Y-61087000D02*
X139065000Y-61087000D01*
X139065000Y-61087000D02*
X139065000Y-72263000D01*
X138430000Y-73152000D02*
X138430000Y-68072000D01*
X138430000Y-68072000D02*
X135890000Y-68072000D01*
X135890000Y-68072000D02*
X135890000Y-73152000D01*
X135890000Y-75692000D02*
X135890000Y-73152000D01*
X135890000Y-73152000D02*
X138430000Y-73152000D01*
X135890000Y-75692000D02*
X138430000Y-75692000D01*
X138430000Y-75692000D02*
X138430000Y-73152000D01*
X111760000Y-83439000D02*
X111760000Y-88773000D01*
X111760000Y-88773000D02*
X116078000Y-88773000D01*
X116078000Y-88773000D02*
X116078000Y-83439000D01*
X108638000Y-73983000D02*
X118438000Y-73983000D01*
X108638000Y-83383000D02*
X118438000Y-83383000D01*
X118438000Y-73983000D02*
X118438000Y-83383000D01*
X108638000Y-73983000D02*
X108638000Y-83383000D01*
X125730000Y-83312000D02*
X125730000Y-88646000D01*
X125730000Y-88646000D02*
X130048000Y-88646000D01*
X130048000Y-88646000D02*
X130048000Y-83312000D01*
X122608000Y-73856000D02*
X132408000Y-73856000D01*
X122608000Y-83256000D02*
X132408000Y-83256000D01*
X132408000Y-73856000D02*
X132408000Y-83256000D01*
X122608000Y-73856000D02*
X122608000Y-83256000D01*
D10*
G36*
X133332589Y-49047175D02*
X133321406Y-49085500D01*
X133290503Y-49096136D01*
X133278701Y-48979666D01*
X133292007Y-48859471D01*
X133321406Y-48873833D01*
X133332589Y-49047175D01*
X133332589Y-49047175D01*
X133332589Y-49047175D01*
G37*
X133332589Y-49047175D02*
X133321406Y-49085500D01*
X133290503Y-49096136D01*
X133278701Y-48979666D01*
X133292007Y-48859471D01*
X133321406Y-48873833D01*
X133332589Y-49047175D01*
X133332589Y-49047175D01*
G36*
X133350000Y-36449000D02*
X133342364Y-39179500D01*
X133338041Y-39954221D01*
X133329920Y-40593411D01*
X133318217Y-41090526D01*
X133303150Y-41439025D01*
X133284937Y-41632365D01*
X133263794Y-41664004D01*
X133260074Y-41653350D01*
X133070103Y-41287213D01*
X132754746Y-41002869D01*
X132347069Y-40822390D01*
X131932164Y-40767000D01*
X131658011Y-40810884D01*
X131293298Y-40931835D01*
X130987667Y-41065032D01*
X130631328Y-41223777D01*
X130393129Y-41287965D01*
X130245805Y-41249827D01*
X130162094Y-41101596D01*
X130114734Y-40835503D01*
X130112456Y-40815645D01*
X129968407Y-40253246D01*
X129682376Y-39719193D01*
X129281710Y-39241377D01*
X128793760Y-38847690D01*
X128245874Y-38566024D01*
X127783166Y-38440151D01*
X127423333Y-38381449D01*
X127423333Y-37796224D01*
X127415702Y-37476531D01*
X127388292Y-37294443D01*
X127334326Y-37218729D01*
X127296333Y-37211000D01*
X127226956Y-37246162D01*
X127187441Y-37372469D01*
X127171010Y-37621149D01*
X127169333Y-37796224D01*
X127169333Y-38381449D01*
X126818123Y-38440785D01*
X126331150Y-38565439D01*
X125882034Y-38782025D01*
X125582820Y-38981794D01*
X125292910Y-39242853D01*
X125009235Y-39582731D01*
X124769564Y-39948015D01*
X124611668Y-40285290D01*
X124579925Y-40400102D01*
X124541836Y-40554651D01*
X124476649Y-40629126D01*
X124337089Y-40644493D01*
X124079362Y-40622074D01*
X123889566Y-40608301D01*
X123720129Y-40617918D01*
X123536381Y-40661839D01*
X123303651Y-40750975D01*
X122987270Y-40896240D01*
X122585699Y-41092197D01*
X122156554Y-41300234D01*
X121738569Y-41496489D01*
X121376700Y-41660254D01*
X121115903Y-41770817D01*
X121094500Y-41779156D01*
X120650000Y-41949862D01*
X120650000Y-40516952D01*
X120650000Y-39084042D01*
X121052166Y-39024060D01*
X121639648Y-38870012D01*
X122160961Y-38605021D01*
X122595799Y-38250181D01*
X122923858Y-37826588D01*
X123124832Y-37355335D01*
X123178417Y-36857518D01*
X123175785Y-36817891D01*
X123146446Y-36449000D01*
X128248223Y-36449000D01*
X133350000Y-36449000D01*
X133350000Y-36449000D01*
X133350000Y-36449000D01*
G37*
X133350000Y-36449000D02*
X133342364Y-39179500D01*
X133338041Y-39954221D01*
X133329920Y-40593411D01*
X133318217Y-41090526D01*
X133303150Y-41439025D01*
X133284937Y-41632365D01*
X133263794Y-41664004D01*
X133260074Y-41653350D01*
X133070103Y-41287213D01*
X132754746Y-41002869D01*
X132347069Y-40822390D01*
X131932164Y-40767000D01*
X131658011Y-40810884D01*
X131293298Y-40931835D01*
X130987667Y-41065032D01*
X130631328Y-41223777D01*
X130393129Y-41287965D01*
X130245805Y-41249827D01*
X130162094Y-41101596D01*
X130114734Y-40835503D01*
X130112456Y-40815645D01*
X129968407Y-40253246D01*
X129682376Y-39719193D01*
X129281710Y-39241377D01*
X128793760Y-38847690D01*
X128245874Y-38566024D01*
X127783166Y-38440151D01*
X127423333Y-38381449D01*
X127423333Y-37796224D01*
X127415702Y-37476531D01*
X127388292Y-37294443D01*
X127334326Y-37218729D01*
X127296333Y-37211000D01*
X127226956Y-37246162D01*
X127187441Y-37372469D01*
X127171010Y-37621149D01*
X127169333Y-37796224D01*
X127169333Y-38381449D01*
X126818123Y-38440785D01*
X126331150Y-38565439D01*
X125882034Y-38782025D01*
X125582820Y-38981794D01*
X125292910Y-39242853D01*
X125009235Y-39582731D01*
X124769564Y-39948015D01*
X124611668Y-40285290D01*
X124579925Y-40400102D01*
X124541836Y-40554651D01*
X124476649Y-40629126D01*
X124337089Y-40644493D01*
X124079362Y-40622074D01*
X123889566Y-40608301D01*
X123720129Y-40617918D01*
X123536381Y-40661839D01*
X123303651Y-40750975D01*
X122987270Y-40896240D01*
X122585699Y-41092197D01*
X122156554Y-41300234D01*
X121738569Y-41496489D01*
X121376700Y-41660254D01*
X121115903Y-41770817D01*
X121094500Y-41779156D01*
X120650000Y-41949862D01*
X120650000Y-40516952D01*
X120650000Y-39084042D01*
X121052166Y-39024060D01*
X121639648Y-38870012D01*
X122160961Y-38605021D01*
X122595799Y-38250181D01*
X122923858Y-37826588D01*
X123124832Y-37355335D01*
X123178417Y-36857518D01*
X123175785Y-36817891D01*
X123146446Y-36449000D01*
X128248223Y-36449000D01*
X133350000Y-36449000D01*
X133350000Y-36449000D01*
G36*
X129775091Y-40622962D02*
X129742605Y-40637170D01*
X129630231Y-40546687D01*
X129482437Y-40407166D01*
X129215450Y-40191026D01*
X128974172Y-40106330D01*
X128717188Y-40152568D01*
X128403080Y-40329234D01*
X128312062Y-40392797D01*
X128041096Y-40579590D01*
X127788070Y-40741917D01*
X127656166Y-40818305D01*
X127423333Y-40940681D01*
X127423333Y-40557507D01*
X127431990Y-40321553D01*
X127474630Y-40209434D01*
X127576255Y-40175891D01*
X127635000Y-40174333D01*
X127794269Y-40157778D01*
X127846666Y-40126088D01*
X127802955Y-40034364D01*
X127694539Y-39861221D01*
X127555494Y-39656098D01*
X127419898Y-39468433D01*
X127321828Y-39347664D01*
X127296333Y-39327666D01*
X127233110Y-39391082D01*
X127113766Y-39548372D01*
X126972380Y-39750097D01*
X126843026Y-39946819D01*
X126759783Y-40089100D01*
X126746000Y-40126088D01*
X126818632Y-40162390D01*
X126957666Y-40174333D01*
X127078788Y-40186384D01*
X127141917Y-40250132D01*
X127165826Y-40406971D01*
X127169333Y-40641067D01*
X127169333Y-41107801D01*
X126693131Y-41318400D01*
X126434451Y-41428513D01*
X126241169Y-41502839D01*
X126163964Y-41523984D01*
X126070340Y-41484167D01*
X125865081Y-41381990D01*
X125585234Y-41236133D01*
X125450291Y-41164151D01*
X125135596Y-40992278D01*
X124943463Y-40871532D01*
X124846740Y-40773913D01*
X124818280Y-40671425D01*
X124830933Y-40536068D01*
X124832320Y-40526859D01*
X124903065Y-40294870D01*
X125038125Y-40006112D01*
X125141009Y-39829938D01*
X125543280Y-39342257D01*
X126021232Y-38988447D01*
X126551491Y-38765046D01*
X127110679Y-38668589D01*
X127675420Y-38695612D01*
X128222338Y-38842650D01*
X128728057Y-39106239D01*
X129169200Y-39482916D01*
X129522392Y-39969216D01*
X129750310Y-40513000D01*
X129775091Y-40622962D01*
X129775091Y-40622962D01*
X129775091Y-40622962D01*
G37*
X129775091Y-40622962D02*
X129742605Y-40637170D01*
X129630231Y-40546687D01*
X129482437Y-40407166D01*
X129215450Y-40191026D01*
X128974172Y-40106330D01*
X128717188Y-40152568D01*
X128403080Y-40329234D01*
X128312062Y-40392797D01*
X128041096Y-40579590D01*
X127788070Y-40741917D01*
X127656166Y-40818305D01*
X127423333Y-40940681D01*
X127423333Y-40557507D01*
X127431990Y-40321553D01*
X127474630Y-40209434D01*
X127576255Y-40175891D01*
X127635000Y-40174333D01*
X127794269Y-40157778D01*
X127846666Y-40126088D01*
X127802955Y-40034364D01*
X127694539Y-39861221D01*
X127555494Y-39656098D01*
X127419898Y-39468433D01*
X127321828Y-39347664D01*
X127296333Y-39327666D01*
X127233110Y-39391082D01*
X127113766Y-39548372D01*
X126972380Y-39750097D01*
X126843026Y-39946819D01*
X126759783Y-40089100D01*
X126746000Y-40126088D01*
X126818632Y-40162390D01*
X126957666Y-40174333D01*
X127078788Y-40186384D01*
X127141917Y-40250132D01*
X127165826Y-40406971D01*
X127169333Y-40641067D01*
X127169333Y-41107801D01*
X126693131Y-41318400D01*
X126434451Y-41428513D01*
X126241169Y-41502839D01*
X126163964Y-41523984D01*
X126070340Y-41484167D01*
X125865081Y-41381990D01*
X125585234Y-41236133D01*
X125450291Y-41164151D01*
X125135596Y-40992278D01*
X124943463Y-40871532D01*
X124846740Y-40773913D01*
X124818280Y-40671425D01*
X124830933Y-40536068D01*
X124832320Y-40526859D01*
X124903065Y-40294870D01*
X125038125Y-40006112D01*
X125141009Y-39829938D01*
X125543280Y-39342257D01*
X126021232Y-38988447D01*
X126551491Y-38765046D01*
X127110679Y-38668589D01*
X127675420Y-38695612D01*
X128222338Y-38842650D01*
X128728057Y-39106239D01*
X129169200Y-39482916D01*
X129522392Y-39969216D01*
X129750310Y-40513000D01*
X129775091Y-40622962D01*
X129775091Y-40622962D01*
D12*
X120975381Y-60491476D02*
X119975381Y-60491476D01*
X119975381Y-60253381D01*
X120023000Y-60110523D01*
X120118238Y-60015285D01*
X120213476Y-59967666D01*
X120403952Y-59920047D01*
X120546810Y-59920047D01*
X120737286Y-59967666D01*
X120832524Y-60015285D01*
X120927762Y-60110523D01*
X120975381Y-60253381D01*
X120975381Y-60491476D01*
X120070619Y-59539095D02*
X120023000Y-59491476D01*
X119975381Y-59396238D01*
X119975381Y-59158142D01*
X120023000Y-59062904D01*
X120070619Y-59015285D01*
X120165857Y-58967666D01*
X120261095Y-58967666D01*
X120403952Y-59015285D01*
X120975381Y-59586714D01*
X120975381Y-58967666D01*
X119975381Y-58348619D02*
X119975381Y-58253380D01*
X120023000Y-58158142D01*
X120070619Y-58110523D01*
X120165857Y-58062904D01*
X120356333Y-58015285D01*
X120594429Y-58015285D01*
X120784905Y-58062904D01*
X120880143Y-58110523D01*
X120927762Y-58158142D01*
X120975381Y-58253380D01*
X120975381Y-58348619D01*
X120927762Y-58443857D01*
X120880143Y-58491476D01*
X120784905Y-58539095D01*
X120594429Y-58586714D01*
X120356333Y-58586714D01*
X120165857Y-58539095D01*
X120070619Y-58491476D01*
X120023000Y-58443857D01*
X119975381Y-58348619D01*
X120975381Y-57062904D02*
X120975381Y-57634333D01*
X120975381Y-57348619D02*
X119975381Y-57348619D01*
X120118238Y-57443857D01*
X120213476Y-57539095D01*
X120261095Y-57634333D01*
X130905381Y-55538619D02*
X130810143Y-55491000D01*
X130714905Y-55395762D01*
X130572048Y-55252905D01*
X130476809Y-55205286D01*
X130381571Y-55205286D01*
X130429190Y-55443381D02*
X130333952Y-55395762D01*
X130238714Y-55300524D01*
X130191095Y-55110048D01*
X130191095Y-54776714D01*
X130238714Y-54586238D01*
X130333952Y-54491000D01*
X130429190Y-54443381D01*
X130619667Y-54443381D01*
X130714905Y-54491000D01*
X130810143Y-54586238D01*
X130857762Y-54776714D01*
X130857762Y-55110048D01*
X130810143Y-55300524D01*
X130714905Y-55395762D01*
X130619667Y-55443381D01*
X130429190Y-55443381D01*
X131714905Y-54776714D02*
X131714905Y-55443381D01*
X131476809Y-54395762D02*
X131238714Y-55110048D01*
X131857762Y-55110048D01*
X132429190Y-54443381D02*
X132524429Y-54443381D01*
X132619667Y-54491000D01*
X132667286Y-54538619D01*
X132714905Y-54633857D01*
X132762524Y-54824333D01*
X132762524Y-55062429D01*
X132714905Y-55252905D01*
X132667286Y-55348143D01*
X132619667Y-55395762D01*
X132524429Y-55443381D01*
X132429190Y-55443381D01*
X132333952Y-55395762D01*
X132286333Y-55348143D01*
X132238714Y-55252905D01*
X132191095Y-55062429D01*
X132191095Y-54824333D01*
X132238714Y-54633857D01*
X132286333Y-54538619D01*
X132333952Y-54491000D01*
X132429190Y-54443381D01*
X133714905Y-55443381D02*
X133143476Y-55443381D01*
X133429190Y-55443381D02*
X133429190Y-54443381D01*
X133333952Y-54586238D01*
X133238714Y-54681476D01*
X133143476Y-54729095D01*
X128492286Y-51331762D02*
X128635143Y-51379381D01*
X128873239Y-51379381D01*
X128968477Y-51331762D01*
X129016096Y-51284143D01*
X129063715Y-51188905D01*
X129063715Y-51093667D01*
X129016096Y-50998429D01*
X128968477Y-50950810D01*
X128873239Y-50903190D01*
X128682762Y-50855571D01*
X128587524Y-50807952D01*
X128539905Y-50760333D01*
X128492286Y-50665095D01*
X128492286Y-50569857D01*
X128539905Y-50474619D01*
X128587524Y-50427000D01*
X128682762Y-50379381D01*
X128920858Y-50379381D01*
X129063715Y-50427000D01*
X125976095Y-51379381D02*
X125976095Y-50379381D01*
X126214190Y-50379381D01*
X126357048Y-50427000D01*
X126452286Y-50522238D01*
X126499905Y-50617476D01*
X126547524Y-50807952D01*
X126547524Y-50950810D01*
X126499905Y-51141286D01*
X126452286Y-51236524D01*
X126357048Y-51331762D01*
X126214190Y-51379381D01*
X125976095Y-51379381D01*
X123832905Y-50427000D02*
X123737667Y-50379381D01*
X123594810Y-50379381D01*
X123451952Y-50427000D01*
X123356714Y-50522238D01*
X123309095Y-50617476D01*
X123261476Y-50807952D01*
X123261476Y-50950810D01*
X123309095Y-51141286D01*
X123356714Y-51236524D01*
X123451952Y-51331762D01*
X123594810Y-51379381D01*
X123690048Y-51379381D01*
X123832905Y-51331762D01*
X123880524Y-51284143D01*
X123880524Y-50950810D01*
X123690048Y-50950810D01*
X109497953Y-62936381D02*
X109164619Y-62460190D01*
X108926524Y-62936381D02*
X108926524Y-61936381D01*
X109307477Y-61936381D01*
X109402715Y-61984000D01*
X109450334Y-62031619D01*
X109497953Y-62126857D01*
X109497953Y-62269714D01*
X109450334Y-62364952D01*
X109402715Y-62412571D01*
X109307477Y-62460190D01*
X108926524Y-62460190D01*
X109878905Y-62031619D02*
X109926524Y-61984000D01*
X110021762Y-61936381D01*
X110259858Y-61936381D01*
X110355096Y-61984000D01*
X110402715Y-62031619D01*
X110450334Y-62126857D01*
X110450334Y-62222095D01*
X110402715Y-62364952D01*
X109831286Y-62936381D01*
X110450334Y-62936381D01*
X111069381Y-61936381D02*
X111164620Y-61936381D01*
X111259858Y-61984000D01*
X111307477Y-62031619D01*
X111355096Y-62126857D01*
X111402715Y-62317333D01*
X111402715Y-62555429D01*
X111355096Y-62745905D01*
X111307477Y-62841143D01*
X111259858Y-62888762D01*
X111164620Y-62936381D01*
X111069381Y-62936381D01*
X110974143Y-62888762D01*
X110926524Y-62841143D01*
X110878905Y-62745905D01*
X110831286Y-62555429D01*
X110831286Y-62317333D01*
X110878905Y-62126857D01*
X110926524Y-62031619D01*
X110974143Y-61984000D01*
X111069381Y-61936381D01*
X112355096Y-62936381D02*
X111783667Y-62936381D01*
X112069381Y-62936381D02*
X112069381Y-61936381D01*
X111974143Y-62079238D01*
X111878905Y-62174476D01*
X111783667Y-62222095D01*
X107846953Y-71318381D02*
X107513619Y-70842190D01*
X107275524Y-71318381D02*
X107275524Y-70318381D01*
X107656477Y-70318381D01*
X107751715Y-70366000D01*
X107799334Y-70413619D01*
X107846953Y-70508857D01*
X107846953Y-70651714D01*
X107799334Y-70746952D01*
X107751715Y-70794571D01*
X107656477Y-70842190D01*
X107275524Y-70842190D01*
X108227905Y-70413619D02*
X108275524Y-70366000D01*
X108370762Y-70318381D01*
X108608858Y-70318381D01*
X108704096Y-70366000D01*
X108751715Y-70413619D01*
X108799334Y-70508857D01*
X108799334Y-70604095D01*
X108751715Y-70746952D01*
X108180286Y-71318381D01*
X108799334Y-71318381D01*
X109418381Y-70318381D02*
X109513620Y-70318381D01*
X109608858Y-70366000D01*
X109656477Y-70413619D01*
X109704096Y-70508857D01*
X109751715Y-70699333D01*
X109751715Y-70937429D01*
X109704096Y-71127905D01*
X109656477Y-71223143D01*
X109608858Y-71270762D01*
X109513620Y-71318381D01*
X109418381Y-71318381D01*
X109323143Y-71270762D01*
X109275524Y-71223143D01*
X109227905Y-71127905D01*
X109180286Y-70937429D01*
X109180286Y-70699333D01*
X109227905Y-70508857D01*
X109275524Y-70413619D01*
X109323143Y-70366000D01*
X109418381Y-70318381D01*
X110132667Y-70413619D02*
X110180286Y-70366000D01*
X110275524Y-70318381D01*
X110513620Y-70318381D01*
X110608858Y-70366000D01*
X110656477Y-70413619D01*
X110704096Y-70508857D01*
X110704096Y-70604095D01*
X110656477Y-70746952D01*
X110085048Y-71318381D01*
X110704096Y-71318381D01*
X108402381Y-68429047D02*
X107926190Y-68762381D01*
X108402381Y-69000476D02*
X107402381Y-69000476D01*
X107402381Y-68619523D01*
X107450000Y-68524285D01*
X107497619Y-68476666D01*
X107592857Y-68429047D01*
X107735714Y-68429047D01*
X107830952Y-68476666D01*
X107878571Y-68524285D01*
X107926190Y-68619523D01*
X107926190Y-69000476D01*
X107497619Y-68048095D02*
X107450000Y-68000476D01*
X107402381Y-67905238D01*
X107402381Y-67667142D01*
X107450000Y-67571904D01*
X107497619Y-67524285D01*
X107592857Y-67476666D01*
X107688095Y-67476666D01*
X107830952Y-67524285D01*
X108402381Y-68095714D01*
X108402381Y-67476666D01*
X107402381Y-66857619D02*
X107402381Y-66762380D01*
X107450000Y-66667142D01*
X107497619Y-66619523D01*
X107592857Y-66571904D01*
X107783333Y-66524285D01*
X108021429Y-66524285D01*
X108211905Y-66571904D01*
X108307143Y-66619523D01*
X108354762Y-66667142D01*
X108402381Y-66762380D01*
X108402381Y-66857619D01*
X108354762Y-66952857D01*
X108307143Y-67000476D01*
X108211905Y-67048095D01*
X108021429Y-67095714D01*
X107783333Y-67095714D01*
X107592857Y-67048095D01*
X107497619Y-67000476D01*
X107450000Y-66952857D01*
X107402381Y-66857619D01*
X107402381Y-66190952D02*
X107402381Y-65571904D01*
X107783333Y-65905238D01*
X107783333Y-65762380D01*
X107830952Y-65667142D01*
X107878571Y-65619523D01*
X107973810Y-65571904D01*
X108211905Y-65571904D01*
X108307143Y-65619523D01*
X108354762Y-65667142D01*
X108402381Y-65762380D01*
X108402381Y-66048095D01*
X108354762Y-66143333D01*
X108307143Y-66190952D01*
X135199381Y-76938047D02*
X134723190Y-77271381D01*
X135199381Y-77509476D02*
X134199381Y-77509476D01*
X134199381Y-77128523D01*
X134247000Y-77033285D01*
X134294619Y-76985666D01*
X134389857Y-76938047D01*
X134532714Y-76938047D01*
X134627952Y-76985666D01*
X134675571Y-77033285D01*
X134723190Y-77128523D01*
X134723190Y-77509476D01*
X134199381Y-76604714D02*
X134199381Y-75985666D01*
X134580333Y-76319000D01*
X134580333Y-76176142D01*
X134627952Y-76080904D01*
X134675571Y-76033285D01*
X134770810Y-75985666D01*
X135008905Y-75985666D01*
X135104143Y-76033285D01*
X135151762Y-76080904D01*
X135199381Y-76176142D01*
X135199381Y-76461857D01*
X135151762Y-76557095D01*
X135104143Y-76604714D01*
X134199381Y-75366619D02*
X134199381Y-75271380D01*
X134247000Y-75176142D01*
X134294619Y-75128523D01*
X134389857Y-75080904D01*
X134580333Y-75033285D01*
X134818429Y-75033285D01*
X135008905Y-75080904D01*
X135104143Y-75128523D01*
X135151762Y-75176142D01*
X135199381Y-75271380D01*
X135199381Y-75366619D01*
X135151762Y-75461857D01*
X135104143Y-75509476D01*
X135008905Y-75557095D01*
X134818429Y-75604714D01*
X134580333Y-75604714D01*
X134389857Y-75557095D01*
X134294619Y-75509476D01*
X134247000Y-75461857D01*
X134199381Y-75366619D01*
X135199381Y-74080904D02*
X135199381Y-74652333D01*
X135199381Y-74366619D02*
X134199381Y-74366619D01*
X134342238Y-74461857D01*
X134437476Y-74557095D01*
X134485095Y-74652333D01*
X124531381Y-68937047D02*
X124055190Y-69270381D01*
X124531381Y-69508476D02*
X123531381Y-69508476D01*
X123531381Y-69127523D01*
X123579000Y-69032285D01*
X123626619Y-68984666D01*
X123721857Y-68937047D01*
X123864714Y-68937047D01*
X123959952Y-68984666D01*
X124007571Y-69032285D01*
X124055190Y-69127523D01*
X124055190Y-69508476D01*
X123531381Y-68603714D02*
X123531381Y-67984666D01*
X123912333Y-68318000D01*
X123912333Y-68175142D01*
X123959952Y-68079904D01*
X124007571Y-68032285D01*
X124102810Y-67984666D01*
X124340905Y-67984666D01*
X124436143Y-68032285D01*
X124483762Y-68079904D01*
X124531381Y-68175142D01*
X124531381Y-68460857D01*
X124483762Y-68556095D01*
X124436143Y-68603714D01*
X123531381Y-67365619D02*
X123531381Y-67270380D01*
X123579000Y-67175142D01*
X123626619Y-67127523D01*
X123721857Y-67079904D01*
X123912333Y-67032285D01*
X124150429Y-67032285D01*
X124340905Y-67079904D01*
X124436143Y-67127523D01*
X124483762Y-67175142D01*
X124531381Y-67270380D01*
X124531381Y-67365619D01*
X124483762Y-67460857D01*
X124436143Y-67508476D01*
X124340905Y-67556095D01*
X124150429Y-67603714D01*
X123912333Y-67603714D01*
X123721857Y-67556095D01*
X123626619Y-67508476D01*
X123579000Y-67460857D01*
X123531381Y-67365619D01*
X123626619Y-66651333D02*
X123579000Y-66603714D01*
X123531381Y-66508476D01*
X123531381Y-66270380D01*
X123579000Y-66175142D01*
X123626619Y-66127523D01*
X123721857Y-66079904D01*
X123817095Y-66079904D01*
X123959952Y-66127523D01*
X124531381Y-66698952D01*
X124531381Y-66079904D01*
X121864381Y-70588047D02*
X121388190Y-70921381D01*
X121864381Y-71159476D02*
X120864381Y-71159476D01*
X120864381Y-70778523D01*
X120912000Y-70683285D01*
X120959619Y-70635666D01*
X121054857Y-70588047D01*
X121197714Y-70588047D01*
X121292952Y-70635666D01*
X121340571Y-70683285D01*
X121388190Y-70778523D01*
X121388190Y-71159476D01*
X120864381Y-70254714D02*
X120864381Y-69635666D01*
X121245333Y-69969000D01*
X121245333Y-69826142D01*
X121292952Y-69730904D01*
X121340571Y-69683285D01*
X121435810Y-69635666D01*
X121673905Y-69635666D01*
X121769143Y-69683285D01*
X121816762Y-69730904D01*
X121864381Y-69826142D01*
X121864381Y-70111857D01*
X121816762Y-70207095D01*
X121769143Y-70254714D01*
X120864381Y-69016619D02*
X120864381Y-68921380D01*
X120912000Y-68826142D01*
X120959619Y-68778523D01*
X121054857Y-68730904D01*
X121245333Y-68683285D01*
X121483429Y-68683285D01*
X121673905Y-68730904D01*
X121769143Y-68778523D01*
X121816762Y-68826142D01*
X121864381Y-68921380D01*
X121864381Y-69016619D01*
X121816762Y-69111857D01*
X121769143Y-69159476D01*
X121673905Y-69207095D01*
X121483429Y-69254714D01*
X121245333Y-69254714D01*
X121054857Y-69207095D01*
X120959619Y-69159476D01*
X120912000Y-69111857D01*
X120864381Y-69016619D01*
X120864381Y-68349952D02*
X120864381Y-67730904D01*
X121245333Y-68064238D01*
X121245333Y-67921380D01*
X121292952Y-67826142D01*
X121340571Y-67778523D01*
X121435810Y-67730904D01*
X121673905Y-67730904D01*
X121769143Y-67778523D01*
X121816762Y-67826142D01*
X121864381Y-67921380D01*
X121864381Y-68207095D01*
X121816762Y-68302333D01*
X121769143Y-68349952D01*
X126182381Y-60047047D02*
X125706190Y-60380381D01*
X126182381Y-60618476D02*
X125182381Y-60618476D01*
X125182381Y-60237523D01*
X125230000Y-60142285D01*
X125277619Y-60094666D01*
X125372857Y-60047047D01*
X125515714Y-60047047D01*
X125610952Y-60094666D01*
X125658571Y-60142285D01*
X125706190Y-60237523D01*
X125706190Y-60618476D01*
X125515714Y-59189904D02*
X126182381Y-59189904D01*
X125134762Y-59428000D02*
X125849048Y-59666095D01*
X125849048Y-59047047D01*
X125182381Y-58475619D02*
X125182381Y-58380380D01*
X125230000Y-58285142D01*
X125277619Y-58237523D01*
X125372857Y-58189904D01*
X125563333Y-58142285D01*
X125801429Y-58142285D01*
X125991905Y-58189904D01*
X126087143Y-58237523D01*
X126134762Y-58285142D01*
X126182381Y-58380380D01*
X126182381Y-58475619D01*
X126134762Y-58570857D01*
X126087143Y-58618476D01*
X125991905Y-58666095D01*
X125801429Y-58713714D01*
X125563333Y-58713714D01*
X125372857Y-58666095D01*
X125277619Y-58618476D01*
X125230000Y-58570857D01*
X125182381Y-58475619D01*
X125277619Y-57761333D02*
X125230000Y-57713714D01*
X125182381Y-57618476D01*
X125182381Y-57380380D01*
X125230000Y-57285142D01*
X125277619Y-57237523D01*
X125372857Y-57189904D01*
X125468095Y-57189904D01*
X125610952Y-57237523D01*
X126182381Y-57808952D01*
X126182381Y-57189904D01*
X128936833Y-62266596D02*
X129037848Y-61694175D01*
X128532771Y-61862535D02*
X129239878Y-61155428D01*
X129509253Y-61424802D01*
X129542924Y-61525817D01*
X129542924Y-61593161D01*
X129509253Y-61694176D01*
X129408237Y-61795191D01*
X129307222Y-61828863D01*
X129239879Y-61828863D01*
X129138864Y-61795191D01*
X128869489Y-61525817D01*
X130014329Y-62401283D02*
X129542924Y-62872688D01*
X130115343Y-61963550D02*
X129441908Y-62300268D01*
X129879641Y-62738001D01*
X130755107Y-62670657D02*
X130822451Y-62738001D01*
X130856123Y-62839016D01*
X130856123Y-62906359D01*
X130822451Y-63007374D01*
X130721436Y-63175733D01*
X130553076Y-63344092D01*
X130384718Y-63445107D01*
X130283703Y-63478779D01*
X130216359Y-63478779D01*
X130115344Y-63445107D01*
X130048000Y-63377763D01*
X130014328Y-63276748D01*
X130014328Y-63209405D01*
X130048000Y-63108390D01*
X130149015Y-62940031D01*
X130317374Y-62771672D01*
X130485733Y-62670657D01*
X130586748Y-62636985D01*
X130654092Y-62636985D01*
X130755107Y-62670657D01*
X131226512Y-63142061D02*
X131664245Y-63579794D01*
X131159168Y-63613465D01*
X131260184Y-63714481D01*
X131293856Y-63815496D01*
X131293856Y-63882840D01*
X131260183Y-63983856D01*
X131091825Y-64152214D01*
X130990810Y-64185886D01*
X130923466Y-64185886D01*
X130822451Y-64152214D01*
X130620420Y-63950183D01*
X130586748Y-63849168D01*
X130586748Y-63781825D01*
X114363714Y-63841381D02*
X114363714Y-64650905D01*
X114411333Y-64746143D01*
X114458952Y-64793762D01*
X114554190Y-64841381D01*
X114744667Y-64841381D01*
X114839905Y-64793762D01*
X114887524Y-64746143D01*
X114935143Y-64650905D01*
X114935143Y-63841381D01*
X115363714Y-63936619D02*
X115411333Y-63889000D01*
X115506571Y-63841381D01*
X115744667Y-63841381D01*
X115839905Y-63889000D01*
X115887524Y-63936619D01*
X115935143Y-64031857D01*
X115935143Y-64127095D01*
X115887524Y-64269952D01*
X115316095Y-64841381D01*
X115935143Y-64841381D01*
X116554190Y-63841381D02*
X116649429Y-63841381D01*
X116744667Y-63889000D01*
X116792286Y-63936619D01*
X116839905Y-64031857D01*
X116887524Y-64222333D01*
X116887524Y-64460429D01*
X116839905Y-64650905D01*
X116792286Y-64746143D01*
X116744667Y-64793762D01*
X116649429Y-64841381D01*
X116554190Y-64841381D01*
X116458952Y-64793762D01*
X116411333Y-64746143D01*
X116363714Y-64650905D01*
X116316095Y-64460429D01*
X116316095Y-64222333D01*
X116363714Y-64031857D01*
X116411333Y-63936619D01*
X116458952Y-63889000D01*
X116554190Y-63841381D01*
X117839905Y-64841381D02*
X117268476Y-64841381D01*
X117554190Y-64841381D02*
X117554190Y-63841381D01*
X117458952Y-63984238D01*
X117363714Y-64079476D01*
X117268476Y-64127095D01*
X127698714Y-66635381D02*
X127698714Y-67444905D01*
X127746333Y-67540143D01*
X127793952Y-67587762D01*
X127889190Y-67635381D01*
X128079667Y-67635381D01*
X128174905Y-67587762D01*
X128222524Y-67540143D01*
X128270143Y-67444905D01*
X128270143Y-66635381D01*
X128651095Y-66635381D02*
X129270143Y-66635381D01*
X128936809Y-67016333D01*
X129079667Y-67016333D01*
X129174905Y-67063952D01*
X129222524Y-67111571D01*
X129270143Y-67206810D01*
X129270143Y-67444905D01*
X129222524Y-67540143D01*
X129174905Y-67587762D01*
X129079667Y-67635381D01*
X128793952Y-67635381D01*
X128698714Y-67587762D01*
X128651095Y-67540143D01*
X129889190Y-66635381D02*
X129984429Y-66635381D01*
X130079667Y-66683000D01*
X130127286Y-66730619D01*
X130174905Y-66825857D01*
X130222524Y-67016333D01*
X130222524Y-67254429D01*
X130174905Y-67444905D01*
X130127286Y-67540143D01*
X130079667Y-67587762D01*
X129984429Y-67635381D01*
X129889190Y-67635381D01*
X129793952Y-67587762D01*
X129746333Y-67540143D01*
X129698714Y-67444905D01*
X129651095Y-67254429D01*
X129651095Y-67016333D01*
X129698714Y-66825857D01*
X129746333Y-66730619D01*
X129793952Y-66683000D01*
X129889190Y-66635381D01*
X131174905Y-67635381D02*
X130603476Y-67635381D01*
X130889190Y-67635381D02*
X130889190Y-66635381D01*
X130793952Y-66778238D01*
X130698714Y-66873476D01*
X130603476Y-66921095D01*
X138374381Y-82462476D02*
X137374381Y-82462476D01*
X137374381Y-82081523D01*
X137422000Y-81986285D01*
X137469619Y-81938666D01*
X137564857Y-81891047D01*
X137707714Y-81891047D01*
X137802952Y-81938666D01*
X137850571Y-81986285D01*
X137898190Y-82081523D01*
X137898190Y-82462476D01*
X138374381Y-80938666D02*
X138374381Y-81510095D01*
X138374381Y-81224381D02*
X137374381Y-81224381D01*
X137517238Y-81319619D01*
X137612476Y-81414857D01*
X137660095Y-81510095D01*
X137374381Y-80319619D02*
X137374381Y-80224380D01*
X137422000Y-80129142D01*
X137469619Y-80081523D01*
X137564857Y-80033904D01*
X137755333Y-79986285D01*
X137993429Y-79986285D01*
X138183905Y-80033904D01*
X138279143Y-80081523D01*
X138326762Y-80129142D01*
X138374381Y-80224380D01*
X138374381Y-80319619D01*
X138326762Y-80414857D01*
X138279143Y-80462476D01*
X138183905Y-80510095D01*
X137993429Y-80557714D01*
X137755333Y-80557714D01*
X137564857Y-80510095D01*
X137469619Y-80462476D01*
X137422000Y-80414857D01*
X137374381Y-80319619D01*
X138374381Y-79033904D02*
X138374381Y-79605333D01*
X138374381Y-79319619D02*
X137374381Y-79319619D01*
X137517238Y-79414857D01*
X137612476Y-79510095D01*
X137660095Y-79605333D01*
X138628381Y-64682476D02*
X137628381Y-64682476D01*
X137628381Y-64301523D01*
X137676000Y-64206285D01*
X137723619Y-64158666D01*
X137818857Y-64111047D01*
X137961714Y-64111047D01*
X138056952Y-64158666D01*
X138104571Y-64206285D01*
X138152190Y-64301523D01*
X138152190Y-64682476D01*
X138628381Y-63158666D02*
X138628381Y-63730095D01*
X138628381Y-63444381D02*
X137628381Y-63444381D01*
X137771238Y-63539619D01*
X137866476Y-63634857D01*
X137914095Y-63730095D01*
X137628381Y-62539619D02*
X137628381Y-62444380D01*
X137676000Y-62349142D01*
X137723619Y-62301523D01*
X137818857Y-62253904D01*
X138009333Y-62206285D01*
X138247429Y-62206285D01*
X138437905Y-62253904D01*
X138533143Y-62301523D01*
X138580762Y-62349142D01*
X138628381Y-62444380D01*
X138628381Y-62539619D01*
X138580762Y-62634857D01*
X138533143Y-62682476D01*
X138437905Y-62730095D01*
X138247429Y-62777714D01*
X138009333Y-62777714D01*
X137818857Y-62730095D01*
X137723619Y-62682476D01*
X137676000Y-62634857D01*
X137628381Y-62539619D01*
X137628381Y-61872952D02*
X137628381Y-61253904D01*
X138009333Y-61587238D01*
X138009333Y-61444380D01*
X138056952Y-61349142D01*
X138104571Y-61301523D01*
X138199810Y-61253904D01*
X138437905Y-61253904D01*
X138533143Y-61301523D01*
X138580762Y-61349142D01*
X138628381Y-61444380D01*
X138628381Y-61730095D01*
X138580762Y-61825333D01*
X138533143Y-61872952D01*
X135580381Y-70016476D02*
X134580381Y-70016476D01*
X134580381Y-69635523D01*
X134628000Y-69540285D01*
X134675619Y-69492666D01*
X134770857Y-69445047D01*
X134913714Y-69445047D01*
X135008952Y-69492666D01*
X135056571Y-69540285D01*
X135104190Y-69635523D01*
X135104190Y-70016476D01*
X135580381Y-68492666D02*
X135580381Y-69064095D01*
X135580381Y-68778381D02*
X134580381Y-68778381D01*
X134723238Y-68873619D01*
X134818476Y-68968857D01*
X134866095Y-69064095D01*
X134580381Y-67873619D02*
X134580381Y-67778380D01*
X134628000Y-67683142D01*
X134675619Y-67635523D01*
X134770857Y-67587904D01*
X134961333Y-67540285D01*
X135199429Y-67540285D01*
X135389905Y-67587904D01*
X135485143Y-67635523D01*
X135532762Y-67683142D01*
X135580381Y-67778380D01*
X135580381Y-67873619D01*
X135532762Y-67968857D01*
X135485143Y-68016476D01*
X135389905Y-68064095D01*
X135199429Y-68111714D01*
X134961333Y-68111714D01*
X134770857Y-68064095D01*
X134675619Y-68016476D01*
X134628000Y-67968857D01*
X134580381Y-67873619D01*
X134675619Y-67159333D02*
X134628000Y-67111714D01*
X134580381Y-67016476D01*
X134580381Y-66778380D01*
X134628000Y-66683142D01*
X134675619Y-66635523D01*
X134770857Y-66587904D01*
X134866095Y-66587904D01*
X135008952Y-66635523D01*
X135580381Y-67206952D01*
X135580381Y-66587904D01*
X119966619Y-82090381D02*
X119482810Y-82429047D01*
X119966619Y-82670952D02*
X118950619Y-82670952D01*
X118950619Y-82283905D01*
X118999000Y-82187143D01*
X119047381Y-82138762D01*
X119144143Y-82090381D01*
X119289286Y-82090381D01*
X119386048Y-82138762D01*
X119434429Y-82187143D01*
X119482810Y-82283905D01*
X119482810Y-82670952D01*
X118950619Y-81800095D02*
X119966619Y-81461428D01*
X118950619Y-81122762D01*
X119047381Y-80832476D02*
X118999000Y-80784095D01*
X118950619Y-80687333D01*
X118950619Y-80445429D01*
X118999000Y-80348667D01*
X119047381Y-80300286D01*
X119144143Y-80251905D01*
X119240905Y-80251905D01*
X119386048Y-80300286D01*
X119966619Y-80880857D01*
X119966619Y-80251905D01*
X118950619Y-79622952D02*
X118950619Y-79526191D01*
X118999000Y-79429429D01*
X119047381Y-79381048D01*
X119144143Y-79332667D01*
X119337667Y-79284286D01*
X119579571Y-79284286D01*
X119773095Y-79332667D01*
X119869857Y-79381048D01*
X119918238Y-79429429D01*
X119966619Y-79526191D01*
X119966619Y-79622952D01*
X119918238Y-79719714D01*
X119869857Y-79768095D01*
X119773095Y-79816476D01*
X119579571Y-79864857D01*
X119337667Y-79864857D01*
X119144143Y-79816476D01*
X119047381Y-79768095D01*
X118999000Y-79719714D01*
X118950619Y-79622952D01*
X119966619Y-78316667D02*
X119966619Y-78897238D01*
X119966619Y-78606952D02*
X118950619Y-78606952D01*
X119095762Y-78703714D01*
X119192524Y-78800476D01*
X119240905Y-78897238D01*
X133809619Y-82344381D02*
X133325810Y-82683047D01*
X133809619Y-82924952D02*
X132793619Y-82924952D01*
X132793619Y-82537905D01*
X132842000Y-82441143D01*
X132890381Y-82392762D01*
X132987143Y-82344381D01*
X133132286Y-82344381D01*
X133229048Y-82392762D01*
X133277429Y-82441143D01*
X133325810Y-82537905D01*
X133325810Y-82924952D01*
X132793619Y-82054095D02*
X133809619Y-81715428D01*
X132793619Y-81376762D01*
X133132286Y-80602667D02*
X133809619Y-80602667D01*
X132745238Y-80844571D02*
X133470952Y-81086476D01*
X133470952Y-80457524D01*
X132793619Y-79876952D02*
X132793619Y-79780191D01*
X132842000Y-79683429D01*
X132890381Y-79635048D01*
X132987143Y-79586667D01*
X133180667Y-79538286D01*
X133422571Y-79538286D01*
X133616095Y-79586667D01*
X133712857Y-79635048D01*
X133761238Y-79683429D01*
X133809619Y-79780191D01*
X133809619Y-79876952D01*
X133761238Y-79973714D01*
X133712857Y-80022095D01*
X133616095Y-80070476D01*
X133422571Y-80118857D01*
X133180667Y-80118857D01*
X132987143Y-80070476D01*
X132890381Y-80022095D01*
X132842000Y-79973714D01*
X132793619Y-79876952D01*
X133809619Y-78570667D02*
X133809619Y-79151238D01*
X133809619Y-78860952D02*
X132793619Y-78860952D01*
X132938762Y-78957714D01*
X133035524Y-79054476D01*
X133083905Y-79151238D01*
%LPC*%
D13*
X121793000Y-58101000D03*
X121793000Y-59501000D03*
D14*
X127381000Y-52197000D03*
X124841000Y-52197000D03*
X129921000Y-52197000D03*
D15*
X111442500Y-64262000D03*
X109537500Y-64262000D03*
X112458500Y-72390000D03*
X110553500Y-72390000D03*
D16*
X109728000Y-68262500D03*
X109728000Y-66357500D03*
X134620000Y-73088500D03*
X134620000Y-71183500D03*
X123952000Y-70548500D03*
X123952000Y-72453500D03*
X121285000Y-72326500D03*
X121285000Y-74231500D03*
X124079000Y-57721500D03*
X124079000Y-59626500D03*
D17*
X126522699Y-55910699D03*
X137129301Y-66517301D03*
D18*
X119380000Y-65913000D03*
X119380000Y-67183000D03*
X119380000Y-68453000D03*
X119380000Y-69723000D03*
X113030000Y-69723000D03*
X113030000Y-68453000D03*
X113030000Y-67183000D03*
X113030000Y-65913000D03*
X132715000Y-68580000D03*
X132715000Y-69850000D03*
X132715000Y-71120000D03*
X132715000Y-72390000D03*
X126365000Y-72390000D03*
X126365000Y-71120000D03*
X126365000Y-69850000D03*
X126365000Y-68580000D03*
D19*
X114300000Y-48260000D03*
X139700000Y-48260000D03*
D20*
X143256000Y-80518000D03*
D21*
X143256000Y-75438000D03*
D20*
X143256000Y-69215000D03*
D21*
X143256000Y-64135000D03*
D22*
X137160000Y-74422000D03*
D23*
X137160000Y-71882000D03*
X137160000Y-69342000D03*
D24*
X116038000Y-79883000D03*
X113538000Y-79883000D03*
X111038000Y-79883000D03*
D25*
X118638000Y-76583000D03*
X108438000Y-76583000D03*
D24*
X130008000Y-79756000D03*
X127508000Y-79756000D03*
X125008000Y-79756000D03*
D25*
X132608000Y-76456000D03*
X122408000Y-76456000D03*
M02*
