G04 #@! TF.FileFunction,Copper,L2,Bot,Signal*
%FSLAX46Y46*%
G04 Gerber Fmt 4.6, Leading zero omitted, Abs format (unit mm)*
G04 Created by KiCad (PCBNEW 0.201502010101+5397~21~ubuntu14.04.1-product) date Tue 24 Feb 2015 10:52:37 PM EST*
%MOMM*%
G01*
G04 APERTURE LIST*
%ADD10C,0.100000*%
%ADD11R,1.397000X0.889000*%
%ADD12R,0.889000X1.397000*%
%ADD13O,1.501140X2.499360*%
%ADD14C,1.998980*%
%ADD15R,2.540000X2.540000*%
%ADD16O,2.540000X2.540000*%
%ADD17R,2.032000X1.727200*%
%ADD18O,2.032000X1.727200*%
%ADD19C,2.000000*%
%ADD20C,1.143000*%
%ADD21C,0.889000*%
%ADD22C,0.609600*%
%ADD23C,0.254000*%
G04 APERTURE END LIST*
D10*
D11*
X116078000Y-67627500D03*
X116078000Y-69532500D03*
X134366000Y-70929500D03*
X134366000Y-69024500D03*
D12*
X128587500Y-66675000D03*
X130492500Y-66675000D03*
D13*
X127381000Y-52197000D03*
X124841000Y-52197000D03*
X129921000Y-52197000D03*
D11*
X118364000Y-67881500D03*
X118364000Y-69786500D03*
D14*
X126522699Y-55910699D03*
X137129301Y-66517301D03*
D15*
X143256000Y-80518000D03*
D16*
X143256000Y-75438000D03*
D15*
X143256000Y-69215000D03*
D16*
X143256000Y-64135000D03*
D17*
X137160000Y-74422000D03*
D18*
X137160000Y-71882000D03*
X137160000Y-69342000D03*
D19*
X116038000Y-79883000D03*
X113538000Y-79883000D03*
X111038000Y-79883000D03*
X130008000Y-79756000D03*
X127508000Y-79756000D03*
X125008000Y-79756000D03*
D20*
X129286000Y-68580000D03*
X113411000Y-63500000D03*
X116205000Y-65913000D03*
X129286000Y-70485000D03*
X116205000Y-71247000D03*
X111506000Y-66040000D03*
X123571000Y-74295000D03*
D21*
X111125000Y-70104000D03*
X118364000Y-71374000D03*
D22*
X118364000Y-67881500D02*
X118364000Y-67183000D01*
X118364000Y-67183000D02*
X118872000Y-66675000D01*
X128587500Y-66675000D02*
X118872000Y-66675000D01*
X118872000Y-66675000D02*
X116967000Y-66675000D01*
X116967000Y-66675000D02*
X116205000Y-65913000D01*
X128587500Y-67881500D02*
X128587500Y-66675000D01*
X129286000Y-68580000D02*
X128587500Y-67881500D01*
X116078000Y-67627500D02*
X114681000Y-66230500D01*
X113411000Y-63500000D02*
X114681000Y-64770000D01*
X114681000Y-64770000D02*
X114681000Y-66230500D01*
X116205000Y-67500500D02*
X116205000Y-65913000D01*
X116205000Y-67500500D02*
X116078000Y-67627500D01*
X115824000Y-79669000D02*
X116038000Y-79883000D01*
X134366000Y-70929500D02*
X136207500Y-70929500D01*
X136207500Y-70929500D02*
X137160000Y-71882000D01*
D23*
X111125000Y-76835000D02*
X113538000Y-79248000D01*
X111125000Y-70104000D02*
X111125000Y-76835000D01*
X113538000Y-79248000D02*
X113538000Y-79883000D01*
X120777000Y-74930000D02*
X120777000Y-77978000D01*
X122555000Y-79756000D02*
X125008000Y-79756000D01*
X120777000Y-77978000D02*
X122555000Y-79756000D01*
X118364000Y-69786500D02*
X118364000Y-71374000D01*
X120777000Y-73787000D02*
X120777000Y-74930000D01*
X120777000Y-74930000D02*
X120777000Y-75057000D01*
X118364000Y-71374000D02*
X120777000Y-73787000D01*
G36*
X147143000Y-82881000D02*
X145173440Y-82881000D01*
X145173440Y-81788000D01*
X145173440Y-79248000D01*
X145173440Y-70485000D01*
X145173440Y-67945000D01*
X145126463Y-67702877D01*
X145113500Y-67683143D01*
X145113500Y-64557782D01*
X145113500Y-63712218D01*
X144810315Y-63033566D01*
X144270499Y-62522597D01*
X143678781Y-62277507D01*
X143383000Y-62393374D01*
X143383000Y-64008000D01*
X144998019Y-64008000D01*
X145113500Y-63712218D01*
X145113500Y-64557782D01*
X144998019Y-64262000D01*
X143383000Y-64262000D01*
X143383000Y-65876626D01*
X143678781Y-65992493D01*
X144270499Y-65747403D01*
X144810315Y-65236434D01*
X145113500Y-64557782D01*
X145113500Y-67683143D01*
X144986673Y-67490073D01*
X144775640Y-67347623D01*
X144526000Y-67297560D01*
X143129000Y-67297560D01*
X143129000Y-65876626D01*
X143129000Y-64262000D01*
X143129000Y-64008000D01*
X143129000Y-62393374D01*
X142833219Y-62277507D01*
X142241501Y-62522597D01*
X141701685Y-63033566D01*
X141491010Y-63505142D01*
X141491010Y-47905370D01*
X141218967Y-47246975D01*
X140715675Y-46742804D01*
X140057755Y-46469611D01*
X139345370Y-46468990D01*
X138686975Y-46741033D01*
X138182804Y-47244325D01*
X137909611Y-47902245D01*
X137908990Y-48614630D01*
X138181033Y-49273025D01*
X138684325Y-49777196D01*
X139342245Y-50050389D01*
X140054630Y-50051010D01*
X140713025Y-49778967D01*
X141217196Y-49275675D01*
X141490389Y-48617755D01*
X141491010Y-47905370D01*
X141491010Y-63505142D01*
X141398500Y-63712218D01*
X141513981Y-64008000D01*
X143129000Y-64008000D01*
X143129000Y-64262000D01*
X141513981Y-64262000D01*
X141398500Y-64557782D01*
X141701685Y-65236434D01*
X142241501Y-65747403D01*
X142833219Y-65992493D01*
X143129000Y-65876626D01*
X143129000Y-67297560D01*
X141986000Y-67297560D01*
X141743877Y-67344537D01*
X141531073Y-67484327D01*
X141388623Y-67695360D01*
X141338560Y-67945000D01*
X141338560Y-70485000D01*
X141385537Y-70727123D01*
X141525327Y-70939927D01*
X141736360Y-71082377D01*
X141986000Y-71132440D01*
X144526000Y-71132440D01*
X144768123Y-71085463D01*
X144980927Y-70945673D01*
X145123377Y-70734640D01*
X145173440Y-70485000D01*
X145173440Y-79248000D01*
X145126463Y-79005877D01*
X145113500Y-78986143D01*
X145113500Y-75860782D01*
X145113500Y-75015218D01*
X144810315Y-74336566D01*
X144270499Y-73825597D01*
X143678781Y-73580507D01*
X143383000Y-73696374D01*
X143383000Y-75311000D01*
X144998019Y-75311000D01*
X145113500Y-75015218D01*
X145113500Y-75860782D01*
X144998019Y-75565000D01*
X143383000Y-75565000D01*
X143383000Y-77179626D01*
X143678781Y-77295493D01*
X144270499Y-77050403D01*
X144810315Y-76539434D01*
X145113500Y-75860782D01*
X145113500Y-78986143D01*
X144986673Y-78793073D01*
X144775640Y-78650623D01*
X144526000Y-78600560D01*
X143129000Y-78600560D01*
X143129000Y-77179626D01*
X143129000Y-75565000D01*
X143129000Y-75311000D01*
X143129000Y-73696374D01*
X142833219Y-73580507D01*
X142241501Y-73825597D01*
X141701685Y-74336566D01*
X141398500Y-75015218D01*
X141513981Y-75311000D01*
X143129000Y-75311000D01*
X143129000Y-75565000D01*
X141513981Y-75565000D01*
X141398500Y-75860782D01*
X141701685Y-76539434D01*
X142241501Y-77050403D01*
X142833219Y-77295493D01*
X143129000Y-77179626D01*
X143129000Y-78600560D01*
X141986000Y-78600560D01*
X141743877Y-78647537D01*
X141531073Y-78787327D01*
X141388623Y-78998360D01*
X141338560Y-79248000D01*
X141338560Y-81788000D01*
X141385537Y-82030123D01*
X141525327Y-82242927D01*
X141736360Y-82385377D01*
X141986000Y-82435440D01*
X144526000Y-82435440D01*
X144768123Y-82388463D01*
X144980927Y-82248673D01*
X145123377Y-82037640D01*
X145173440Y-81788000D01*
X145173440Y-82881000D01*
X138843345Y-82881000D01*
X138843345Y-71882000D01*
X138729271Y-71308511D01*
X138404415Y-70822330D01*
X138089634Y-70612000D01*
X138404415Y-70401670D01*
X138729271Y-69915489D01*
X138843345Y-69342000D01*
X138729271Y-68768511D01*
X138404415Y-68282330D01*
X137918234Y-67957474D01*
X137912498Y-67956333D01*
X138105804Y-67867747D01*
X138548265Y-67391259D01*
X138750642Y-66902679D01*
X138750642Y-66131923D01*
X138479747Y-65540798D01*
X138003259Y-65098337D01*
X137514679Y-64895960D01*
X137256301Y-65014897D01*
X137256301Y-66390301D01*
X138631705Y-66390301D01*
X138750642Y-66131923D01*
X138750642Y-66902679D01*
X138631705Y-66644301D01*
X137256301Y-66644301D01*
X137256301Y-67843400D01*
X137002301Y-67843400D01*
X137002301Y-66644301D01*
X137002301Y-66390301D01*
X137002301Y-65014897D01*
X136743923Y-64895960D01*
X136152798Y-65166855D01*
X135710337Y-65643343D01*
X135507960Y-66131923D01*
X135626897Y-66390301D01*
X137002301Y-66390301D01*
X137002301Y-66644301D01*
X135626897Y-66644301D01*
X135507960Y-66902679D01*
X135778855Y-67493804D01*
X136255343Y-67936265D01*
X136365326Y-67981821D01*
X135915585Y-68282330D01*
X135699500Y-68605723D01*
X135699500Y-68453691D01*
X135602827Y-68220302D01*
X135424199Y-68041673D01*
X135190810Y-67945000D01*
X134938191Y-67945000D01*
X134651750Y-67945000D01*
X134493000Y-68103750D01*
X134493000Y-68897500D01*
X134513000Y-68897500D01*
X134513000Y-69151500D01*
X134493000Y-69151500D01*
X134493000Y-69171500D01*
X134239000Y-69171500D01*
X134239000Y-69151500D01*
X134239000Y-68897500D01*
X134239000Y-68103750D01*
X134080250Y-67945000D01*
X133793809Y-67945000D01*
X133541190Y-67945000D01*
X133307801Y-68041673D01*
X133129173Y-68220302D01*
X133032500Y-68453691D01*
X133032500Y-68738750D01*
X133191250Y-68897500D01*
X134239000Y-68897500D01*
X134239000Y-69151500D01*
X133191250Y-69151500D01*
X133032500Y-69310250D01*
X133032500Y-69595309D01*
X133129173Y-69828698D01*
X133280306Y-69979832D01*
X133212573Y-70024327D01*
X133070123Y-70235360D01*
X133020060Y-70485000D01*
X133020060Y-71374000D01*
X133067037Y-71616123D01*
X133206827Y-71828927D01*
X133417860Y-71971377D01*
X133667500Y-72021440D01*
X135064500Y-72021440D01*
X135306623Y-71974463D01*
X135466713Y-71869300D01*
X135479181Y-71869300D01*
X135476655Y-71882000D01*
X135590729Y-72455489D01*
X135915585Y-72941670D01*
X135931367Y-72952215D01*
X135901877Y-72957937D01*
X135689073Y-73097727D01*
X135546623Y-73308760D01*
X135496560Y-73558400D01*
X135496560Y-75285600D01*
X135543537Y-75527723D01*
X135683327Y-75740527D01*
X135894360Y-75882977D01*
X136144000Y-75933040D01*
X138176000Y-75933040D01*
X138418123Y-75886063D01*
X138630927Y-75746273D01*
X138773377Y-75535240D01*
X138823440Y-75285600D01*
X138823440Y-73558400D01*
X138776463Y-73316277D01*
X138636673Y-73103473D01*
X138425640Y-72961023D01*
X138387037Y-72953281D01*
X138404415Y-72941670D01*
X138729271Y-72455489D01*
X138843345Y-71882000D01*
X138843345Y-82881000D01*
X134243000Y-82881000D01*
X134243000Y-76589991D01*
X134243000Y-76322009D01*
X134118543Y-75696322D01*
X133764120Y-75165889D01*
X133233687Y-74811466D01*
X132608000Y-74687009D01*
X131982313Y-74811466D01*
X131572000Y-75085627D01*
X131572000Y-67499810D01*
X131572000Y-67247191D01*
X131572000Y-66960750D01*
X131572000Y-66389250D01*
X131572000Y-66102809D01*
X131572000Y-65850190D01*
X131475327Y-65616801D01*
X131306570Y-65448044D01*
X131306570Y-52733033D01*
X131306570Y-51660967D01*
X131201100Y-51130732D01*
X130900746Y-50681221D01*
X130451235Y-50380867D01*
X129921000Y-50275397D01*
X129390765Y-50380867D01*
X128941254Y-50681221D01*
X128651000Y-51115616D01*
X128360746Y-50681221D01*
X127911235Y-50380867D01*
X127381000Y-50275397D01*
X126850765Y-50380867D01*
X126401254Y-50681221D01*
X126111000Y-51115616D01*
X125820746Y-50681221D01*
X125371235Y-50380867D01*
X124841000Y-50275397D01*
X124310765Y-50380867D01*
X123861254Y-50681221D01*
X123560900Y-51130732D01*
X123455430Y-51660967D01*
X123455430Y-52733033D01*
X123560900Y-53263268D01*
X123861254Y-53712779D01*
X124310765Y-54013133D01*
X124841000Y-54118603D01*
X125371235Y-54013133D01*
X125820746Y-53712779D01*
X126111000Y-53278383D01*
X126401254Y-53712779D01*
X126850765Y-54013133D01*
X127381000Y-54118603D01*
X127911235Y-54013133D01*
X128360746Y-53712779D01*
X128651000Y-53278383D01*
X128941254Y-53712779D01*
X129390765Y-54013133D01*
X129921000Y-54118603D01*
X130451235Y-54013133D01*
X130900746Y-53712779D01*
X131201100Y-53263268D01*
X131306570Y-52733033D01*
X131306570Y-65448044D01*
X131296698Y-65438173D01*
X131063309Y-65341500D01*
X130778250Y-65341500D01*
X130619500Y-65500250D01*
X130619500Y-66548000D01*
X131413250Y-66548000D01*
X131572000Y-66389250D01*
X131572000Y-66960750D01*
X131413250Y-66802000D01*
X130619500Y-66802000D01*
X130619500Y-67849750D01*
X130778250Y-68008500D01*
X131063309Y-68008500D01*
X131296698Y-67911827D01*
X131475327Y-67733199D01*
X131572000Y-67499810D01*
X131572000Y-75085627D01*
X131451880Y-75165889D01*
X131097457Y-75696322D01*
X130973000Y-76322009D01*
X130973000Y-76589991D01*
X131097457Y-77215678D01*
X131451880Y-77746111D01*
X131982313Y-78100534D01*
X132608000Y-78224991D01*
X133233687Y-78100534D01*
X133764120Y-77746111D01*
X134118543Y-77215678D01*
X134243000Y-76589991D01*
X134243000Y-82881000D01*
X131643284Y-82881000D01*
X131643284Y-79432205D01*
X131394894Y-78831057D01*
X130935363Y-78370722D01*
X130492709Y-78186916D01*
X130492709Y-68341065D01*
X130311864Y-67903385D01*
X130365500Y-67849750D01*
X130365500Y-66802000D01*
X130345500Y-66802000D01*
X130345500Y-66548000D01*
X130365500Y-66548000D01*
X130365500Y-65500250D01*
X130206750Y-65341500D01*
X129921691Y-65341500D01*
X129688302Y-65438173D01*
X129537167Y-65589306D01*
X129492673Y-65521573D01*
X129281640Y-65379123D01*
X129032000Y-65329060D01*
X128157473Y-65329060D01*
X128157473Y-55587005D01*
X127909161Y-54986044D01*
X127449772Y-54525853D01*
X126849246Y-54276493D01*
X126199005Y-54275925D01*
X125598044Y-54524237D01*
X125137853Y-54983626D01*
X124888493Y-55584152D01*
X124887925Y-56234393D01*
X125136237Y-56835354D01*
X125595626Y-57295545D01*
X126196152Y-57544905D01*
X126846393Y-57545473D01*
X127447354Y-57297161D01*
X127907545Y-56837772D01*
X128156905Y-56237246D01*
X128157473Y-55587005D01*
X128157473Y-65329060D01*
X128143000Y-65329060D01*
X127900877Y-65376037D01*
X127688073Y-65515827D01*
X127545623Y-65726860D01*
X127543950Y-65735200D01*
X118872000Y-65735200D01*
X117411655Y-65735200D01*
X117411709Y-65674065D01*
X117228418Y-65230465D01*
X116889320Y-64890775D01*
X116446041Y-64706710D01*
X116091010Y-64706400D01*
X116091010Y-47905370D01*
X115818967Y-47246975D01*
X115315675Y-46742804D01*
X114657755Y-46469611D01*
X113945370Y-46468990D01*
X113286975Y-46741033D01*
X112782804Y-47244325D01*
X112509611Y-47902245D01*
X112508990Y-48614630D01*
X112781033Y-49273025D01*
X113284325Y-49777196D01*
X113942245Y-50050389D01*
X114654630Y-50051010D01*
X115313025Y-49778967D01*
X115817196Y-49275675D01*
X116090389Y-48617755D01*
X116091010Y-47905370D01*
X116091010Y-64706400D01*
X115966065Y-64706291D01*
X115620800Y-64848950D01*
X115620800Y-64770000D01*
X115549262Y-64410354D01*
X115345539Y-64105461D01*
X114617607Y-63377529D01*
X114617709Y-63261065D01*
X114434418Y-62817465D01*
X114095320Y-62477775D01*
X113652041Y-62293710D01*
X113172065Y-62293291D01*
X112728465Y-62476582D01*
X112388775Y-62815680D01*
X112204710Y-63258959D01*
X112204291Y-63738935D01*
X112387582Y-64182535D01*
X112726680Y-64522225D01*
X113169959Y-64706290D01*
X113288315Y-64706393D01*
X113741200Y-65159278D01*
X113741200Y-66230500D01*
X113812738Y-66590146D01*
X114016461Y-66895039D01*
X114732060Y-67610638D01*
X114732060Y-68072000D01*
X114779037Y-68314123D01*
X114918827Y-68526927D01*
X114992689Y-68576784D01*
X114841173Y-68728302D01*
X114744500Y-68961691D01*
X114744500Y-69246750D01*
X114903250Y-69405500D01*
X115951000Y-69405500D01*
X115951000Y-69385500D01*
X116205000Y-69385500D01*
X116205000Y-69405500D01*
X116225000Y-69405500D01*
X116225000Y-69659500D01*
X116205000Y-69659500D01*
X116205000Y-70453250D01*
X116363750Y-70612000D01*
X116650191Y-70612000D01*
X116902810Y-70612000D01*
X117102051Y-70529471D01*
X117204827Y-70685927D01*
X117415860Y-70828377D01*
X117421248Y-70829457D01*
X117284687Y-71158332D01*
X117284313Y-71587784D01*
X117448311Y-71984689D01*
X117751714Y-72288622D01*
X118148332Y-72453313D01*
X118365872Y-72453502D01*
X120015000Y-74102630D01*
X120015000Y-74930000D01*
X120015000Y-75057000D01*
X120015000Y-75623460D01*
X119794120Y-75292889D01*
X119263687Y-74938466D01*
X118638000Y-74814009D01*
X118012313Y-74938466D01*
X117481880Y-75292889D01*
X117127457Y-75823322D01*
X117003000Y-76449009D01*
X117003000Y-76716991D01*
X117127457Y-77342678D01*
X117481880Y-77873111D01*
X118012313Y-78227534D01*
X118638000Y-78351991D01*
X119263687Y-78227534D01*
X119794120Y-77873111D01*
X120015000Y-77542539D01*
X120015000Y-77978000D01*
X120073004Y-78269605D01*
X120238185Y-78516815D01*
X122016185Y-80294816D01*
X122164376Y-80393834D01*
X122263395Y-80459996D01*
X122263396Y-80459996D01*
X122555000Y-80518000D01*
X123553779Y-80518000D01*
X123621106Y-80680943D01*
X124080637Y-81141278D01*
X124681352Y-81390716D01*
X125331795Y-81391284D01*
X125932943Y-81142894D01*
X126349751Y-80726813D01*
X126355468Y-80728927D01*
X127328395Y-79756000D01*
X126355468Y-78783073D01*
X126349278Y-78785361D01*
X125935363Y-78370722D01*
X125334648Y-78121284D01*
X124684205Y-78120716D01*
X124083057Y-78369106D01*
X123622722Y-78828637D01*
X123554057Y-78994000D01*
X122870630Y-78994000D01*
X122025546Y-78148916D01*
X122408000Y-78224991D01*
X123033687Y-78100534D01*
X123564120Y-77746111D01*
X123918543Y-77215678D01*
X124043000Y-76589991D01*
X124043000Y-76322009D01*
X123918543Y-75696322D01*
X123564120Y-75165889D01*
X123033687Y-74811466D01*
X122408000Y-74687009D01*
X121782313Y-74811466D01*
X121539000Y-74974042D01*
X121539000Y-74930000D01*
X121539000Y-73787000D01*
X121480996Y-73495395D01*
X121315815Y-73248185D01*
X121315815Y-73248184D01*
X119443499Y-71375868D01*
X119443687Y-71160216D01*
X119307160Y-70829796D01*
X119517427Y-70691673D01*
X119659877Y-70480640D01*
X119709940Y-70231000D01*
X119709940Y-69342000D01*
X119662963Y-69099877D01*
X119523173Y-68887073D01*
X119444958Y-68834277D01*
X119517427Y-68786673D01*
X119659877Y-68575640D01*
X119709940Y-68326000D01*
X119709940Y-67614800D01*
X127542377Y-67614800D01*
X127542537Y-67615623D01*
X127647700Y-67775713D01*
X127647700Y-67881500D01*
X127719238Y-68241146D01*
X127922961Y-68546039D01*
X128079392Y-68702470D01*
X128079291Y-68818935D01*
X128262582Y-69262535D01*
X128601680Y-69602225D01*
X129044959Y-69786290D01*
X129524935Y-69786709D01*
X129968535Y-69603418D01*
X130308225Y-69264320D01*
X130492290Y-68821041D01*
X130492709Y-68341065D01*
X130492709Y-78186916D01*
X130334648Y-78121284D01*
X129684205Y-78120716D01*
X129083057Y-78369106D01*
X128666248Y-78785186D01*
X128660532Y-78783073D01*
X128480927Y-78962678D01*
X128480927Y-78603468D01*
X128382264Y-78336613D01*
X127772539Y-78110092D01*
X127122540Y-78134144D01*
X126633736Y-78336613D01*
X126535073Y-78603468D01*
X127508000Y-79576395D01*
X128480927Y-78603468D01*
X128480927Y-78962678D01*
X127687605Y-79756000D01*
X128660532Y-80728927D01*
X128666721Y-80726638D01*
X129080637Y-81141278D01*
X129681352Y-81390716D01*
X130331795Y-81391284D01*
X130932943Y-81142894D01*
X131393278Y-80683363D01*
X131642716Y-80082648D01*
X131643284Y-79432205D01*
X131643284Y-82881000D01*
X128480927Y-82881000D01*
X128480927Y-80908532D01*
X127508000Y-79935605D01*
X126535073Y-80908532D01*
X126633736Y-81175387D01*
X127243461Y-81401908D01*
X127893460Y-81377856D01*
X128382264Y-81175387D01*
X128480927Y-80908532D01*
X128480927Y-82881000D01*
X117683908Y-82881000D01*
X117683908Y-80147539D01*
X117659856Y-79497540D01*
X117457387Y-79008736D01*
X117190532Y-78910073D01*
X117010927Y-79089678D01*
X117010927Y-78730468D01*
X116912264Y-78463613D01*
X116302539Y-78237092D01*
X115951000Y-78250100D01*
X115951000Y-70453250D01*
X115951000Y-69659500D01*
X114903250Y-69659500D01*
X114744500Y-69818250D01*
X114744500Y-70103309D01*
X114841173Y-70336698D01*
X115019801Y-70515327D01*
X115253190Y-70612000D01*
X115505809Y-70612000D01*
X115792250Y-70612000D01*
X115951000Y-70453250D01*
X115951000Y-78250100D01*
X115652540Y-78261144D01*
X115163736Y-78463613D01*
X115065073Y-78730468D01*
X116038000Y-79703395D01*
X117010927Y-78730468D01*
X117010927Y-79089678D01*
X116217605Y-79883000D01*
X117190532Y-80855927D01*
X117457387Y-80757264D01*
X117683908Y-80147539D01*
X117683908Y-82881000D01*
X117010927Y-82881000D01*
X117010927Y-81035532D01*
X116038000Y-80062605D01*
X115858395Y-80242210D01*
X115858395Y-79883000D01*
X114885468Y-78910073D01*
X114879278Y-78912361D01*
X114465363Y-78497722D01*
X113864648Y-78248284D01*
X113615697Y-78248066D01*
X111887000Y-76519369D01*
X111887000Y-70868641D01*
X112039622Y-70716286D01*
X112204313Y-70319668D01*
X112204687Y-69890216D01*
X112040689Y-69493311D01*
X111737286Y-69189378D01*
X111340668Y-69024687D01*
X110911216Y-69024313D01*
X110514311Y-69188311D01*
X110210378Y-69491714D01*
X110045687Y-69888332D01*
X110045313Y-70317784D01*
X110209311Y-70714689D01*
X110363000Y-70868646D01*
X110363000Y-76835000D01*
X110421004Y-77126605D01*
X110586185Y-77373815D01*
X111528826Y-78316456D01*
X111364648Y-78248284D01*
X110714205Y-78247716D01*
X110113057Y-78496106D01*
X109652722Y-78955637D01*
X109403284Y-79556352D01*
X109402716Y-80206795D01*
X109651106Y-80807943D01*
X110110637Y-81268278D01*
X110711352Y-81517716D01*
X111361795Y-81518284D01*
X111962943Y-81269894D01*
X112288164Y-80945240D01*
X112610637Y-81268278D01*
X113211352Y-81517716D01*
X113861795Y-81518284D01*
X114462943Y-81269894D01*
X114879751Y-80853813D01*
X114885468Y-80855927D01*
X115858395Y-79883000D01*
X115858395Y-80242210D01*
X115065073Y-81035532D01*
X115163736Y-81302387D01*
X115773461Y-81528908D01*
X116423460Y-81504856D01*
X116912264Y-81302387D01*
X117010927Y-81035532D01*
X117010927Y-82881000D01*
X106857000Y-82881000D01*
X106857000Y-76988467D01*
X106927457Y-77342678D01*
X107281880Y-77873111D01*
X107812313Y-78227534D01*
X108438000Y-78351991D01*
X109063687Y-78227534D01*
X109594120Y-77873111D01*
X109948543Y-77342678D01*
X110073000Y-76716991D01*
X110073000Y-76449009D01*
X109948543Y-75823322D01*
X109594120Y-75292889D01*
X109063687Y-74938466D01*
X108438000Y-74814009D01*
X107812313Y-74938466D01*
X107281880Y-75292889D01*
X106927457Y-75823322D01*
X106857000Y-76177532D01*
X106857000Y-36499000D01*
X147143000Y-36499000D01*
X147143000Y-82881000D01*
X147143000Y-82881000D01*
G37*
X147143000Y-82881000D02*
X145173440Y-82881000D01*
X145173440Y-81788000D01*
X145173440Y-79248000D01*
X145173440Y-70485000D01*
X145173440Y-67945000D01*
X145126463Y-67702877D01*
X145113500Y-67683143D01*
X145113500Y-64557782D01*
X145113500Y-63712218D01*
X144810315Y-63033566D01*
X144270499Y-62522597D01*
X143678781Y-62277507D01*
X143383000Y-62393374D01*
X143383000Y-64008000D01*
X144998019Y-64008000D01*
X145113500Y-63712218D01*
X145113500Y-64557782D01*
X144998019Y-64262000D01*
X143383000Y-64262000D01*
X143383000Y-65876626D01*
X143678781Y-65992493D01*
X144270499Y-65747403D01*
X144810315Y-65236434D01*
X145113500Y-64557782D01*
X145113500Y-67683143D01*
X144986673Y-67490073D01*
X144775640Y-67347623D01*
X144526000Y-67297560D01*
X143129000Y-67297560D01*
X143129000Y-65876626D01*
X143129000Y-64262000D01*
X143129000Y-64008000D01*
X143129000Y-62393374D01*
X142833219Y-62277507D01*
X142241501Y-62522597D01*
X141701685Y-63033566D01*
X141491010Y-63505142D01*
X141491010Y-47905370D01*
X141218967Y-47246975D01*
X140715675Y-46742804D01*
X140057755Y-46469611D01*
X139345370Y-46468990D01*
X138686975Y-46741033D01*
X138182804Y-47244325D01*
X137909611Y-47902245D01*
X137908990Y-48614630D01*
X138181033Y-49273025D01*
X138684325Y-49777196D01*
X139342245Y-50050389D01*
X140054630Y-50051010D01*
X140713025Y-49778967D01*
X141217196Y-49275675D01*
X141490389Y-48617755D01*
X141491010Y-47905370D01*
X141491010Y-63505142D01*
X141398500Y-63712218D01*
X141513981Y-64008000D01*
X143129000Y-64008000D01*
X143129000Y-64262000D01*
X141513981Y-64262000D01*
X141398500Y-64557782D01*
X141701685Y-65236434D01*
X142241501Y-65747403D01*
X142833219Y-65992493D01*
X143129000Y-65876626D01*
X143129000Y-67297560D01*
X141986000Y-67297560D01*
X141743877Y-67344537D01*
X141531073Y-67484327D01*
X141388623Y-67695360D01*
X141338560Y-67945000D01*
X141338560Y-70485000D01*
X141385537Y-70727123D01*
X141525327Y-70939927D01*
X141736360Y-71082377D01*
X141986000Y-71132440D01*
X144526000Y-71132440D01*
X144768123Y-71085463D01*
X144980927Y-70945673D01*
X145123377Y-70734640D01*
X145173440Y-70485000D01*
X145173440Y-79248000D01*
X145126463Y-79005877D01*
X145113500Y-78986143D01*
X145113500Y-75860782D01*
X145113500Y-75015218D01*
X144810315Y-74336566D01*
X144270499Y-73825597D01*
X143678781Y-73580507D01*
X143383000Y-73696374D01*
X143383000Y-75311000D01*
X144998019Y-75311000D01*
X145113500Y-75015218D01*
X145113500Y-75860782D01*
X144998019Y-75565000D01*
X143383000Y-75565000D01*
X143383000Y-77179626D01*
X143678781Y-77295493D01*
X144270499Y-77050403D01*
X144810315Y-76539434D01*
X145113500Y-75860782D01*
X145113500Y-78986143D01*
X144986673Y-78793073D01*
X144775640Y-78650623D01*
X144526000Y-78600560D01*
X143129000Y-78600560D01*
X143129000Y-77179626D01*
X143129000Y-75565000D01*
X143129000Y-75311000D01*
X143129000Y-73696374D01*
X142833219Y-73580507D01*
X142241501Y-73825597D01*
X141701685Y-74336566D01*
X141398500Y-75015218D01*
X141513981Y-75311000D01*
X143129000Y-75311000D01*
X143129000Y-75565000D01*
X141513981Y-75565000D01*
X141398500Y-75860782D01*
X141701685Y-76539434D01*
X142241501Y-77050403D01*
X142833219Y-77295493D01*
X143129000Y-77179626D01*
X143129000Y-78600560D01*
X141986000Y-78600560D01*
X141743877Y-78647537D01*
X141531073Y-78787327D01*
X141388623Y-78998360D01*
X141338560Y-79248000D01*
X141338560Y-81788000D01*
X141385537Y-82030123D01*
X141525327Y-82242927D01*
X141736360Y-82385377D01*
X141986000Y-82435440D01*
X144526000Y-82435440D01*
X144768123Y-82388463D01*
X144980927Y-82248673D01*
X145123377Y-82037640D01*
X145173440Y-81788000D01*
X145173440Y-82881000D01*
X138843345Y-82881000D01*
X138843345Y-71882000D01*
X138729271Y-71308511D01*
X138404415Y-70822330D01*
X138089634Y-70612000D01*
X138404415Y-70401670D01*
X138729271Y-69915489D01*
X138843345Y-69342000D01*
X138729271Y-68768511D01*
X138404415Y-68282330D01*
X137918234Y-67957474D01*
X137912498Y-67956333D01*
X138105804Y-67867747D01*
X138548265Y-67391259D01*
X138750642Y-66902679D01*
X138750642Y-66131923D01*
X138479747Y-65540798D01*
X138003259Y-65098337D01*
X137514679Y-64895960D01*
X137256301Y-65014897D01*
X137256301Y-66390301D01*
X138631705Y-66390301D01*
X138750642Y-66131923D01*
X138750642Y-66902679D01*
X138631705Y-66644301D01*
X137256301Y-66644301D01*
X137256301Y-67843400D01*
X137002301Y-67843400D01*
X137002301Y-66644301D01*
X137002301Y-66390301D01*
X137002301Y-65014897D01*
X136743923Y-64895960D01*
X136152798Y-65166855D01*
X135710337Y-65643343D01*
X135507960Y-66131923D01*
X135626897Y-66390301D01*
X137002301Y-66390301D01*
X137002301Y-66644301D01*
X135626897Y-66644301D01*
X135507960Y-66902679D01*
X135778855Y-67493804D01*
X136255343Y-67936265D01*
X136365326Y-67981821D01*
X135915585Y-68282330D01*
X135699500Y-68605723D01*
X135699500Y-68453691D01*
X135602827Y-68220302D01*
X135424199Y-68041673D01*
X135190810Y-67945000D01*
X134938191Y-67945000D01*
X134651750Y-67945000D01*
X134493000Y-68103750D01*
X134493000Y-68897500D01*
X134513000Y-68897500D01*
X134513000Y-69151500D01*
X134493000Y-69151500D01*
X134493000Y-69171500D01*
X134239000Y-69171500D01*
X134239000Y-69151500D01*
X134239000Y-68897500D01*
X134239000Y-68103750D01*
X134080250Y-67945000D01*
X133793809Y-67945000D01*
X133541190Y-67945000D01*
X133307801Y-68041673D01*
X133129173Y-68220302D01*
X133032500Y-68453691D01*
X133032500Y-68738750D01*
X133191250Y-68897500D01*
X134239000Y-68897500D01*
X134239000Y-69151500D01*
X133191250Y-69151500D01*
X133032500Y-69310250D01*
X133032500Y-69595309D01*
X133129173Y-69828698D01*
X133280306Y-69979832D01*
X133212573Y-70024327D01*
X133070123Y-70235360D01*
X133020060Y-70485000D01*
X133020060Y-71374000D01*
X133067037Y-71616123D01*
X133206827Y-71828927D01*
X133417860Y-71971377D01*
X133667500Y-72021440D01*
X135064500Y-72021440D01*
X135306623Y-71974463D01*
X135466713Y-71869300D01*
X135479181Y-71869300D01*
X135476655Y-71882000D01*
X135590729Y-72455489D01*
X135915585Y-72941670D01*
X135931367Y-72952215D01*
X135901877Y-72957937D01*
X135689073Y-73097727D01*
X135546623Y-73308760D01*
X135496560Y-73558400D01*
X135496560Y-75285600D01*
X135543537Y-75527723D01*
X135683327Y-75740527D01*
X135894360Y-75882977D01*
X136144000Y-75933040D01*
X138176000Y-75933040D01*
X138418123Y-75886063D01*
X138630927Y-75746273D01*
X138773377Y-75535240D01*
X138823440Y-75285600D01*
X138823440Y-73558400D01*
X138776463Y-73316277D01*
X138636673Y-73103473D01*
X138425640Y-72961023D01*
X138387037Y-72953281D01*
X138404415Y-72941670D01*
X138729271Y-72455489D01*
X138843345Y-71882000D01*
X138843345Y-82881000D01*
X134243000Y-82881000D01*
X134243000Y-76589991D01*
X134243000Y-76322009D01*
X134118543Y-75696322D01*
X133764120Y-75165889D01*
X133233687Y-74811466D01*
X132608000Y-74687009D01*
X131982313Y-74811466D01*
X131572000Y-75085627D01*
X131572000Y-67499810D01*
X131572000Y-67247191D01*
X131572000Y-66960750D01*
X131572000Y-66389250D01*
X131572000Y-66102809D01*
X131572000Y-65850190D01*
X131475327Y-65616801D01*
X131306570Y-65448044D01*
X131306570Y-52733033D01*
X131306570Y-51660967D01*
X131201100Y-51130732D01*
X130900746Y-50681221D01*
X130451235Y-50380867D01*
X129921000Y-50275397D01*
X129390765Y-50380867D01*
X128941254Y-50681221D01*
X128651000Y-51115616D01*
X128360746Y-50681221D01*
X127911235Y-50380867D01*
X127381000Y-50275397D01*
X126850765Y-50380867D01*
X126401254Y-50681221D01*
X126111000Y-51115616D01*
X125820746Y-50681221D01*
X125371235Y-50380867D01*
X124841000Y-50275397D01*
X124310765Y-50380867D01*
X123861254Y-50681221D01*
X123560900Y-51130732D01*
X123455430Y-51660967D01*
X123455430Y-52733033D01*
X123560900Y-53263268D01*
X123861254Y-53712779D01*
X124310765Y-54013133D01*
X124841000Y-54118603D01*
X125371235Y-54013133D01*
X125820746Y-53712779D01*
X126111000Y-53278383D01*
X126401254Y-53712779D01*
X126850765Y-54013133D01*
X127381000Y-54118603D01*
X127911235Y-54013133D01*
X128360746Y-53712779D01*
X128651000Y-53278383D01*
X128941254Y-53712779D01*
X129390765Y-54013133D01*
X129921000Y-54118603D01*
X130451235Y-54013133D01*
X130900746Y-53712779D01*
X131201100Y-53263268D01*
X131306570Y-52733033D01*
X131306570Y-65448044D01*
X131296698Y-65438173D01*
X131063309Y-65341500D01*
X130778250Y-65341500D01*
X130619500Y-65500250D01*
X130619500Y-66548000D01*
X131413250Y-66548000D01*
X131572000Y-66389250D01*
X131572000Y-66960750D01*
X131413250Y-66802000D01*
X130619500Y-66802000D01*
X130619500Y-67849750D01*
X130778250Y-68008500D01*
X131063309Y-68008500D01*
X131296698Y-67911827D01*
X131475327Y-67733199D01*
X131572000Y-67499810D01*
X131572000Y-75085627D01*
X131451880Y-75165889D01*
X131097457Y-75696322D01*
X130973000Y-76322009D01*
X130973000Y-76589991D01*
X131097457Y-77215678D01*
X131451880Y-77746111D01*
X131982313Y-78100534D01*
X132608000Y-78224991D01*
X133233687Y-78100534D01*
X133764120Y-77746111D01*
X134118543Y-77215678D01*
X134243000Y-76589991D01*
X134243000Y-82881000D01*
X131643284Y-82881000D01*
X131643284Y-79432205D01*
X131394894Y-78831057D01*
X130935363Y-78370722D01*
X130492709Y-78186916D01*
X130492709Y-68341065D01*
X130311864Y-67903385D01*
X130365500Y-67849750D01*
X130365500Y-66802000D01*
X130345500Y-66802000D01*
X130345500Y-66548000D01*
X130365500Y-66548000D01*
X130365500Y-65500250D01*
X130206750Y-65341500D01*
X129921691Y-65341500D01*
X129688302Y-65438173D01*
X129537167Y-65589306D01*
X129492673Y-65521573D01*
X129281640Y-65379123D01*
X129032000Y-65329060D01*
X128157473Y-65329060D01*
X128157473Y-55587005D01*
X127909161Y-54986044D01*
X127449772Y-54525853D01*
X126849246Y-54276493D01*
X126199005Y-54275925D01*
X125598044Y-54524237D01*
X125137853Y-54983626D01*
X124888493Y-55584152D01*
X124887925Y-56234393D01*
X125136237Y-56835354D01*
X125595626Y-57295545D01*
X126196152Y-57544905D01*
X126846393Y-57545473D01*
X127447354Y-57297161D01*
X127907545Y-56837772D01*
X128156905Y-56237246D01*
X128157473Y-55587005D01*
X128157473Y-65329060D01*
X128143000Y-65329060D01*
X127900877Y-65376037D01*
X127688073Y-65515827D01*
X127545623Y-65726860D01*
X127543950Y-65735200D01*
X118872000Y-65735200D01*
X117411655Y-65735200D01*
X117411709Y-65674065D01*
X117228418Y-65230465D01*
X116889320Y-64890775D01*
X116446041Y-64706710D01*
X116091010Y-64706400D01*
X116091010Y-47905370D01*
X115818967Y-47246975D01*
X115315675Y-46742804D01*
X114657755Y-46469611D01*
X113945370Y-46468990D01*
X113286975Y-46741033D01*
X112782804Y-47244325D01*
X112509611Y-47902245D01*
X112508990Y-48614630D01*
X112781033Y-49273025D01*
X113284325Y-49777196D01*
X113942245Y-50050389D01*
X114654630Y-50051010D01*
X115313025Y-49778967D01*
X115817196Y-49275675D01*
X116090389Y-48617755D01*
X116091010Y-47905370D01*
X116091010Y-64706400D01*
X115966065Y-64706291D01*
X115620800Y-64848950D01*
X115620800Y-64770000D01*
X115549262Y-64410354D01*
X115345539Y-64105461D01*
X114617607Y-63377529D01*
X114617709Y-63261065D01*
X114434418Y-62817465D01*
X114095320Y-62477775D01*
X113652041Y-62293710D01*
X113172065Y-62293291D01*
X112728465Y-62476582D01*
X112388775Y-62815680D01*
X112204710Y-63258959D01*
X112204291Y-63738935D01*
X112387582Y-64182535D01*
X112726680Y-64522225D01*
X113169959Y-64706290D01*
X113288315Y-64706393D01*
X113741200Y-65159278D01*
X113741200Y-66230500D01*
X113812738Y-66590146D01*
X114016461Y-66895039D01*
X114732060Y-67610638D01*
X114732060Y-68072000D01*
X114779037Y-68314123D01*
X114918827Y-68526927D01*
X114992689Y-68576784D01*
X114841173Y-68728302D01*
X114744500Y-68961691D01*
X114744500Y-69246750D01*
X114903250Y-69405500D01*
X115951000Y-69405500D01*
X115951000Y-69385500D01*
X116205000Y-69385500D01*
X116205000Y-69405500D01*
X116225000Y-69405500D01*
X116225000Y-69659500D01*
X116205000Y-69659500D01*
X116205000Y-70453250D01*
X116363750Y-70612000D01*
X116650191Y-70612000D01*
X116902810Y-70612000D01*
X117102051Y-70529471D01*
X117204827Y-70685927D01*
X117415860Y-70828377D01*
X117421248Y-70829457D01*
X117284687Y-71158332D01*
X117284313Y-71587784D01*
X117448311Y-71984689D01*
X117751714Y-72288622D01*
X118148332Y-72453313D01*
X118365872Y-72453502D01*
X120015000Y-74102630D01*
X120015000Y-74930000D01*
X120015000Y-75057000D01*
X120015000Y-75623460D01*
X119794120Y-75292889D01*
X119263687Y-74938466D01*
X118638000Y-74814009D01*
X118012313Y-74938466D01*
X117481880Y-75292889D01*
X117127457Y-75823322D01*
X117003000Y-76449009D01*
X117003000Y-76716991D01*
X117127457Y-77342678D01*
X117481880Y-77873111D01*
X118012313Y-78227534D01*
X118638000Y-78351991D01*
X119263687Y-78227534D01*
X119794120Y-77873111D01*
X120015000Y-77542539D01*
X120015000Y-77978000D01*
X120073004Y-78269605D01*
X120238185Y-78516815D01*
X122016185Y-80294816D01*
X122164376Y-80393834D01*
X122263395Y-80459996D01*
X122263396Y-80459996D01*
X122555000Y-80518000D01*
X123553779Y-80518000D01*
X123621106Y-80680943D01*
X124080637Y-81141278D01*
X124681352Y-81390716D01*
X125331795Y-81391284D01*
X125932943Y-81142894D01*
X126349751Y-80726813D01*
X126355468Y-80728927D01*
X127328395Y-79756000D01*
X126355468Y-78783073D01*
X126349278Y-78785361D01*
X125935363Y-78370722D01*
X125334648Y-78121284D01*
X124684205Y-78120716D01*
X124083057Y-78369106D01*
X123622722Y-78828637D01*
X123554057Y-78994000D01*
X122870630Y-78994000D01*
X122025546Y-78148916D01*
X122408000Y-78224991D01*
X123033687Y-78100534D01*
X123564120Y-77746111D01*
X123918543Y-77215678D01*
X124043000Y-76589991D01*
X124043000Y-76322009D01*
X123918543Y-75696322D01*
X123564120Y-75165889D01*
X123033687Y-74811466D01*
X122408000Y-74687009D01*
X121782313Y-74811466D01*
X121539000Y-74974042D01*
X121539000Y-74930000D01*
X121539000Y-73787000D01*
X121480996Y-73495395D01*
X121315815Y-73248185D01*
X121315815Y-73248184D01*
X119443499Y-71375868D01*
X119443687Y-71160216D01*
X119307160Y-70829796D01*
X119517427Y-70691673D01*
X119659877Y-70480640D01*
X119709940Y-70231000D01*
X119709940Y-69342000D01*
X119662963Y-69099877D01*
X119523173Y-68887073D01*
X119444958Y-68834277D01*
X119517427Y-68786673D01*
X119659877Y-68575640D01*
X119709940Y-68326000D01*
X119709940Y-67614800D01*
X127542377Y-67614800D01*
X127542537Y-67615623D01*
X127647700Y-67775713D01*
X127647700Y-67881500D01*
X127719238Y-68241146D01*
X127922961Y-68546039D01*
X128079392Y-68702470D01*
X128079291Y-68818935D01*
X128262582Y-69262535D01*
X128601680Y-69602225D01*
X129044959Y-69786290D01*
X129524935Y-69786709D01*
X129968535Y-69603418D01*
X130308225Y-69264320D01*
X130492290Y-68821041D01*
X130492709Y-68341065D01*
X130492709Y-78186916D01*
X130334648Y-78121284D01*
X129684205Y-78120716D01*
X129083057Y-78369106D01*
X128666248Y-78785186D01*
X128660532Y-78783073D01*
X128480927Y-78962678D01*
X128480927Y-78603468D01*
X128382264Y-78336613D01*
X127772539Y-78110092D01*
X127122540Y-78134144D01*
X126633736Y-78336613D01*
X126535073Y-78603468D01*
X127508000Y-79576395D01*
X128480927Y-78603468D01*
X128480927Y-78962678D01*
X127687605Y-79756000D01*
X128660532Y-80728927D01*
X128666721Y-80726638D01*
X129080637Y-81141278D01*
X129681352Y-81390716D01*
X130331795Y-81391284D01*
X130932943Y-81142894D01*
X131393278Y-80683363D01*
X131642716Y-80082648D01*
X131643284Y-79432205D01*
X131643284Y-82881000D01*
X128480927Y-82881000D01*
X128480927Y-80908532D01*
X127508000Y-79935605D01*
X126535073Y-80908532D01*
X126633736Y-81175387D01*
X127243461Y-81401908D01*
X127893460Y-81377856D01*
X128382264Y-81175387D01*
X128480927Y-80908532D01*
X128480927Y-82881000D01*
X117683908Y-82881000D01*
X117683908Y-80147539D01*
X117659856Y-79497540D01*
X117457387Y-79008736D01*
X117190532Y-78910073D01*
X117010927Y-79089678D01*
X117010927Y-78730468D01*
X116912264Y-78463613D01*
X116302539Y-78237092D01*
X115951000Y-78250100D01*
X115951000Y-70453250D01*
X115951000Y-69659500D01*
X114903250Y-69659500D01*
X114744500Y-69818250D01*
X114744500Y-70103309D01*
X114841173Y-70336698D01*
X115019801Y-70515327D01*
X115253190Y-70612000D01*
X115505809Y-70612000D01*
X115792250Y-70612000D01*
X115951000Y-70453250D01*
X115951000Y-78250100D01*
X115652540Y-78261144D01*
X115163736Y-78463613D01*
X115065073Y-78730468D01*
X116038000Y-79703395D01*
X117010927Y-78730468D01*
X117010927Y-79089678D01*
X116217605Y-79883000D01*
X117190532Y-80855927D01*
X117457387Y-80757264D01*
X117683908Y-80147539D01*
X117683908Y-82881000D01*
X117010927Y-82881000D01*
X117010927Y-81035532D01*
X116038000Y-80062605D01*
X115858395Y-80242210D01*
X115858395Y-79883000D01*
X114885468Y-78910073D01*
X114879278Y-78912361D01*
X114465363Y-78497722D01*
X113864648Y-78248284D01*
X113615697Y-78248066D01*
X111887000Y-76519369D01*
X111887000Y-70868641D01*
X112039622Y-70716286D01*
X112204313Y-70319668D01*
X112204687Y-69890216D01*
X112040689Y-69493311D01*
X111737286Y-69189378D01*
X111340668Y-69024687D01*
X110911216Y-69024313D01*
X110514311Y-69188311D01*
X110210378Y-69491714D01*
X110045687Y-69888332D01*
X110045313Y-70317784D01*
X110209311Y-70714689D01*
X110363000Y-70868646D01*
X110363000Y-76835000D01*
X110421004Y-77126605D01*
X110586185Y-77373815D01*
X111528826Y-78316456D01*
X111364648Y-78248284D01*
X110714205Y-78247716D01*
X110113057Y-78496106D01*
X109652722Y-78955637D01*
X109403284Y-79556352D01*
X109402716Y-80206795D01*
X109651106Y-80807943D01*
X110110637Y-81268278D01*
X110711352Y-81517716D01*
X111361795Y-81518284D01*
X111962943Y-81269894D01*
X112288164Y-80945240D01*
X112610637Y-81268278D01*
X113211352Y-81517716D01*
X113861795Y-81518284D01*
X114462943Y-81269894D01*
X114879751Y-80853813D01*
X114885468Y-80855927D01*
X115858395Y-79883000D01*
X115858395Y-80242210D01*
X115065073Y-81035532D01*
X115163736Y-81302387D01*
X115773461Y-81528908D01*
X116423460Y-81504856D01*
X116912264Y-81302387D01*
X117010927Y-81035532D01*
X117010927Y-82881000D01*
X106857000Y-82881000D01*
X106857000Y-76988467D01*
X106927457Y-77342678D01*
X107281880Y-77873111D01*
X107812313Y-78227534D01*
X108438000Y-78351991D01*
X109063687Y-78227534D01*
X109594120Y-77873111D01*
X109948543Y-77342678D01*
X110073000Y-76716991D01*
X110073000Y-76449009D01*
X109948543Y-75823322D01*
X109594120Y-75292889D01*
X109063687Y-74938466D01*
X108438000Y-74814009D01*
X107812313Y-74938466D01*
X107281880Y-75292889D01*
X106927457Y-75823322D01*
X106857000Y-76177532D01*
X106857000Y-36499000D01*
X147143000Y-36499000D01*
X147143000Y-82881000D01*
M02*
