G04 #@! TF.FileFunction,Legend,Bot*
%FSLAX46Y46*%
G04 Gerber Fmt 4.6, Leading zero omitted, Abs format (unit mm)*
G04 Created by KiCad (PCBNEW (2015-01-16 BZR 5376)-product) date 2-3-2015 10:33:56*
%MOMM*%
G01*
G04 APERTURE LIST*
%ADD10C,0.100000*%
%ADD11C,0.250000*%
%ADD12C,1.998980*%
%ADD13R,2.794000X5.080000*%
%ADD14O,2.794000X5.080000*%
%ADD15C,2.311400*%
%ADD16R,2.032000X1.727200*%
%ADD17O,2.032000X1.727200*%
%ADD18C,2.000000*%
%ADD19C,2.500000*%
%ADD20C,2.600000*%
%ADD21R,2.540000X2.540000*%
%ADD22O,2.540000X2.540000*%
%ADD23R,2.235200X2.235200*%
%ADD24O,1.501140X2.499360*%
G04 APERTURE END LIST*
D10*
D11*
X136970238Y-63246429D02*
X137029762Y-63305952D01*
X137208333Y-63365476D01*
X137327381Y-63365476D01*
X137505953Y-63305952D01*
X137625000Y-63186905D01*
X137684524Y-63067857D01*
X137744048Y-62829762D01*
X137744048Y-62651190D01*
X137684524Y-62413095D01*
X137625000Y-62294048D01*
X137505953Y-62175000D01*
X137327381Y-62115476D01*
X137208333Y-62115476D01*
X137029762Y-62175000D01*
X136970238Y-62234524D01*
X135898810Y-62532143D02*
X135898810Y-63365476D01*
X136434524Y-62532143D02*
X136434524Y-63186905D01*
X136375000Y-63305952D01*
X136255953Y-63365476D01*
X136077381Y-63365476D01*
X135958333Y-63305952D01*
X135898810Y-63246429D01*
X135303572Y-63365476D02*
X135303572Y-62532143D01*
X135303572Y-62770238D02*
X135244048Y-62651190D01*
X135184524Y-62591667D01*
X135065477Y-62532143D01*
X134946429Y-62532143D01*
X134529762Y-63365476D02*
X134529762Y-62532143D01*
X134529762Y-62770238D02*
X134470238Y-62651190D01*
X134410714Y-62591667D01*
X134291667Y-62532143D01*
X134172619Y-62532143D01*
X133279761Y-63305952D02*
X133398809Y-63365476D01*
X133636904Y-63365476D01*
X133755952Y-63305952D01*
X133815476Y-63186905D01*
X133815476Y-62710714D01*
X133755952Y-62591667D01*
X133636904Y-62532143D01*
X133398809Y-62532143D01*
X133279761Y-62591667D01*
X133220238Y-62710714D01*
X133220238Y-62829762D01*
X133815476Y-62948810D01*
X132684523Y-62532143D02*
X132684523Y-63365476D01*
X132684523Y-62651190D02*
X132624999Y-62591667D01*
X132505952Y-62532143D01*
X132327380Y-62532143D01*
X132208332Y-62591667D01*
X132148809Y-62710714D01*
X132148809Y-63365476D01*
X131732142Y-62532143D02*
X131255952Y-62532143D01*
X131553571Y-62115476D02*
X131553571Y-63186905D01*
X131494047Y-63305952D01*
X131375000Y-63365476D01*
X131255952Y-63365476D01*
X129946428Y-63305952D02*
X129767856Y-63365476D01*
X129470237Y-63365476D01*
X129351190Y-63305952D01*
X129291666Y-63246429D01*
X129232142Y-63127381D01*
X129232142Y-63008333D01*
X129291666Y-62889286D01*
X129351190Y-62829762D01*
X129470237Y-62770238D01*
X129708333Y-62710714D01*
X129827380Y-62651190D01*
X129886904Y-62591667D01*
X129946428Y-62472619D01*
X129946428Y-62353571D01*
X129886904Y-62234524D01*
X129827380Y-62175000D01*
X129708333Y-62115476D01*
X129410713Y-62115476D01*
X129232142Y-62175000D01*
X128696428Y-63365476D02*
X128696428Y-62532143D01*
X128696428Y-62115476D02*
X128755952Y-62175000D01*
X128696428Y-62234524D01*
X128636904Y-62175000D01*
X128696428Y-62115476D01*
X128696428Y-62234524D01*
X128101190Y-62532143D02*
X128101190Y-63365476D01*
X128101190Y-62651190D02*
X128041666Y-62591667D01*
X127922619Y-62532143D01*
X127744047Y-62532143D01*
X127624999Y-62591667D01*
X127565476Y-62710714D01*
X127565476Y-63365476D01*
X126970238Y-63365476D02*
X126970238Y-62115476D01*
X126851190Y-62889286D02*
X126494047Y-63365476D01*
X126494047Y-62532143D02*
X126970238Y-63008333D01*
X124648809Y-63841667D02*
X124708333Y-63782143D01*
X124827381Y-63603571D01*
X124886904Y-63484524D01*
X124946428Y-63305952D01*
X125005952Y-63008333D01*
X125005952Y-62770238D01*
X124946428Y-62472619D01*
X124886904Y-62294048D01*
X124827381Y-62175000D01*
X124708333Y-61996429D01*
X124648809Y-61936905D01*
X123994048Y-63365476D02*
X124113095Y-63305952D01*
X124172619Y-63246429D01*
X124232143Y-63127381D01*
X124232143Y-62770238D01*
X124172619Y-62651190D01*
X124113095Y-62591667D01*
X123994048Y-62532143D01*
X123815476Y-62532143D01*
X123696428Y-62591667D01*
X123636905Y-62651190D01*
X123577381Y-62770238D01*
X123577381Y-63127381D01*
X123636905Y-63246429D01*
X123696428Y-63305952D01*
X123815476Y-63365476D01*
X123994048Y-63365476D01*
X123041667Y-63365476D02*
X123041667Y-62532143D01*
X123041667Y-62770238D02*
X122982143Y-62651190D01*
X122922619Y-62591667D01*
X122803572Y-62532143D01*
X122684524Y-62532143D01*
X121375000Y-63305952D02*
X121196428Y-63365476D01*
X120898809Y-63365476D01*
X120779762Y-63305952D01*
X120720238Y-63246429D01*
X120660714Y-63127381D01*
X120660714Y-63008333D01*
X120720238Y-62889286D01*
X120779762Y-62829762D01*
X120898809Y-62770238D01*
X121136905Y-62710714D01*
X121255952Y-62651190D01*
X121315476Y-62591667D01*
X121375000Y-62472619D01*
X121375000Y-62353571D01*
X121315476Y-62234524D01*
X121255952Y-62175000D01*
X121136905Y-62115476D01*
X120839285Y-62115476D01*
X120660714Y-62175000D01*
X120244048Y-62532143D02*
X120005952Y-63365476D01*
X119767857Y-62770238D01*
X119529762Y-63365476D01*
X119291667Y-62532143D01*
X118815476Y-63365476D02*
X118815476Y-62532143D01*
X118815476Y-62115476D02*
X118875000Y-62175000D01*
X118815476Y-62234524D01*
X118755952Y-62175000D01*
X118815476Y-62115476D01*
X118815476Y-62234524D01*
X118220238Y-63365476D02*
X118220238Y-62532143D01*
X118220238Y-62651190D02*
X118160714Y-62591667D01*
X118041667Y-62532143D01*
X117863095Y-62532143D01*
X117744047Y-62591667D01*
X117684524Y-62710714D01*
X117684524Y-63365476D01*
X117684524Y-62710714D02*
X117625000Y-62591667D01*
X117505952Y-62532143D01*
X117327381Y-62532143D01*
X117208333Y-62591667D01*
X117148809Y-62710714D01*
X117148809Y-63365476D01*
X116672619Y-63841667D02*
X116613095Y-63782143D01*
X116494047Y-63603571D01*
X116434523Y-63484524D01*
X116375000Y-63305952D01*
X116315476Y-63008333D01*
X116315476Y-62770238D01*
X116375000Y-62472619D01*
X116434523Y-62294048D01*
X116494047Y-62175000D01*
X116613095Y-61996429D01*
X116672619Y-61936905D01*
%LPC*%
D10*
G36*
X130032196Y-65735603D02*
X130224842Y-65729378D01*
X130472899Y-65710334D01*
X130700865Y-65684746D01*
X130908608Y-65652638D01*
X131095998Y-65614033D01*
X131262903Y-65568953D01*
X131396154Y-65522605D01*
X131520654Y-65465347D01*
X131629091Y-65398005D01*
X131720444Y-65321564D01*
X131793689Y-65237003D01*
X131847804Y-65145306D01*
X131878831Y-65059321D01*
X131887590Y-65009368D01*
X131892754Y-64945458D01*
X131894290Y-64875048D01*
X131892167Y-64805595D01*
X131886351Y-64744557D01*
X131880330Y-64711900D01*
X131850921Y-64625442D01*
X131805829Y-64548615D01*
X131749583Y-64483496D01*
X131666386Y-64415103D01*
X131565442Y-64359100D01*
X131446858Y-64315533D01*
X131310742Y-64284445D01*
X131238761Y-64273913D01*
X131219654Y-64272904D01*
X131179759Y-64271936D01*
X131119995Y-64271011D01*
X131041284Y-64270127D01*
X130944546Y-64269286D01*
X130830701Y-64268487D01*
X130700670Y-64267730D01*
X130555374Y-64267015D01*
X130395733Y-64266343D01*
X130222668Y-64265713D01*
X130037099Y-64265125D01*
X129839948Y-64264581D01*
X129632134Y-64264079D01*
X129414578Y-64263620D01*
X129188201Y-64263203D01*
X128953923Y-64262830D01*
X128712665Y-64262500D01*
X128465347Y-64262213D01*
X128212891Y-64261969D01*
X127956216Y-64261768D01*
X127696243Y-64261611D01*
X127433893Y-64261497D01*
X127170086Y-64261427D01*
X126905743Y-64261400D01*
X126641785Y-64261417D01*
X126379131Y-64261478D01*
X126118704Y-64261583D01*
X125861422Y-64261732D01*
X125608208Y-64261924D01*
X125359980Y-64262161D01*
X125117661Y-64262442D01*
X124882170Y-64262768D01*
X124654428Y-64263138D01*
X124435356Y-64263552D01*
X124225874Y-64264010D01*
X124026903Y-64264514D01*
X123839364Y-64265062D01*
X123664176Y-64265655D01*
X123502261Y-64266292D01*
X123354539Y-64266975D01*
X123221931Y-64267703D01*
X123105357Y-64268475D01*
X123005738Y-64269293D01*
X122923994Y-64270157D01*
X122861047Y-64271065D01*
X122817815Y-64272019D01*
X122795222Y-64273019D01*
X122793804Y-64273157D01*
X122646101Y-64296959D01*
X122515910Y-64332756D01*
X122403392Y-64380441D01*
X122308706Y-64439907D01*
X122232014Y-64511046D01*
X122173476Y-64593754D01*
X122133254Y-64687921D01*
X122124934Y-64717777D01*
X122114706Y-64779179D01*
X122110253Y-64852033D01*
X122111358Y-64928955D01*
X122117807Y-65002563D01*
X122129384Y-65065474D01*
X122135692Y-65086837D01*
X122175377Y-65177733D01*
X122229682Y-65260792D01*
X122299259Y-65336314D01*
X122384761Y-65404597D01*
X122486841Y-65465940D01*
X122606151Y-65520640D01*
X122743346Y-65568997D01*
X122899077Y-65611310D01*
X123073998Y-65647876D01*
X123268761Y-65678993D01*
X123484020Y-65704962D01*
X123488768Y-65705454D01*
X123723477Y-65725274D01*
X123942396Y-65734155D01*
X124148641Y-65731828D01*
X124345329Y-65718022D01*
X124535577Y-65692469D01*
X124722502Y-65654897D01*
X124909221Y-65605037D01*
X125008163Y-65573869D01*
X125109354Y-65537670D01*
X125211113Y-65496206D01*
X125311402Y-65450716D01*
X125408182Y-65402439D01*
X125499412Y-65352614D01*
X125583054Y-65302479D01*
X125657069Y-65253273D01*
X125719418Y-65206235D01*
X125768060Y-65162604D01*
X125800958Y-65123620D01*
X125816071Y-65090519D01*
X125816838Y-65082596D01*
X125807595Y-65052459D01*
X125782794Y-65017328D01*
X125746832Y-64980766D01*
X125704101Y-64946336D01*
X125658996Y-64917603D01*
X125615912Y-64898130D01*
X125581128Y-64891453D01*
X125552349Y-64899542D01*
X125510555Y-64923373D01*
X125472960Y-64950005D01*
X125340067Y-65039037D01*
X125189214Y-65120364D01*
X125023096Y-65192951D01*
X124844413Y-65255764D01*
X124655860Y-65307768D01*
X124460138Y-65347929D01*
X124416582Y-65355041D01*
X124343858Y-65363625D01*
X124253644Y-65369885D01*
X124150030Y-65373847D01*
X124037107Y-65375536D01*
X123918966Y-65374978D01*
X123799697Y-65372199D01*
X123683393Y-65367224D01*
X123574143Y-65360079D01*
X123476039Y-65350790D01*
X123461368Y-65349072D01*
X123266195Y-65322125D01*
X123092227Y-65290946D01*
X122939367Y-65255490D01*
X122807518Y-65215714D01*
X122696585Y-65171573D01*
X122606469Y-65123024D01*
X122537075Y-65070023D01*
X122488306Y-65012525D01*
X122460065Y-64950488D01*
X122452119Y-64890739D01*
X122461367Y-64825048D01*
X122488735Y-64768918D01*
X122534707Y-64721924D01*
X122599768Y-64683645D01*
X122684403Y-64653658D01*
X122738637Y-64640717D01*
X122747612Y-64638965D01*
X122757484Y-64637316D01*
X122768908Y-64635768D01*
X122782542Y-64634317D01*
X122799041Y-64632959D01*
X122819062Y-64631693D01*
X122843260Y-64630514D01*
X122872292Y-64629419D01*
X122906814Y-64628406D01*
X122947483Y-64627471D01*
X122994954Y-64626611D01*
X123049883Y-64625823D01*
X123112928Y-64625104D01*
X123184743Y-64624450D01*
X123265986Y-64623858D01*
X123357312Y-64623326D01*
X123459377Y-64622849D01*
X123572838Y-64622426D01*
X123698352Y-64622052D01*
X123836573Y-64621724D01*
X123988158Y-64621440D01*
X124153764Y-64621197D01*
X124334047Y-64620990D01*
X124529663Y-64620817D01*
X124741267Y-64620675D01*
X124969517Y-64620561D01*
X125215068Y-64620471D01*
X125478577Y-64620402D01*
X125760699Y-64620352D01*
X126062092Y-64620316D01*
X126383410Y-64620292D01*
X126725311Y-64620277D01*
X126983718Y-64620269D01*
X127344897Y-64620256D01*
X127685018Y-64620239D01*
X128004735Y-64620227D01*
X128304701Y-64620227D01*
X128585568Y-64620248D01*
X128847988Y-64620296D01*
X129092615Y-64620380D01*
X129320101Y-64620508D01*
X129531098Y-64620687D01*
X129726260Y-64620925D01*
X129906239Y-64621230D01*
X130071687Y-64621609D01*
X130223257Y-64622072D01*
X130361601Y-64622624D01*
X130487373Y-64623275D01*
X130601225Y-64624031D01*
X130703810Y-64624901D01*
X130795780Y-64625893D01*
X130877788Y-64627014D01*
X130950486Y-64628272D01*
X131014527Y-64629675D01*
X131070564Y-64631231D01*
X131119249Y-64632947D01*
X131161235Y-64634831D01*
X131197175Y-64636892D01*
X131227721Y-64639136D01*
X131253525Y-64641572D01*
X131275241Y-64644208D01*
X131293522Y-64647051D01*
X131309018Y-64650109D01*
X131322385Y-64653389D01*
X131334273Y-64656901D01*
X131345336Y-64660651D01*
X131356225Y-64664647D01*
X131367595Y-64668897D01*
X131378294Y-64672775D01*
X131447651Y-64703533D01*
X131497579Y-64741070D01*
X131529897Y-64787710D01*
X131546423Y-64845783D01*
X131549566Y-64891834D01*
X131541099Y-64956617D01*
X131514796Y-65016487D01*
X131470270Y-65071619D01*
X131407134Y-65122191D01*
X131325000Y-65168378D01*
X131223481Y-65210356D01*
X131102190Y-65248300D01*
X130960739Y-65282388D01*
X130798741Y-65312794D01*
X130615809Y-65339695D01*
X130544060Y-65348638D01*
X130447727Y-65358424D01*
X130340380Y-65366408D01*
X130226698Y-65372467D01*
X130111358Y-65376481D01*
X129999040Y-65378326D01*
X129894422Y-65377880D01*
X129802183Y-65375021D01*
X129729652Y-65369897D01*
X129583681Y-65350710D01*
X129429455Y-65322223D01*
X129276672Y-65286482D01*
X129135031Y-65245531D01*
X129126049Y-65242609D01*
X129034134Y-65209483D01*
X128935994Y-65168879D01*
X128836531Y-65123212D01*
X128740642Y-65074899D01*
X128653229Y-65026357D01*
X128579191Y-64980002D01*
X128546795Y-64956956D01*
X128497902Y-64922094D01*
X128459861Y-64901023D01*
X128427842Y-64892520D01*
X128397016Y-64895367D01*
X128362550Y-64908340D01*
X128359721Y-64909670D01*
X128331641Y-64926798D01*
X128296960Y-64953270D01*
X128260500Y-64984702D01*
X128227083Y-65016711D01*
X128201528Y-65044915D01*
X128188657Y-65064932D01*
X128188541Y-65065282D01*
X128189971Y-65095529D01*
X128210127Y-65131811D01*
X128247221Y-65173059D01*
X128299466Y-65218203D01*
X128365072Y-65266175D01*
X128442253Y-65315904D01*
X128529221Y-65366322D01*
X128624187Y-65416359D01*
X128725364Y-65464945D01*
X128830964Y-65511011D01*
X128939199Y-65553488D01*
X129048281Y-65591305D01*
X129089530Y-65604216D01*
X129312436Y-65661789D01*
X129546410Y-65703159D01*
X129787611Y-65727905D01*
X130032196Y-65735603D01*
X130032196Y-65735603D01*
X130032196Y-65735603D01*
G37*
X130032196Y-65735603D02*
X130224842Y-65729378D01*
X130472899Y-65710334D01*
X130700865Y-65684746D01*
X130908608Y-65652638D01*
X131095998Y-65614033D01*
X131262903Y-65568953D01*
X131396154Y-65522605D01*
X131520654Y-65465347D01*
X131629091Y-65398005D01*
X131720444Y-65321564D01*
X131793689Y-65237003D01*
X131847804Y-65145306D01*
X131878831Y-65059321D01*
X131887590Y-65009368D01*
X131892754Y-64945458D01*
X131894290Y-64875048D01*
X131892167Y-64805595D01*
X131886351Y-64744557D01*
X131880330Y-64711900D01*
X131850921Y-64625442D01*
X131805829Y-64548615D01*
X131749583Y-64483496D01*
X131666386Y-64415103D01*
X131565442Y-64359100D01*
X131446858Y-64315533D01*
X131310742Y-64284445D01*
X131238761Y-64273913D01*
X131219654Y-64272904D01*
X131179759Y-64271936D01*
X131119995Y-64271011D01*
X131041284Y-64270127D01*
X130944546Y-64269286D01*
X130830701Y-64268487D01*
X130700670Y-64267730D01*
X130555374Y-64267015D01*
X130395733Y-64266343D01*
X130222668Y-64265713D01*
X130037099Y-64265125D01*
X129839948Y-64264581D01*
X129632134Y-64264079D01*
X129414578Y-64263620D01*
X129188201Y-64263203D01*
X128953923Y-64262830D01*
X128712665Y-64262500D01*
X128465347Y-64262213D01*
X128212891Y-64261969D01*
X127956216Y-64261768D01*
X127696243Y-64261611D01*
X127433893Y-64261497D01*
X127170086Y-64261427D01*
X126905743Y-64261400D01*
X126641785Y-64261417D01*
X126379131Y-64261478D01*
X126118704Y-64261583D01*
X125861422Y-64261732D01*
X125608208Y-64261924D01*
X125359980Y-64262161D01*
X125117661Y-64262442D01*
X124882170Y-64262768D01*
X124654428Y-64263138D01*
X124435356Y-64263552D01*
X124225874Y-64264010D01*
X124026903Y-64264514D01*
X123839364Y-64265062D01*
X123664176Y-64265655D01*
X123502261Y-64266292D01*
X123354539Y-64266975D01*
X123221931Y-64267703D01*
X123105357Y-64268475D01*
X123005738Y-64269293D01*
X122923994Y-64270157D01*
X122861047Y-64271065D01*
X122817815Y-64272019D01*
X122795222Y-64273019D01*
X122793804Y-64273157D01*
X122646101Y-64296959D01*
X122515910Y-64332756D01*
X122403392Y-64380441D01*
X122308706Y-64439907D01*
X122232014Y-64511046D01*
X122173476Y-64593754D01*
X122133254Y-64687921D01*
X122124934Y-64717777D01*
X122114706Y-64779179D01*
X122110253Y-64852033D01*
X122111358Y-64928955D01*
X122117807Y-65002563D01*
X122129384Y-65065474D01*
X122135692Y-65086837D01*
X122175377Y-65177733D01*
X122229682Y-65260792D01*
X122299259Y-65336314D01*
X122384761Y-65404597D01*
X122486841Y-65465940D01*
X122606151Y-65520640D01*
X122743346Y-65568997D01*
X122899077Y-65611310D01*
X123073998Y-65647876D01*
X123268761Y-65678993D01*
X123484020Y-65704962D01*
X123488768Y-65705454D01*
X123723477Y-65725274D01*
X123942396Y-65734155D01*
X124148641Y-65731828D01*
X124345329Y-65718022D01*
X124535577Y-65692469D01*
X124722502Y-65654897D01*
X124909221Y-65605037D01*
X125008163Y-65573869D01*
X125109354Y-65537670D01*
X125211113Y-65496206D01*
X125311402Y-65450716D01*
X125408182Y-65402439D01*
X125499412Y-65352614D01*
X125583054Y-65302479D01*
X125657069Y-65253273D01*
X125719418Y-65206235D01*
X125768060Y-65162604D01*
X125800958Y-65123620D01*
X125816071Y-65090519D01*
X125816838Y-65082596D01*
X125807595Y-65052459D01*
X125782794Y-65017328D01*
X125746832Y-64980766D01*
X125704101Y-64946336D01*
X125658996Y-64917603D01*
X125615912Y-64898130D01*
X125581128Y-64891453D01*
X125552349Y-64899542D01*
X125510555Y-64923373D01*
X125472960Y-64950005D01*
X125340067Y-65039037D01*
X125189214Y-65120364D01*
X125023096Y-65192951D01*
X124844413Y-65255764D01*
X124655860Y-65307768D01*
X124460138Y-65347929D01*
X124416582Y-65355041D01*
X124343858Y-65363625D01*
X124253644Y-65369885D01*
X124150030Y-65373847D01*
X124037107Y-65375536D01*
X123918966Y-65374978D01*
X123799697Y-65372199D01*
X123683393Y-65367224D01*
X123574143Y-65360079D01*
X123476039Y-65350790D01*
X123461368Y-65349072D01*
X123266195Y-65322125D01*
X123092227Y-65290946D01*
X122939367Y-65255490D01*
X122807518Y-65215714D01*
X122696585Y-65171573D01*
X122606469Y-65123024D01*
X122537075Y-65070023D01*
X122488306Y-65012525D01*
X122460065Y-64950488D01*
X122452119Y-64890739D01*
X122461367Y-64825048D01*
X122488735Y-64768918D01*
X122534707Y-64721924D01*
X122599768Y-64683645D01*
X122684403Y-64653658D01*
X122738637Y-64640717D01*
X122747612Y-64638965D01*
X122757484Y-64637316D01*
X122768908Y-64635768D01*
X122782542Y-64634317D01*
X122799041Y-64632959D01*
X122819062Y-64631693D01*
X122843260Y-64630514D01*
X122872292Y-64629419D01*
X122906814Y-64628406D01*
X122947483Y-64627471D01*
X122994954Y-64626611D01*
X123049883Y-64625823D01*
X123112928Y-64625104D01*
X123184743Y-64624450D01*
X123265986Y-64623858D01*
X123357312Y-64623326D01*
X123459377Y-64622849D01*
X123572838Y-64622426D01*
X123698352Y-64622052D01*
X123836573Y-64621724D01*
X123988158Y-64621440D01*
X124153764Y-64621197D01*
X124334047Y-64620990D01*
X124529663Y-64620817D01*
X124741267Y-64620675D01*
X124969517Y-64620561D01*
X125215068Y-64620471D01*
X125478577Y-64620402D01*
X125760699Y-64620352D01*
X126062092Y-64620316D01*
X126383410Y-64620292D01*
X126725311Y-64620277D01*
X126983718Y-64620269D01*
X127344897Y-64620256D01*
X127685018Y-64620239D01*
X128004735Y-64620227D01*
X128304701Y-64620227D01*
X128585568Y-64620248D01*
X128847988Y-64620296D01*
X129092615Y-64620380D01*
X129320101Y-64620508D01*
X129531098Y-64620687D01*
X129726260Y-64620925D01*
X129906239Y-64621230D01*
X130071687Y-64621609D01*
X130223257Y-64622072D01*
X130361601Y-64622624D01*
X130487373Y-64623275D01*
X130601225Y-64624031D01*
X130703810Y-64624901D01*
X130795780Y-64625893D01*
X130877788Y-64627014D01*
X130950486Y-64628272D01*
X131014527Y-64629675D01*
X131070564Y-64631231D01*
X131119249Y-64632947D01*
X131161235Y-64634831D01*
X131197175Y-64636892D01*
X131227721Y-64639136D01*
X131253525Y-64641572D01*
X131275241Y-64644208D01*
X131293522Y-64647051D01*
X131309018Y-64650109D01*
X131322385Y-64653389D01*
X131334273Y-64656901D01*
X131345336Y-64660651D01*
X131356225Y-64664647D01*
X131367595Y-64668897D01*
X131378294Y-64672775D01*
X131447651Y-64703533D01*
X131497579Y-64741070D01*
X131529897Y-64787710D01*
X131546423Y-64845783D01*
X131549566Y-64891834D01*
X131541099Y-64956617D01*
X131514796Y-65016487D01*
X131470270Y-65071619D01*
X131407134Y-65122191D01*
X131325000Y-65168378D01*
X131223481Y-65210356D01*
X131102190Y-65248300D01*
X130960739Y-65282388D01*
X130798741Y-65312794D01*
X130615809Y-65339695D01*
X130544060Y-65348638D01*
X130447727Y-65358424D01*
X130340380Y-65366408D01*
X130226698Y-65372467D01*
X130111358Y-65376481D01*
X129999040Y-65378326D01*
X129894422Y-65377880D01*
X129802183Y-65375021D01*
X129729652Y-65369897D01*
X129583681Y-65350710D01*
X129429455Y-65322223D01*
X129276672Y-65286482D01*
X129135031Y-65245531D01*
X129126049Y-65242609D01*
X129034134Y-65209483D01*
X128935994Y-65168879D01*
X128836531Y-65123212D01*
X128740642Y-65074899D01*
X128653229Y-65026357D01*
X128579191Y-64980002D01*
X128546795Y-64956956D01*
X128497902Y-64922094D01*
X128459861Y-64901023D01*
X128427842Y-64892520D01*
X128397016Y-64895367D01*
X128362550Y-64908340D01*
X128359721Y-64909670D01*
X128331641Y-64926798D01*
X128296960Y-64953270D01*
X128260500Y-64984702D01*
X128227083Y-65016711D01*
X128201528Y-65044915D01*
X128188657Y-65064932D01*
X128188541Y-65065282D01*
X128189971Y-65095529D01*
X128210127Y-65131811D01*
X128247221Y-65173059D01*
X128299466Y-65218203D01*
X128365072Y-65266175D01*
X128442253Y-65315904D01*
X128529221Y-65366322D01*
X128624187Y-65416359D01*
X128725364Y-65464945D01*
X128830964Y-65511011D01*
X128939199Y-65553488D01*
X129048281Y-65591305D01*
X129089530Y-65604216D01*
X129312436Y-65661789D01*
X129546410Y-65703159D01*
X129787611Y-65727905D01*
X130032196Y-65735603D01*
X130032196Y-65735603D01*
D12*
X119800000Y-57800000D03*
X134300000Y-57800000D03*
D13*
X132968000Y-80000000D03*
D14*
X137032000Y-80000000D03*
D15*
X114300000Y-48260000D03*
X139700000Y-48260000D03*
D16*
X143000000Y-79790000D03*
D17*
X143000000Y-77250000D03*
X143000000Y-74710000D03*
D18*
X109000000Y-70250000D03*
X109000000Y-67750000D03*
X109000000Y-65250000D03*
D19*
X112300000Y-72750000D03*
D20*
X112300000Y-62750000D03*
D18*
X125000000Y-80750000D03*
X122500000Y-80750000D03*
X120000000Y-80750000D03*
D19*
X127500000Y-77450000D03*
D20*
X117500000Y-77450000D03*
D21*
X143500000Y-69040000D03*
D22*
X143500000Y-63960000D03*
D23*
X109000000Y-75500000D03*
X114250000Y-81000000D03*
D10*
G36*
X111380525Y-80000000D02*
X109800000Y-81580525D01*
X108219475Y-80000000D01*
X109800000Y-78419475D01*
X111380525Y-80000000D01*
X111380525Y-80000000D01*
G37*
D24*
X127000000Y-52070000D03*
X124460000Y-52070000D03*
X129540000Y-52070000D03*
M02*
