G04 #@! TF.FileFunction,Copper,L1,Top,Signal*
%FSLAX46Y46*%
G04 Gerber Fmt 4.6, Leading zero omitted, Abs format (unit mm)*
G04 Created by KiCad (PCBNEW (2015-01-16 BZR 5376)-product) date 1-3-2015 23:04:45*
%MOMM*%
G01*
G04 APERTURE LIST*
%ADD10C,0.100000*%
%ADD11C,1.998980*%
%ADD12R,2.794000X5.080000*%
%ADD13O,2.794000X5.080000*%
%ADD14R,1.397000X0.889000*%
%ADD15R,0.700000X0.600000*%
%ADD16R,0.889000X1.397000*%
%ADD17R,1.143000X0.508000*%
%ADD18R,0.508000X1.143000*%
%ADD19R,2.032000X1.727200*%
%ADD20O,2.032000X1.727200*%
%ADD21C,2.000000*%
%ADD22C,2.500000*%
%ADD23C,2.600000*%
%ADD24R,2.540000X2.540000*%
%ADD25O,2.540000X2.540000*%
%ADD26R,2.235200X2.235200*%
%ADD27O,1.501140X2.499360*%
%ADD28C,1.143000*%
%ADD29C,0.889000*%
%ADD30C,0.609600*%
%ADD31C,0.254000*%
G04 APERTURE END LIST*
D10*
D11*
X119750000Y-58200000D03*
X134250000Y-58200000D03*
D12*
X132968000Y-80000000D03*
D13*
X137032000Y-80000000D03*
D14*
X121800000Y-64152500D03*
X121800000Y-62247500D03*
X136200000Y-70752500D03*
X136200000Y-68847500D03*
X136200000Y-63847500D03*
X136200000Y-65752500D03*
D15*
X116400000Y-62900000D03*
X116400000Y-64300000D03*
D14*
X124000000Y-64047500D03*
X124000000Y-65952500D03*
X123600000Y-74552500D03*
X123600000Y-72647500D03*
X121200000Y-72647500D03*
X121200000Y-74552500D03*
D16*
X130352500Y-72600000D03*
X128447500Y-72600000D03*
D14*
X128000000Y-64047500D03*
X128000000Y-65952500D03*
X128000000Y-68447500D03*
X128000000Y-70352500D03*
X126000000Y-64047500D03*
X126000000Y-65952500D03*
X119600000Y-62247500D03*
X119600000Y-64152500D03*
D17*
X121975000Y-66095000D03*
X121975000Y-67365000D03*
X121975000Y-68635000D03*
X121975000Y-69905000D03*
X115625000Y-69905000D03*
X115625000Y-68635000D03*
X115625000Y-67365000D03*
X115625000Y-66095000D03*
D18*
X134105000Y-70375000D03*
X132835000Y-70375000D03*
X131565000Y-70375000D03*
X130295000Y-70375000D03*
X130295000Y-64025000D03*
X131565000Y-64025000D03*
X132835000Y-64025000D03*
X134105000Y-64025000D03*
D19*
X143000000Y-79790000D03*
D20*
X143000000Y-77250000D03*
X143000000Y-74710000D03*
D21*
X109000000Y-70250000D03*
X109000000Y-67750000D03*
X109000000Y-65250000D03*
D22*
X112300000Y-72750000D03*
D23*
X112300000Y-62750000D03*
D21*
X125000000Y-80750000D03*
X122500000Y-80750000D03*
X120000000Y-80750000D03*
D22*
X127500000Y-77450000D03*
D23*
X117500000Y-77450000D03*
D24*
X143500000Y-69040000D03*
D25*
X143500000Y-63960000D03*
D26*
X109000000Y-75500000D03*
X114250000Y-81000000D03*
D10*
G36*
X111380525Y-80000000D02*
X109800000Y-81580525D01*
X108219475Y-80000000D01*
X109800000Y-78419475D01*
X111380525Y-80000000D01*
X111380525Y-80000000D01*
G37*
D27*
X127000000Y-52070000D03*
X124460000Y-52070000D03*
X129540000Y-52070000D03*
D28*
X123800000Y-58600000D03*
X132200000Y-67200000D03*
X136200000Y-67400000D03*
X127000000Y-72000000D03*
X119200000Y-73600000D03*
X138200000Y-71800000D03*
X120200000Y-68600000D03*
X122600000Y-55000000D03*
D29*
X124000000Y-68800000D03*
X118200000Y-69800000D03*
X125400000Y-75800000D03*
X125400000Y-73400000D03*
D30*
X121975000Y-64327500D02*
X121800000Y-64152500D01*
X121975000Y-66095000D02*
X121975000Y-64327500D01*
X136177500Y-63825000D02*
X136200000Y-63847500D01*
X134282500Y-63847500D02*
X136200000Y-63847500D01*
X134105000Y-64025000D02*
X134282500Y-63847500D01*
X121847500Y-64200000D02*
X121800000Y-64152500D01*
X121775000Y-64177500D02*
X121800000Y-64152500D01*
X135000000Y-62647500D02*
X136200000Y-63847500D01*
X129400000Y-62647500D02*
X135000000Y-62647500D01*
X128000000Y-64047500D02*
X129400000Y-62647500D01*
X123895000Y-64152500D02*
X124000000Y-64047500D01*
X121800000Y-64152500D02*
X123895000Y-64152500D01*
X126000000Y-64047500D02*
X124000000Y-64047500D01*
X128000000Y-64047500D02*
X126000000Y-64047500D01*
X121800000Y-62247500D02*
X121800000Y-60600000D01*
X121800000Y-60600000D02*
X123800000Y-58600000D01*
X132835000Y-66565000D02*
X132200000Y-67200000D01*
X131565000Y-66565000D02*
X131565000Y-64025000D01*
X131565000Y-66565000D02*
X132200000Y-67200000D01*
X132835000Y-64025000D02*
X132835000Y-66565000D01*
X131565000Y-67835000D02*
X132200000Y-67200000D01*
X131565000Y-70375000D02*
X131565000Y-67835000D01*
X132835000Y-67835000D02*
X132200000Y-67200000D01*
X132835000Y-70375000D02*
X132835000Y-67835000D01*
X136200000Y-67400000D02*
X136200000Y-65752500D01*
X136200000Y-68847500D02*
X136200000Y-67400000D01*
X115280000Y-70250000D02*
X115625000Y-69905000D01*
X109000000Y-70250000D02*
X115280000Y-70250000D01*
X128000000Y-72152500D02*
X128447500Y-72600000D01*
X128000000Y-70352500D02*
X128000000Y-72152500D01*
X127847500Y-72000000D02*
X127000000Y-72000000D01*
X128447500Y-72600000D02*
X127847500Y-72000000D01*
X120152500Y-74552500D02*
X119200000Y-73600000D01*
X121200000Y-74552500D02*
X120152500Y-74552500D01*
X138200000Y-71800000D02*
X137152500Y-70752500D01*
X137152500Y-70752500D02*
X136200000Y-70752500D01*
X134482500Y-70752500D02*
X136200000Y-70752500D01*
X134105000Y-70375000D02*
X134482500Y-70752500D01*
D31*
X119600000Y-62247500D02*
X119600000Y-61000000D01*
X124460000Y-56140000D02*
X124460000Y-52070000D01*
X119600000Y-61000000D02*
X124460000Y-56140000D01*
X116400000Y-62900000D02*
X117052500Y-62247500D01*
X117052500Y-62247500D02*
X119600000Y-62247500D01*
X119347500Y-62300000D02*
X119600000Y-62047500D01*
X119600000Y-62247500D02*
X119752500Y-62247500D01*
X115625000Y-65075000D02*
X116400000Y-64300000D01*
X115625000Y-66095000D02*
X115625000Y-65075000D01*
D30*
X145560000Y-63960000D02*
X143500000Y-63960000D01*
X146200000Y-64600000D02*
X145560000Y-63960000D01*
X146200000Y-72000000D02*
X146200000Y-64600000D01*
X143490000Y-74710000D02*
X146200000Y-72000000D01*
X143000000Y-74710000D02*
X143490000Y-74710000D01*
X142842500Y-74552500D02*
X143000000Y-74710000D01*
X123600000Y-74552500D02*
X142842500Y-74552500D01*
X127000000Y-55600000D02*
X133000000Y-61600000D01*
X133000000Y-61600000D02*
X141140000Y-61600000D01*
X141140000Y-61600000D02*
X143500000Y-63960000D01*
X127000000Y-52070000D02*
X127000000Y-55600000D01*
X120200000Y-68600000D02*
X120235000Y-68635000D01*
X120235000Y-68635000D02*
X121975000Y-68635000D01*
X119700000Y-57900000D02*
X122600000Y-55000000D01*
X119700000Y-58200000D02*
X119700000Y-57900000D01*
D31*
X122400000Y-72647500D02*
X121200000Y-72647500D01*
X123600000Y-72647500D02*
X122400000Y-72647500D01*
X117365000Y-67365000D02*
X122400000Y-72400000D01*
X122400000Y-72400000D02*
X122400000Y-72647500D01*
X115625000Y-67365000D02*
X117365000Y-67365000D01*
X130295000Y-72542500D02*
X130352500Y-72600000D01*
X130295000Y-70375000D02*
X130295000Y-72542500D01*
X128000000Y-67200000D02*
X128000000Y-65952500D01*
X128000000Y-68447500D02*
X128000000Y-67200000D01*
X130295000Y-65905000D02*
X129000000Y-67200000D01*
X129000000Y-67200000D02*
X128000000Y-67200000D01*
X130295000Y-64025000D02*
X130295000Y-65905000D01*
X119600000Y-64152500D02*
X119600000Y-66400000D01*
X120565000Y-67365000D02*
X121975000Y-67365000D01*
X119600000Y-66400000D02*
X120565000Y-67365000D01*
X107200000Y-73700000D02*
X109000000Y-75500000D01*
X107200000Y-68800000D02*
X107200000Y-73700000D01*
X108250000Y-67750000D02*
X107200000Y-68800000D01*
X109000000Y-67750000D02*
X108250000Y-67750000D01*
X112750000Y-67750000D02*
X113635000Y-68635000D01*
X113635000Y-68635000D02*
X115625000Y-68635000D01*
X109000000Y-67750000D02*
X112750000Y-67750000D01*
X118200000Y-69800000D02*
X117035000Y-68635000D01*
X117035000Y-68635000D02*
X115625000Y-68635000D01*
X124000000Y-65952500D02*
X124000000Y-68800000D01*
X115650000Y-82400000D02*
X114250000Y-81000000D01*
X121600000Y-82400000D02*
X115650000Y-82400000D01*
X122500000Y-81500000D02*
X121600000Y-82400000D01*
X122500000Y-80750000D02*
X122500000Y-81500000D01*
X125095000Y-69905000D02*
X121975000Y-69905000D01*
X126000000Y-69000000D02*
X125095000Y-69905000D01*
X126000000Y-65952500D02*
X126000000Y-69000000D01*
X122500000Y-80750000D02*
X122500000Y-79900000D01*
X125400000Y-77000000D02*
X125400000Y-75800000D01*
X125400000Y-73400000D02*
X125400000Y-70210000D01*
X125400000Y-70210000D02*
X125095000Y-69905000D01*
X122500000Y-79900000D02*
X125095000Y-77305000D01*
X125095000Y-77305000D02*
X125400000Y-77000000D01*
D30*
X142790000Y-80000000D02*
X143000000Y-79790000D01*
X137032000Y-80000000D02*
X142790000Y-80000000D01*
M02*
