G04 #@! TF.FileFunction,Soldermask,Top*
%FSLAX46Y46*%
G04 Gerber Fmt 4.6, Leading zero omitted, Abs format (unit mm)*
G04 Created by KiCad (PCBNEW (2015-01-16 BZR 5376)-product) date 1-3-2015 23:04:45*
%MOMM*%
G01*
G04 APERTURE LIST*
%ADD10C,0.100000*%
%ADD11C,1.998980*%
%ADD12R,2.794000X5.080000*%
%ADD13O,2.794000X5.080000*%
%ADD14R,1.397000X0.889000*%
%ADD15R,0.700000X0.600000*%
%ADD16R,0.889000X1.397000*%
%ADD17R,1.143000X0.508000*%
%ADD18R,0.508000X1.143000*%
%ADD19C,2.311400*%
%ADD20R,2.032000X1.727200*%
%ADD21O,2.032000X1.727200*%
%ADD22C,2.000000*%
%ADD23C,2.500000*%
%ADD24C,2.600000*%
%ADD25R,2.540000X2.540000*%
%ADD26O,2.540000X2.540000*%
%ADD27R,2.235200X2.235200*%
%ADD28O,1.501140X2.499360*%
G04 APERTURE END LIST*
D10*
D11*
X119750000Y-58200000D03*
X134250000Y-58200000D03*
D12*
X132968000Y-80000000D03*
D13*
X137032000Y-80000000D03*
D14*
X121800000Y-64152500D03*
X121800000Y-62247500D03*
X136200000Y-70752500D03*
X136200000Y-68847500D03*
X136200000Y-63847500D03*
X136200000Y-65752500D03*
D15*
X116400000Y-62900000D03*
X116400000Y-64300000D03*
D14*
X124000000Y-64047500D03*
X124000000Y-65952500D03*
X123600000Y-74552500D03*
X123600000Y-72647500D03*
X121200000Y-72647500D03*
X121200000Y-74552500D03*
D16*
X130352500Y-72600000D03*
X128447500Y-72600000D03*
D14*
X128000000Y-64047500D03*
X128000000Y-65952500D03*
X128000000Y-68447500D03*
X128000000Y-70352500D03*
X126000000Y-64047500D03*
X126000000Y-65952500D03*
X119600000Y-62247500D03*
X119600000Y-64152500D03*
D17*
X121975000Y-66095000D03*
X121975000Y-67365000D03*
X121975000Y-68635000D03*
X121975000Y-69905000D03*
X115625000Y-69905000D03*
X115625000Y-68635000D03*
X115625000Y-67365000D03*
X115625000Y-66095000D03*
D18*
X134105000Y-70375000D03*
X132835000Y-70375000D03*
X131565000Y-70375000D03*
X130295000Y-70375000D03*
X130295000Y-64025000D03*
X131565000Y-64025000D03*
X132835000Y-64025000D03*
X134105000Y-64025000D03*
D19*
X114300000Y-48260000D03*
X139700000Y-48260000D03*
D20*
X143000000Y-79790000D03*
D21*
X143000000Y-77250000D03*
X143000000Y-74710000D03*
D22*
X109000000Y-70250000D03*
X109000000Y-67750000D03*
X109000000Y-65250000D03*
D23*
X112300000Y-72750000D03*
D24*
X112300000Y-62750000D03*
D22*
X125000000Y-80750000D03*
X122500000Y-80750000D03*
X120000000Y-80750000D03*
D23*
X127500000Y-77450000D03*
D24*
X117500000Y-77450000D03*
D25*
X143500000Y-69040000D03*
D26*
X143500000Y-63960000D03*
D27*
X109000000Y-75500000D03*
X114250000Y-81000000D03*
D10*
G36*
X111380525Y-80000000D02*
X109800000Y-81580525D01*
X108219475Y-80000000D01*
X109800000Y-78419475D01*
X111380525Y-80000000D01*
X111380525Y-80000000D01*
G37*
D28*
X127000000Y-52070000D03*
X124460000Y-52070000D03*
X129540000Y-52070000D03*
M02*
